<svg xmlns="http://www.w3.org/2000/svg" xmlns:xlink="http://www.w3.org/1999/xlink" width="16" height="16" viewBox="0 0 16 16" fill="none"><g opacity="1"  transform="translate(0 0)  rotate(0)"><mask id="bg-mask-0" fill="white"><use xlink:href="#path_0"></use></mask><g mask="url(#bg-mask-0)" ><path id="路径 1" fill-rule="evenodd" fill="url(#linear_0)" opacity="1" d="M14.4049,14.2339c-0.1,0.15 -0.27,0.25 -0.46,0.24h-11.91002c-0.19,0.01 -0.36,-0.09 -0.46,-0.24c-0.09,-0.16 -0.09,-0.35 0,-0.5c0.1,-0.16 0.27,-0.25 0.46,-0.25h11.91002c0.19,0 0.36,0.09 0.46,0.25c0.1,0.15 0.1,0.34 0,0.5zM8.33488,10.3739c-0.56,0.5 -1.25,0.83 -2,0.92l-1.29,0.11c-0.63,0.05 -0.97,0.08 -1.04,0.08c-0.13,0 -0.26,-0.05 -0.35,-0.15c-0.17,-0.16 -0.17,-0.16 -0.07,-1.38l0.11,-1.29c0.09,-0.75 0.42,-1.45 0.93,-2l4.75,-4.75c0.59,-0.56 1.51002,-0.56 2.10002,0l1.61,1.61c0.58,0.58 0.58,1.52 0,2.1zM10.7749,2.6139c-0.19,-0.19 -0.51,-0.19 -0.7,0l-4.75002,4.75c-0.34,0.38 -0.57,0.86 -0.64,1.38l-0.11,1.29l-0.03,0.41l0.42,-0.03l1.29,-0.11c0.51,-0.07 0.99,-0.3 1.38,-0.64l4.75002,-4.74c0.19,-0.2 0.19,-0.51 0,-0.7v0z"></path></g></g><defs><rect id="path_0" x="0" y="0" width="16" height="16" /><linearGradient id="linear_0" x1="0%" y1="50%" x2="100%" y2="50%" gradientUnits="objectBoundingBox"><stop offset="0" stop-color="#A5D63F" stop-opacity="1" /><stop offset="1" stop-color="#4CD69B" stop-opacity="1" /></linearGradient></defs></svg>