<svg xmlns="http://www.w3.org/2000/svg" width="19" height="17" fill="none"><path fill="#fff" stroke="#fff" stroke-linecap="round" stroke-width=".076" d="M14.338 11.92c1.25-1.613 1.146-2.48 1.63-4.623.237-.71 2.851-.269 2.802.882-.076 1.762-1.392 3.754-2.56 4.03-.712.167-1.122.06-1.85-.208a.052.052 0 0 1-.022-.08ZM4.562 11.505c-1.21-1.65-1.076-2.514-1.495-4.671-.215-.717-2.87-.355-2.858.798.018 1.764 1.281 3.795 2.451 4.105.715.19 1.133.094 1.877-.152a.052.052 0 0 0 .025-.08Z"/><path stroke="#fff" stroke-linecap="round" stroke-width=".5" d="M2.39 6.977c1.604-7.97 12.879-7.97 14.442 0"/><ellipse cx="5.519" cy="4.867" fill="#fff" rx="5.519" ry="4.867" transform="rotate(1.096 -148.254 220.459)skewX(.041)"/><path fill="#fff" stroke="#fff" stroke-linecap="round" stroke-width=".076" d="m13.37 12.618-3.686 4.336a.05.05 0 0 1-.078 0L6.05 12.618c-.034-.041.011-.1.06-.078l3.514 1.61a.05.05 0 0 0 .041 0l3.646-1.612c.049-.022.094.038.059.08Z"/></svg>