<svg width="19" height="17" viewBox="0 0 19 17" fill="none" xmlns="http://www.w3.org/2000/svg">
<path d="M14.3376 11.9205C15.5881 10.3075 15.4841 9.4404 15.9684 7.29734C16.2046 6.58792 18.819 7.0282 18.7697 8.17943C18.6943 9.94136 17.3781 11.9334 16.2108 12.2082C15.4976 12.3761 15.0877 12.2683 14.3598 12.0005C14.3275 11.9886 14.3166 11.9477 14.3376 11.9205Z" fill="white" stroke="white" stroke-width="0.0758681" stroke-linecap="round"/>
<path d="M4.56193 11.5053C3.35227 9.85504 3.48593 8.99109 3.06743 6.83377C2.8523 6.11732 0.196918 6.4794 0.208697 7.63204C0.226725 9.39613 1.49044 11.4274 2.66046 11.7371C3.37548 11.9264 3.7931 11.8307 4.53732 11.5846C4.57015 11.5738 4.5823 11.5331 4.56193 11.5053Z" fill="white" stroke="white" stroke-width="0.0758681" stroke-linecap="round"/>
<path d="M2.38916 6.97703C3.9938 -0.992335 15.2689 -0.99233 16.8324 6.97704" stroke="white" stroke-width="0.5" stroke-linecap="round"/>
<ellipse cx="5.51896" cy="4.86676" rx="5.51896" ry="4.86676" transform="matrix(0.999817 0.019112 -0.018394 0.999831 4.18628 2.87378)" fill="white"/>
<path d="M13.3698 12.6182L9.6835 16.9538C9.66307 16.9779 9.62587 16.9775 9.60587 16.9532L6.04971 12.619C6.0157 12.5776 6.06111 12.5186 6.10988 12.541L9.62359 14.1501C9.63674 14.1561 9.65185 14.1562 9.66509 14.1504L13.3108 12.5392C13.36 12.5174 13.4046 12.5772 13.3698 12.6182Z" fill="white" stroke="white" stroke-width="0.0758681" stroke-linecap="round"/>
</svg>
