<svg xmlns="http://www.w3.org/2000/svg" width="16" height="16" fill="none"><path stroke="rgba(104, 104, 104, 1)" stroke-linejoin="round" d="M7.999 14.666c1.84 0 3.507-.746 4.714-1.952A6.65 6.65 0 0 0 14.665 8c0-1.841-.746-3.508-1.952-4.714a6.65 6.65 0 0 0-4.714-1.953c-1.841 0-3.508.746-4.714 1.953A6.65 6.65 0 0 0 1.332 8c0 1.84.746 3.507 1.953 4.714a6.65 6.65 0 0 0 4.714 1.952Z" style="mix-blend-mode:normal"/><path fill="#686868" fill-rule="evenodd" d="M8.001 3.667a.833.833 0 1 1 0 1.667.833.833 0 0 1 0-1.667" style="mix-blend-mode:normal"/><path stroke="rgba(104, 104, 104, 1)" stroke-linecap="square" stroke-linejoin="round" d="M8.167 11.334V6.667H7.5M7 11.333h2.333" style="mix-blend-mode:normal"/></svg>