<svg width="16" height="16" viewBox="0 0 16 16" fill="none" xmlns="http://www.w3.org/2000/svg">
<g clip-path="url(#clip0_1_15069)">
<path d="M7.9987 14.6663C9.83963 14.6663 11.5063 13.9201 12.7127 12.7137C13.9192 11.5073 14.6654 9.84061 14.6654 7.99967C14.6654 6.15874 13.9192 4.49207 12.7127 3.28563C11.5063 2.0792 9.83963 1.33301 7.9987 1.33301C6.15776 1.33301 4.4911 2.0792 3.28465 3.28563C2.07822 4.49207 1.33203 6.15874 1.33203 7.99967C1.33203 9.84061 2.07822 11.5073 3.28465 12.7137C4.4911 13.9201 6.15776 14.6663 7.9987 14.6663Z" stroke="white" stroke-linejoin="round"/>
<path fill-rule="evenodd" clip-rule="evenodd" d="M8.0013 3.66699C8.46154 3.66699 8.83464 4.04009 8.83464 4.50033C8.83464 4.96056 8.46154 5.33366 8.0013 5.33366C7.54107 5.33366 7.16797 4.96056 7.16797 4.50033C7.16797 4.04009 7.54107 3.66699 8.0013 3.66699Z" fill="white"/>
<path d="M8.16667 11.3337V6.66699H7.83333H7.5" stroke="white" stroke-linecap="square" stroke-linejoin="round"/>
<path d="M7 11.333H9.33333" stroke="white" stroke-linecap="square" stroke-linejoin="round"/>
</g>
<defs>
<clipPath id="clip0_1_15069">
<rect width="16" height="16" fill="white"/>
</clipPath>
</defs>
</svg>
