<svg width="34" height="34" viewBox="0 0 34 34" fill="none" xmlns="http://www.w3.org/2000/svg">
<rect x="0.5" y="0.5" width="33" height="33" rx="16.5" stroke="#444444"/>
<g clip-path="url(#clip0_1_11148)">
<path fill-rule="evenodd" clip-rule="evenodd" d="M15.1641 9.20027C14.7736 8.80975 14.1404 8.80975 13.7499 9.20027C13.3594 9.5908 13.3594 10.224 13.7499 10.6145L19.4068 16.2713C19.7973 16.6619 19.7973 17.295 19.4068 17.6856L13.7499 23.3424C13.3594 23.7329 13.3594 24.3661 13.7499 24.7566C14.1404 25.1471 14.7736 25.1471 15.1641 24.7566L22.2351 17.6856C22.2352 17.6856 22.2352 17.6856 21.5281 16.9784L22.2351 17.6856C22.6257 17.2951 22.6257 16.6619 22.2352 16.2713L15.1641 9.20027Z" fill="white"/>
</g>
<defs>
<clipPath id="clip0_1_11148">
<rect width="18" height="18" fill="white" transform="matrix(-1 0 0 1 26 8)"/>
</clipPath>
</defs>
</svg>
