<svg width="34" height="34" viewBox="0 0 34 34" fill="none" xmlns="http://www.w3.org/2000/svg">
<rect x="0.5" y="0.5" width="33" height="33" rx="16.5" stroke="#444444"/>
<g clip-path="url(#clip0_1_11145)">
<path fill-rule="evenodd" clip-rule="evenodd" d="M18.8359 9.20027C19.2264 8.80975 19.8596 8.80975 20.2501 9.20027C20.6406 9.5908 20.6406 10.224 20.2501 10.6145L14.5932 16.2713C14.2027 16.6619 14.2027 17.295 14.5932 17.6856L20.2501 23.3424C20.6406 23.7329 20.6406 24.3661 20.2501 24.7566C19.8596 25.1471 19.2264 25.1471 18.8359 24.7566L11.7649 17.6856C11.7648 17.6856 11.7648 17.6856 12.4719 16.9784L11.7649 17.6856C11.3743 17.2951 11.3743 16.6619 11.7648 16.2713L18.8359 9.20027Z" fill="white"/>
</g>
<defs>
<clipPath id="clip0_1_11145">
<rect width="18" height="18" fill="white" transform="translate(8 8)"/>
</clipPath>
</defs>
</svg>
