<svg width="108" height="110" viewBox="0 0 108 110" fill="none" xmlns="http://www.w3.org/2000/svg">
<path fill-rule="evenodd" clip-rule="evenodd" d="M21.4887 87.3636C21.4887 79.6033 36.1664 73.4998 54.2723 73.731C72.3781 73.9621 87.0558 80.4404 87.0558 88.2006L86.8735 95.8396C86.8735 88.0793 72.1958 81.6011 54.09 81.3699C35.9841 81.1388 21.3064 87.2423 21.3064 95.0025L21.4887 87.3636Z" fill="#0E0E0E" stroke="white" stroke-width="0.174112" stroke-linejoin="round"/>
<path fill-rule="evenodd" clip-rule="evenodd" d="M87.0558 88.2003C87.0558 95.9606 72.3781 102.064 54.2723 101.833C36.1664 101.602 21.4887 95.1235 21.4887 87.3633L21.3064 95.0022C21.3064 102.762 35.9841 109.241 54.09 109.472C72.1958 109.703 86.8735 103.6 86.8735 95.8393L87.0558 88.2003Z" fill="#0E0E0E" stroke="white" stroke-width="0.174112" stroke-linejoin="round"/>
<path d="M86.765 88.2006C86.765 90.0422 85.8956 91.809 84.2736 93.4319C82.6502 95.0563 80.2862 96.5213 77.3417 97.7457C71.4536 100.194 63.2987 101.658 54.2753 101.543C45.2521 101.428 37.0965 99.7556 31.2073 97.1563C28.2622 95.8564 25.897 94.3305 24.2722 92.6632C22.6483 90.997 21.7782 89.2059 21.7782 87.3636C21.7782 85.522 22.6476 83.7552 24.2696 82.1322C25.8931 80.5079 28.257 79.0429 31.2015 77.8184C37.0896 75.37 45.2446 73.9059 54.2679 74.0211C63.2911 74.1363 71.4467 75.8086 77.3359 78.4079C80.281 79.7077 82.6462 81.2337 84.2711 82.9009C85.8949 84.5671 86.765 86.3583 86.765 88.2006Z" stroke="white" stroke-width="0.580375"/>
<path d="M54.4052 93.7473L35.2544 65.5997L54.4052 55.4434L74.1364 65.5997L54.4052 93.7473Z" fill="#0E0E0E"/>
<path d="M35.2544 65.5997L54.4052 93.7473L74.1364 65.5997M35.2544 65.5997L54.4052 55.4434L74.1364 65.5997M35.2544 65.5997L54.4052 77.207L74.1364 65.5997" stroke="white" stroke-width="0.580375"/>
<path d="M35.2544 40.9342L54.4052 7.85352L74.1364 40.9342L54.4052 52.8316L35.2544 40.9342Z" fill="#0E0E0E" stroke="white" stroke-width="0.580375"/>
<path d="M54.6943 73.4345L35.5435 63.2781L54.6943 53.7021L73.555 63.2781L54.6943 73.4345Z" fill="#0E0E0E" stroke="white" stroke-width="0.348225"/>
<path d="M54.4009 7.85352V52.5414" stroke="white" stroke-width="0.23215"/>
<path d="M54.4009 77.207V93.7464" stroke="white" stroke-width="0.23215"/>
<path d="M34.9653 62.6981V40.9345L54.4063 31.0684L74.1375 40.9345V62.6981" stroke="white" stroke-width="0.23215" stroke-dasharray="2.32 2.32"/>
<path d="M64.0617 61.219C64.1348 62.6326 63.1542 63.9919 61.4534 65.0408C59.7568 66.0871 57.3675 66.8071 54.6881 66.9456C52.0086 67.0841 49.5578 66.6143 47.7624 65.7485C45.9625 64.8806 44.847 63.6296 44.774 62.216C44.7009 60.8024 45.6814 59.4431 47.3822 58.3942C49.0789 57.3479 51.4682 56.6279 54.1476 56.4893C56.8271 56.3508 59.2778 56.8207 61.0733 57.6865C62.8732 58.5544 63.9886 59.8053 64.0617 61.219Z" fill="#0E0E0E" stroke="white" stroke-width="0.23215"/>
<path d="M44.8271 68.2112L47.1486 66.5908" stroke="white" stroke-width="0.23215"/>
<path d="M49.1139 65.8594C49.1299 66.0734 49.0146 66.2914 48.7853 66.4694C48.5568 66.6467 48.2257 66.7743 47.8457 66.8027C47.4657 66.831 47.1193 66.7538 46.867 66.6123C46.6139 66.4702 46.4676 66.2717 46.4517 66.0577C46.4357 65.8436 46.551 65.6257 46.7803 65.4477C47.0088 65.2704 47.3399 65.1427 47.7199 65.1144C48.0999 65.0861 48.4463 65.1633 48.6986 65.3048C48.9517 65.4469 49.098 65.6453 49.1139 65.8594Z" fill="#0E0E0E" stroke="white" stroke-width="0.23215"/>
<path d="M48.311 61.3677C49.4716 52.3723 60.2073 53.8231 60.7876 61.3677C60.7876 64.8501 48.311 65.1403 48.311 61.3677Z" fill="#ACFF43" stroke="white" stroke-width="0.580375"/>
<path d="M49.7642 59.6264V62.8184C51.5053 63.9792 57.5991 64.034 59.6303 62.5831V60.497H58.1794V61.6577H57.3089V59.9166H55.858V62.8184H54.6973V58.7559H53.2463V60.497H51.7954V61.6577H50.9249V59.6264H49.7642Z" fill="#0E0E0E" stroke="#0E0E0E" stroke-width="0.580375"/>
<path d="M106.055 28.9602C106.055 36.1724 101.097 42.7574 92.9249 47.7705M1.01538 28.9602C1.01538 44.666 24.5293 57.398 53.5351 57.398C64.7496 57.398 75.1432 55.4948 83.6743 52.2523M53.5351 0.522461C62.371 0.522461 70.6973 1.70395 78.0045 3.79108C79.4815 4.21294 80.9168 4.67179 82.3063 5.16536M11.5962 11.8395C18.1606 7.13243 27.3654 3.56535 38.0179 1.78409" stroke="white" stroke-width="0.580375" stroke-dasharray="2.32 2.32"/>
<path fill-rule="evenodd" clip-rule="evenodd" d="M88.5244 1.805C89.0143 1.60386 89.6075 1.64625 90.2467 1.98011L103.953 9.13872C105.635 10.0173 106.999 12.5817 106.999 14.8664V21.5888C106.999 23.0053 106.475 23.9818 105.675 24.3099L103.047 25.3471C103.847 25.0189 104.371 24.0424 104.371 22.6259V15.9035C104.371 13.6188 103.007 11.0544 101.325 10.1759L87.6188 3.01726C86.9796 2.6834 86.3864 2.64101 85.8965 2.84215L88.5244 1.805Z" fill="#0E0E0E" stroke="white" stroke-width="0.174112" stroke-linejoin="round"/>
<path fill-rule="evenodd" clip-rule="evenodd" d="M105.679 24.3096C105.189 24.5107 104.596 24.4684 103.956 24.1345L90.2501 16.9759C88.568 16.0973 87.2043 13.533 87.2043 11.2482V4.52585C87.2043 3.10932 87.7285 2.13286 88.5278 1.80469L85.8999 2.84183C85.1006 3.17001 84.5764 4.14647 84.5764 5.563V12.2854C84.5764 14.5701 85.9401 17.1345 87.6223 18.013L101.329 25.1716C101.968 25.5055 102.561 25.5479 103.051 25.3468L105.679 24.3096Z" fill="#0E0E0E" stroke="white" stroke-width="0.174112" stroke-linejoin="round"/>
<path d="M84.7769 5.56328C84.7769 4.45421 85.1083 3.66622 85.5973 3.25746C86.0734 2.85948 86.7444 2.7841 87.5302 3.1945L101.236 10.3531C102.03 10.7678 102.767 11.5921 103.306 12.6063C103.844 13.6182 104.175 14.7985 104.175 15.9035V22.6259C104.175 23.7349 103.843 24.5229 103.354 24.9317C102.878 25.3297 102.207 25.4051 101.422 24.9946L87.7153 17.836C86.9213 17.4214 86.1849 16.597 85.6456 15.5829C85.1075 14.571 84.7769 13.3907 84.7769 12.2857V5.56328Z" fill="#0E0E0E" stroke="white" stroke-width="0.400006"/>
<path fill-rule="evenodd" clip-rule="evenodd" d="M13.4309 69.7972C12.4506 70.1799 11.3032 70.1554 10.077 69.6415C6.47032 68.1302 3.54655 62.9586 3.54655 58.0904C3.54655 54.8773 4.82015 52.5995 6.72309 51.8564L4.17654 52.7844C2.27359 53.5274 1 55.8052 1 59.0183C1 63.8865 3.92377 69.0582 7.53042 70.5695C8.75668 71.0833 9.90401 71.1079 10.8843 70.7251L13.4309 69.7972Z" fill="#0E0E0E" stroke="white" stroke-width="0.580375"/>
<path fill-rule="evenodd" clip-rule="evenodd" d="M6.726 51.8565C7.7063 51.4738 8.85362 51.4983 10.0799 52.0122C13.6865 53.5235 16.6103 58.6951 16.6103 63.5634C16.6103 66.7764 15.3367 69.0543 13.4338 69.7973L10.8872 70.7252C12.7902 69.9822 14.0638 67.7043 14.0638 64.4913C14.0638 59.623 11.14 54.4514 7.53333 52.9401C6.30707 52.4263 5.15975 52.4017 4.17944 52.7845L6.726 51.8565Z" fill="#0E0E0E" stroke="white" stroke-width="0.200003"/>
<path d="M13.9106 64.4911C13.9106 66.8987 13.1875 68.7501 12.0457 69.8128C10.9114 70.8685 9.34286 71.1663 7.58815 70.431C5.82518 69.6923 4.21449 68.0509 3.04305 65.9788C1.87266 63.9086 1.14976 61.4238 1.14976 59.0182C1.14976 56.6106 1.8729 54.7592 3.01467 53.6965C4.14892 52.6408 5.7175 52.343 7.47221 53.0783C9.23518 53.817 10.8459 55.4584 12.0173 57.5305C13.1877 59.6007 13.9106 62.0855 13.9106 64.4911Z" fill="#0E0E0E" stroke="white" stroke-width="0.300005"/>
<path fill-rule="evenodd" clip-rule="evenodd" d="M92.6066 15.9982L92.1013 15.7469L90.2494 11.6417L90.2156 11.6248L90.9715 11.2217L91.0053 11.2385L92.8573 15.3437L93.3625 15.595L92.6066 15.9982Z" fill="white"/>
<path fill-rule="evenodd" clip-rule="evenodd" d="M90.2156 11.6248V14.8089L90.9715 14.4058V11.2217L90.2156 11.6248Z" fill="white"/>
<path fill-rule="evenodd" clip-rule="evenodd" d="M90.2184 14.8092L89.6687 14.5357V10.1942L90.4246 9.79102V14.1326L90.9743 14.406L90.2184 14.8092Z" fill="white"/>
<path fill-rule="evenodd" clip-rule="evenodd" d="M89.6687 10.1942L90.1775 10.4472L92.0313 14.5576L92.0651 14.5744L92.821 14.1712L92.7872 14.1544L90.9334 10.0441L90.4246 9.79102L89.6687 10.1942Z" fill="white"/>
<path fill-rule="evenodd" clip-rule="evenodd" d="M92.0669 14.5739V11.3856L92.8228 10.9824V14.1708L92.0669 14.5739Z" fill="white"/>
<path fill-rule="evenodd" clip-rule="evenodd" d="M92.0669 11.3856L92.6113 11.6563V15.9979L93.3672 15.5947V11.2532L92.8228 10.9824L92.0669 11.3856Z" fill="white"/>
<path fill-rule="evenodd" clip-rule="evenodd" d="M93.4104 12.0555L95.6698 13.1792V13.7431L96.4257 13.34V12.7761L94.1663 11.6523L93.4104 12.0555Z" fill="white"/>
<path fill-rule="evenodd" clip-rule="evenodd" d="M95.6747 13.7437L93.9651 12.8934L94.721 12.4902L96.4307 13.3406L95.6747 13.7437Z" fill="white"/>
<path fill-rule="evenodd" clip-rule="evenodd" d="M93.9651 12.8934V14.2162L95.5128 14.986V15.5478L96.2688 15.1446V14.5829L94.721 13.8131V12.4902L93.9651 12.8934Z" fill="white"/>
<path fill-rule="evenodd" clip-rule="evenodd" d="M95.5128 15.548L93.9651 14.7782L94.721 14.375L96.2688 15.1448L95.5128 15.548Z" fill="white"/>
<path fill-rule="evenodd" clip-rule="evenodd" d="M93.9651 14.7782V16.6712L94.721 16.2681V14.375L93.9651 14.7782Z" fill="white"/>
<path fill-rule="evenodd" clip-rule="evenodd" d="M93.9601 16.6705L93.4104 16.3971V12.0555L94.1663 11.6523V15.9939L94.716 16.2673L93.9601 16.6705Z" fill="white"/>
<path fill-rule="evenodd" clip-rule="evenodd" d="M96.168 13.4266L98.9877 14.8291V15.393L99.7437 14.9898V14.4259L96.9239 13.0234L96.168 13.4266Z" fill="white"/>
<path fill-rule="evenodd" clip-rule="evenodd" d="M98.9845 15.3924L97.8477 14.827L98.6036 14.4238L99.7404 14.9893L98.9845 15.3924Z" fill="white"/>
<path fill-rule="evenodd" clip-rule="evenodd" d="M97.8477 14.827V18.6047L98.6036 18.2015V14.4238L97.8477 14.827Z" fill="white"/>
<path fill-rule="evenodd" clip-rule="evenodd" d="M97.8509 18.6052L97.303 18.3327V14.555L96.168 13.9905V13.4266L96.9239 13.0234V13.5873L98.0589 14.1518V17.9295L98.6068 18.202L97.8509 18.6052Z" fill="white"/>
<path d="M92.6104 11.657V15.9985L92.1052 15.7472L90.2532 11.642L90.2194 11.6252V14.8093L89.6697 14.5359V10.1943L90.1785 10.4474L92.0322 14.5577L92.066 14.5745V11.3862L92.6104 11.657ZM93.4123 16.3974V12.0558L95.6717 13.1795V13.7434L93.962 12.8931V14.2159L95.5098 14.9857V15.5475L93.962 14.7777V16.6708L93.4123 16.3974ZM96.168 13.9903V13.4264L98.9878 14.8289V15.3928L97.851 14.8273V18.605L97.303 18.3325V14.5548L96.168 13.9903Z" fill="#0E0E0E"/>
</svg>
