<svg width="662" height="459" viewBox="0 0 662 459" fill="none" xmlns="http://www.w3.org/2000/svg">
<g opacity="0.8">
<path d="M90.7774 242.753C90.6552 243.319 90.0975 243.678 89.5317 243.556C88.9659 243.434 88.6063 242.876 88.7285 242.311C88.8507 241.745 89.4084 241.385 89.9742 241.508C90.54 241.63 90.8996 242.187 90.7774 242.753Z" fill="#ACFF43" stroke="white" stroke-width="0.419257"/>
<path d="M110.891 237.627L110.471 239.573M110.05 241.52L110.471 239.573M110.471 239.573L112.11 239.927L108.627 239.175" stroke="white" stroke-width="0.335405" stroke-linecap="round"/>
<path d="M109.788 264.895C109.593 265.8 108.7 266.376 107.795 266.18C106.89 265.985 106.314 265.092 106.51 264.187C106.705 263.282 107.598 262.706 108.503 262.902C109.408 263.097 109.984 263.99 109.788 264.895Z" fill="#ACFF43" stroke="white" stroke-width="0.419257"/>
<path d="M99.0308 258.89C98.688 260.477 97.1235 261.486 95.5363 261.143C93.9491 260.8 92.9403 259.236 93.283 257.649C93.6258 256.062 95.1903 255.053 96.7775 255.396C98.3647 255.739 99.3735 257.303 99.0308 258.89Z" fill="#ACFF43" stroke="white" stroke-width="0.890264"/>
<path d="M98.5753 247.242L96.8286 255.329M99.1348 258.906L106.12 260.414M95.5583 261.212L93.9704 268.564M93.2522 257.635L86.2666 256.127" stroke="white" stroke-width="0.71221" stroke-linecap="round"/>
</g>
<g filter="url(#filter0_f_1_11404)">
<circle cx="117.672" cy="117.5" r="85.5" fill="#193E33" fill-opacity="0.7"/>
</g>
<circle cx="348.172" cy="118" r="4" fill="#193E33"/>
<g filter="url(#filter1_f_1_11404)">
<circle cx="311.086" cy="303.086" r="56.0859" fill="#ACFF43" fill-opacity="0.35"/>
</g>
<circle cx="45.1719" cy="255" r="4" fill="url(#paint0_linear_1_11404)"/>
<path opacity="0.6" d="M167.008 343.543L167.577 337.631L167.279 337.602L167.848 331.69L168.147 331.718L168.716 325.806L168.417 325.777L168.986 319.865L169.285 319.894L169.854 313.981L169.555 313.952L170.124 308.04L170.423 308.069L170.992 302.156L170.693 302.127L171.262 296.215L171.561 296.244L172.13 290.331L171.831 290.303L172.401 284.39L172.699 284.419L173.268 278.506L172.97 278.478L173.539 272.565L173.837 272.594L174.406 266.682L174.108 266.653L174.677 260.74L174.975 260.769L175.545 254.857L175.246 254.828L175.815 248.915L176.114 248.944L176.683 243.032L176.384 243.003L176.953 237.091L177.252 237.119L177.821 231.207L177.522 231.178L178.091 225.266L178.39 225.294L178.959 219.382L178.66 219.353L179.229 213.441L179.528 213.469L180.097 207.557L179.799 207.528L180.368 201.616L180.666 201.645L181.235 195.732L180.937 195.703L181.506 189.791L181.804 189.82L182.373 183.907L182.075 183.878L182.644 177.966L182.943 177.995L183.512 172.082L183.213 172.054L183.498 169.097C183.584 168.195 183.626 167.305 183.625 166.429L183.925 166.428C183.922 164.568 183.728 162.772 183.363 161.067L183.07 161.13C182.685 159.336 182.108 157.646 181.364 156.093L181.635 155.963C180.835 154.293 179.843 152.778 178.688 151.457L178.462 151.654C177.276 150.297 175.915 149.15 174.415 148.257L174.569 148C173.03 147.084 171.346 146.431 169.548 146.084L169.492 146.379C168.639 146.215 167.76 146.121 166.859 146.103L164.008 146.047L164.014 145.747L158.312 145.634L158.306 145.933L152.604 145.82L152.61 145.52L146.908 145.407L146.902 145.707L141.2 145.594L141.206 145.294L135.504 145.181L135.498 145.481L129.796 145.368L129.802 145.068L124.1 144.955L124.094 145.254L118.392 145.141L118.398 144.841L112.696 144.728L112.69 145.028L106.988 144.915L106.994 144.615L101.292 144.502L101.286 144.802L95.5839 144.689L95.5898 144.389L89.8878 144.275L89.8819 144.575L84.1799 144.462L84.1858 144.162L78.4838 144.049L78.4779 144.349L72.7759 144.236L72.7818 143.936L67.0798 143.823L67.0739 144.123L61.3719 144.01L61.3778 143.71L55.6758 143.596L55.6699 143.896L52.8189 143.84C51.8853 143.821 50.9595 143.885 50.0467 144.025L50.0013 143.728C48.1442 144.013 46.3411 144.608 44.6347 145.469L44.7699 145.737C43.1421 146.559 41.6016 147.627 40.1871 148.903L39.9862 148.68C38.6139 149.918 37.3602 151.347 36.2592 152.931L36.5055 153.102C35.4608 154.605 34.5547 156.251 33.8172 158.007L33.5406 157.89C32.8227 159.6 32.2631 161.412 31.8887 163.3L32.183 163.358C32.0029 164.266 31.8661 165.192 31.7756 166.132L31.4904 169.095L31.1917 169.066L30.6213 174.993L30.9199 175.022L30.3494 180.949L30.0508 180.92L29.4804 186.847L29.779 186.876L29.2085 192.802L28.9099 192.774L28.3394 198.7L28.6381 198.729L28.0676 204.656L27.769 204.627L27.1985 210.554L27.4971 210.583L26.9267 216.51L26.6281 216.481L26.0576 222.408L26.3562 222.436L25.7858 228.363L25.4871 228.335L24.9167 234.261L25.2153 234.29L24.6449 240.217L24.3462 240.188L23.7758 246.115L24.0744 246.144L23.5039 252.071L23.2053 252.042L22.6349 257.969L22.9335 257.997L22.363 263.924L22.0644 263.895L21.4939 269.822L21.7926 269.851L21.2221 275.778L20.9235 275.749L20.353 281.676L20.6516 281.705L20.0812 287.631L19.7826 287.603L19.2121 293.529L19.5107 293.558L18.9403 299.485L18.6416 299.456L18.0712 305.383L18.3698 305.412L17.7993 311.339L17.5007 311.31L16.9303 317.237L17.2289 317.266L16.9436 320.229C16.8367 321.34 16.808 322.438 16.8527 323.52L16.553 323.532C16.6468 325.801 17.0599 327.995 17.75 330.069L18.0347 329.974C18.7341 332.076 19.7217 334.052 20.9526 335.853L20.7049 336.022C21.9604 337.86 23.4657 339.517 25.1742 340.942L25.3664 340.712C27.0414 342.11 28.9139 343.282 30.9388 344.18L30.8173 344.454C32.8153 345.34 34.96 345.961 37.2092 346.272L37.2502 345.975C38.3224 346.123 39.4187 346.2 40.5346 346.2L43.4025 346.2L43.4025 346.5L49.1384 346.5L49.1384 346.2L54.8743 346.2L54.8743 346.5L60.6102 346.5L60.6102 346.2L66.346 346.2L66.346 346.5L72.0819 346.5L72.0819 346.2L77.8178 346.2L77.8178 346.5L83.5537 346.5L83.5537 346.2L89.2895 346.2L89.2896 346.5L95.0254 346.5L95.0254 346.2L100.761 346.2L100.761 346.5L106.497 346.5L106.497 346.2L112.233 346.2L112.233 346.5L117.969 346.5L117.969 346.2L123.705 346.2L123.705 346.5L129.441 346.5L129.441 346.2L135.177 346.2L135.177 346.5L140.912 346.5L140.912 346.2L146.648 346.2L146.648 346.5L152.384 346.5L152.384 346.2L158.12 346.2L158.12 346.5L163.856 346.5L163.856 346.2L166.451 346.2L166.71 343.515L167.008 343.543Z" stroke="white" stroke-width="0.6" stroke-dasharray="6 6"/>
<path opacity="0.6" d="M224.785 204.499L230.731 204.499L230.731 204.199L236.677 204.199L236.677 204.499L242.623 204.499L242.623 204.199L248.569 204.199L248.569 204.499L254.515 204.499L254.515 204.199L260.46 204.199L260.46 204.499L266.406 204.499L266.406 204.199L272.352 204.199L272.352 204.499L278.298 204.499L278.298 204.199L284.244 204.199L284.244 204.499L290.19 204.499L290.19 204.199L296.136 204.199L296.136 204.499L302.082 204.499L302.082 204.199L308.027 204.199L308.027 204.499L313.973 204.499L313.973 204.199L319.919 204.199L319.919 204.499L325.865 204.499L325.865 204.199L331.811 204.199L331.811 204.499L337.757 204.499L337.757 204.199L343.703 204.199L343.703 204.499L349.649 204.499L349.649 204.199L352.621 204.199C353.605 204.199 354.575 204.139 355.529 204.022L355.565 204.32C357.55 204.077 359.463 203.59 361.273 202.89L361.165 202.611C362.99 201.905 364.708 200.979 366.286 199.864L366.459 200.109C368.067 198.974 369.531 197.644 370.815 196.152L370.588 195.957C371.849 194.493 372.935 192.871 373.812 191.122L374.081 191.256C374.951 189.522 375.618 187.664 376.051 185.712L375.758 185.647C375.965 184.709 376.118 183.749 376.212 182.77L376.516 179.617L376.815 179.646L377.422 173.34L377.123 173.311L377.73 167.005L378.028 167.034L378.635 160.728L378.337 160.699L378.944 154.393L379.242 154.421L379.849 148.115L379.551 148.087L380.158 141.781L380.456 141.809L381.063 135.503L380.765 135.475L381.372 129.168L381.67 129.197L382.277 122.891L381.979 122.862L382.586 116.556L382.884 116.585L383.491 110.279L383.193 110.25L383.496 107.097C383.583 106.195 383.625 105.304 383.623 104.428L383.923 104.428C383.921 102.568 383.727 100.772 383.361 99.0672L383.068 99.13C382.683 97.3356 382.107 95.6455 381.363 94.0926L381.633 93.963C380.833 92.2928 379.841 90.7775 378.687 89.4568L378.461 89.6542C377.274 88.2965 375.914 87.1497 374.414 86.2572L374.567 85.9994C373.029 85.0842 371.344 84.4304 369.547 84.0842L369.49 84.3788C368.638 84.2146 367.759 84.1209 366.857 84.1031L364.006 84.0465L364.012 83.7465L358.31 83.6334L358.304 83.9333L352.602 83.8201L352.608 83.5202L346.906 83.407L346.9 83.7069L341.198 83.5938L341.204 83.2938L335.502 83.1807L335.496 83.4806L329.794 83.3674L329.8 83.0675L324.098 82.9543L324.092 83.2543L318.39 83.1411L318.396 82.8411L312.694 82.728L312.688 83.0279L306.986 82.9147L306.992 82.6148L301.29 82.5016L301.284 82.8016L295.582 82.6884L295.588 82.3884L289.886 82.2753L289.88 82.5752L284.178 82.462L284.184 82.1621L278.482 82.0489L278.476 82.3489L272.774 82.2357L272.78 81.9357L267.078 81.8226L267.072 82.1225L261.37 82.0093L261.376 81.7094L255.674 81.5962L255.668 81.8962L252.817 81.8396C251.884 81.8211 250.958 81.8845 250.045 82.0244L250 81.7278C248.143 82.0125 246.34 82.608 244.633 83.4693L244.768 83.7371C243.141 84.5587 241.6 85.627 240.186 86.9026L239.985 86.6799C238.612 87.9175 237.359 89.3464 236.258 90.9306L236.504 91.1018C235.459 92.6051 234.553 94.2504 233.816 96.0064L233.539 95.8902C232.821 97.5996 232.262 99.4123 231.887 101.3L232.181 101.358C232.001 102.266 231.865 103.192 231.774 104.131L231.472 107.269L231.173 107.24L230.57 113.515L230.868 113.544L230.264 119.818L229.966 119.79L229.362 126.064L229.66 126.093L229.056 132.368L228.758 132.339L228.154 138.614L228.452 138.643L227.848 144.918L227.55 144.889L226.946 151.164L227.244 151.192L226.64 157.467L226.342 157.438L225.738 163.713L226.037 163.742L225.433 170.017L225.134 169.988L224.53 176.263L224.829 176.292L224.225 182.566L223.926 182.538L223.322 188.812L223.621 188.841L223.017 195.116L222.718 195.087L222.114 201.362L222.413 201.391L222.142 204.199L224.785 204.199L224.785 204.499Z" stroke="white" stroke-width="0.6" stroke-dasharray="6 6"/>
<g opacity="0.8">
<g filter="url(#filter2_b_1_11404)">
<path fill-rule="evenodd" clip-rule="evenodd" d="M70.2578 274.44C78.6144 277.117 84.0856 286.137 83.0415 296.793L81.7554 309.917L90.7329 313.089L92.019 299.965C93.0631 289.31 87.5919 280.289 79.2353 277.613L70.2578 274.44Z" fill="black" fill-opacity="0.2"/>
<path fill-rule="evenodd" clip-rule="evenodd" d="M70.2578 274.44C78.6144 277.117 84.0856 286.137 83.0415 296.793L81.7554 309.917L90.7329 313.089L92.019 299.965C93.0631 289.31 87.5919 280.289 79.2353 277.613L70.2578 274.44Z" stroke="white" stroke-width="0.3" stroke-linejoin="round"/>
</g>
<path fill-rule="evenodd" clip-rule="evenodd" d="M81.75 309.917L90.3636 309.999C90.8711 310.004 91.3558 310.084 91.8105 310.229L100.788 313.401C100.333 313.256 99.8486 313.176 99.3411 313.171L90.7275 313.089L81.75 309.917Z" fill="#0E0E0E" stroke="white"/>
<g filter="url(#filter3_b_1_11404)">
<path fill-rule="evenodd" clip-rule="evenodd" d="M91.8056 310.229C94.1932 310.994 95.7563 313.571 95.458 316.616L89.9921 372.393C89.6369 376.018 86.7781 378.931 83.6066 378.901L26.1825 378.356C25.675 378.351 25.1903 378.271 24.7355 378.125L33.713 381.298C34.1678 381.443 34.6525 381.523 35.16 381.528L92.5841 382.074C95.7556 382.104 98.6144 379.19 98.9696 375.566L104.435 319.788C104.734 316.743 103.171 314.166 100.783 313.402L91.8056 310.229Z" fill="black" fill-opacity="0.2"/>
<path fill-rule="evenodd" clip-rule="evenodd" d="M91.8056 310.229C94.1932 310.994 95.7563 313.571 95.458 316.616L89.9921 372.393C89.6369 376.018 86.7781 378.931 83.6066 378.901L26.1825 378.356C25.675 378.351 25.1903 378.271 24.7355 378.125L33.713 381.298C34.1678 381.443 34.6525 381.523 35.16 381.528L92.5841 382.074C95.7556 382.104 98.6144 379.19 98.9696 375.566L104.435 319.788C104.734 316.743 103.171 314.166 100.783 313.402L91.8056 310.229Z" stroke="white" stroke-width="0.3" stroke-linejoin="round"/>
</g>
<g filter="url(#filter4_b_1_11404)">
<path fill-rule="evenodd" clip-rule="evenodd" d="M55.3057 345.187L53.9605 358.914L62.938 362.086L64.2832 348.36L55.3057 345.187Z" fill="black" fill-opacity="0.2"/>
<path fill-rule="evenodd" clip-rule="evenodd" d="M55.3057 345.187L53.9605 358.914L62.938 362.086L64.2832 348.36L55.3057 345.187Z" stroke="white" stroke-width="0.3" stroke-linejoin="round"/>
</g>
<path fill-rule="evenodd" clip-rule="evenodd" d="M53.9605 358.915L59.7029 358.969L61.048 345.242C64.519 343.918 67.2766 340.336 67.696 336.056C68.1328 331.599 65.9089 327.808 62.471 326.564L71.4486 329.736C74.8864 330.981 77.1104 334.771 76.6735 339.229C76.2541 343.508 73.4965 347.09 70.0256 348.415L68.6804 362.141L62.9381 362.087L53.9605 358.915Z" fill="#0E0E0E" stroke="white"/>
<g filter="url(#filter5_b_1_11404)">
<path fill-rule="evenodd" clip-rule="evenodd" d="M62.4629 326.563C61.7083 326.29 60.8951 326.139 60.0388 326.131C55.2815 326.086 50.9934 330.456 50.4606 335.892C50.0413 340.172 52.0923 343.8 55.2976 345.187L64.2751 348.36C61.0698 346.972 59.0188 343.344 59.4381 339.065C59.9709 333.628 64.259 329.258 69.0163 329.303C69.8726 329.311 70.6858 329.462 71.4404 329.735L62.4629 326.563Z" fill="black" fill-opacity="0.2"/>
<path fill-rule="evenodd" clip-rule="evenodd" d="M62.4629 326.563C61.7083 326.29 60.8951 326.139 60.0388 326.131C55.2815 326.086 50.9934 330.456 50.4606 335.892C50.0413 340.172 52.0923 343.8 55.2976 345.187L64.2751 348.36C61.0698 346.972 59.0188 343.344 59.4381 339.065C59.9709 333.628 64.259 329.258 69.0163 329.303C69.8726 329.311 70.6858 329.462 71.4404 329.735L62.4629 326.563Z" stroke="white" stroke-width="0.3" stroke-linejoin="round"/>
</g>
<g filter="url(#filter6_b_1_11404)">
<path fill-rule="evenodd" clip-rule="evenodd" d="M67.4582 284.054C66.452 283.689 65.3679 283.488 64.2262 283.477C57.8834 283.417 52.1656 289.244 51.4553 296.493L50.1692 309.617L59.1467 312.789L60.4328 299.665C61.1431 292.416 66.8609 286.589 73.2037 286.65C74.3454 286.66 75.4295 286.861 76.4357 287.226L67.4582 284.054Z" fill="black" fill-opacity="0.2"/>
<path fill-rule="evenodd" clip-rule="evenodd" d="M67.4582 284.054C66.452 283.689 65.3679 283.488 64.2262 283.477C57.8834 283.417 52.1656 289.244 51.4553 296.493L50.1692 309.617L59.1467 312.789L60.4328 299.665C61.1431 292.416 66.8609 286.589 73.2037 286.65C74.3454 286.66 75.4295 286.861 76.4357 287.226L67.4582 284.054Z" stroke="white" stroke-width="0.3" stroke-linejoin="round"/>
</g>
<path fill-rule="evenodd" clip-rule="evenodd" d="M50.1635 309.617L73.1332 309.835L74.4192 296.711C75.0016 290.768 72.0362 285.714 67.4525 284.054L76.43 287.226C81.0137 288.886 83.9791 293.94 83.3967 299.883L82.1107 313.007L59.141 312.789L50.1635 309.617Z" fill="#0E0E0E" stroke="white"/>
<g filter="url(#filter7_b_1_11404)">
<path d="M83.614 378.901L26.1899 378.356C23.0183 378.326 20.7354 375.363 21.0906 371.739L26.5565 315.961C26.9116 312.337 29.7703 309.423 32.9419 309.453L41.5555 309.535L42.8416 296.411C44.0846 283.726 54.0906 273.529 65.1907 273.635C76.2908 273.74 84.2816 284.108 83.0385 296.793L81.7524 309.917L90.3661 309.999C93.5376 310.029 95.8205 312.991 95.4654 316.615L89.9995 372.393C89.6443 376.018 86.7855 378.931 83.614 378.901ZM55.3051 345.188L53.9599 358.914L59.7023 358.969L61.0474 345.242C64.5184 343.918 67.276 340.336 67.6954 336.056C68.2281 330.62 64.8036 326.176 60.0463 326.131C55.289 326.086 51.0009 330.456 50.4682 335.893C50.0488 340.172 52.0999 343.8 55.3051 345.188ZM74.4249 296.711C75.1351 289.463 70.569 283.538 64.2262 283.478C57.8834 283.417 52.1656 289.245 51.4553 296.493L50.1692 309.617L73.1388 309.835L74.4249 296.711Z" fill="#0E0E0E" fill-opacity="0.1"/>
<path d="M83.614 378.901L26.1899 378.356C23.0183 378.326 20.7354 375.363 21.0906 371.739L26.5565 315.961C26.9116 312.337 29.7703 309.423 32.9419 309.453L41.5555 309.535L42.8416 296.411C44.0846 283.726 54.0906 273.529 65.1907 273.635C76.2908 273.74 84.2816 284.108 83.0385 296.793L81.7524 309.917L90.3661 309.999C93.5376 310.029 95.8205 312.991 95.4654 316.615L89.9995 372.393C89.6443 376.018 86.7855 378.931 83.614 378.901ZM55.3051 345.188L53.9599 358.914L59.7023 358.969L61.0474 345.242C64.5184 343.918 67.276 340.336 67.6954 336.056C68.2281 330.62 64.8036 326.176 60.0463 326.131C55.289 326.086 51.0009 330.456 50.4682 335.893C50.0488 340.172 52.0999 343.8 55.3051 345.188ZM74.4249 296.711C75.1351 289.463 70.569 283.538 64.2262 283.478C57.8834 283.417 52.1656 289.245 51.4553 296.493L50.1692 309.617L73.1388 309.835L74.4249 296.711Z" stroke="white" stroke-width="0.8"/>
</g>
</g>
<g filter="url(#filter8_b_1_11404)">
<path fill-rule="evenodd" clip-rule="evenodd" d="M287.218 52.3374C295.813 55.0903 301.441 64.3687 300.367 75.3281L269.983 385.387C268.704 398.434 258.412 408.923 246.995 408.814L123.82 407.644C121.993 407.627 120.249 407.339 118.611 406.815L133.574 412.102C135.211 412.626 136.956 412.914 138.783 412.931L261.957 414.101C273.375 414.21 283.667 403.721 284.945 390.674L315.329 80.6151C316.403 69.6557 310.776 60.3772 302.18 57.6244L287.218 52.3374Z" fill="black" fill-opacity="0.2"/>
<path fill-rule="evenodd" clip-rule="evenodd" d="M287.218 52.3374C295.813 55.0903 301.441 64.3687 300.367 75.3281L269.983 385.387C268.704 398.434 258.412 408.923 246.995 408.814L123.82 407.644C121.993 407.627 120.249 407.339 118.611 406.815L133.574 412.102C135.211 412.626 136.956 412.914 138.783 412.931L261.957 414.101C273.375 414.21 283.667 403.721 284.945 390.674L315.329 80.6151C316.403 69.6557 310.776 60.3772 302.18 57.6244L287.218 52.3374Z" stroke="white" stroke-width="0.3" stroke-linejoin="round"/>
</g>
<g filter="url(#filter9_b_1_11404)">
<path d="M135.846 73.7643C137.125 60.7174 147.417 50.2287 158.834 50.3371L282.009 51.5072C293.426 51.6157 301.645 62.2803 300.366 75.3272L269.982 385.386C268.704 398.433 258.412 408.922 246.995 408.813L123.82 407.643C112.403 407.535 104.184 396.87 105.462 383.823L135.846 73.7643Z" fill="#0E0E0E" fill-opacity="0.1"/>
<path d="M135.846 73.7643C137.125 60.7174 147.417 50.2287 158.834 50.3371L282.009 51.5072C293.426 51.6157 301.645 62.2803 300.366 75.3272L269.982 385.386C268.704 398.433 258.412 408.922 246.995 408.813L123.82 407.643C112.403 407.535 104.184 396.87 105.462 383.823L135.846 73.7643Z" stroke="white" stroke-width="1.5"/>
</g>
<g filter="url(#filter10_b_1_11404)">
<path d="M141.203 77.5035C142.422 64.8324 151.98 54.7306 162.551 54.9404L276.591 57.2039C287.161 57.4137 294.742 67.8557 293.522 80.5267L264.538 381.653C263.319 394.324 253.761 404.426 243.191 404.216L129.151 401.952C118.58 401.743 111 391.301 112.219 378.63L141.203 77.5035Z" fill="#0E0E0E" fill-opacity="0.6"/>
<path d="M141.501 77.5322C142.711 64.9688 152.176 55.0345 162.545 55.2403L276.585 57.5038C286.925 57.709 294.432 67.9399 293.223 80.498L264.24 381.624C263.031 394.188 253.566 404.122 243.197 403.916L129.157 401.652C118.817 401.447 111.309 391.216 112.518 378.658L141.501 77.5322Z" stroke="white" stroke-width="0.6"/>
</g>
<g filter="url(#filter11_b_1_11404)">
<path d="M134.495 209.854C134.859 206.146 137.784 203.165 141.029 203.196L264.419 204.368C267.664 204.399 270.001 207.43 269.637 211.138L263.057 278.282C262.694 281.991 259.768 284.972 256.524 284.941L133.133 283.769C129.888 283.738 127.552 280.707 127.916 276.999L134.495 209.854Z" fill="#0E0E0E"/>
</g>
<g filter="url(#filter12_b_1_11404)">
<path fill-rule="evenodd" clip-rule="evenodd" d="M256.071 176.561C258.936 177.478 260.812 180.571 260.454 184.224L252.738 262.969C252.312 267.318 248.881 270.815 245.075 270.778L100.366 269.404C99.7576 269.398 99.1759 269.302 98.6302 269.127L104.615 271.242C105.161 271.417 105.743 271.513 106.351 271.519L251.06 272.893C254.866 272.929 258.297 269.433 258.723 265.084L266.439 186.339C266.797 182.686 264.921 179.593 262.056 178.675L256.071 176.561Z" fill="black" fill-opacity="0.2"/>
<path fill-rule="evenodd" clip-rule="evenodd" d="M256.071 176.561C258.936 177.478 260.812 180.571 260.454 184.224L252.738 262.969C252.312 267.318 248.881 270.815 245.075 270.778L100.366 269.404C99.7576 269.398 99.1759 269.302 98.6302 269.127L104.615 271.242C105.161 271.417 105.743 271.513 106.351 271.519L251.06 272.893C254.866 272.929 258.297 269.433 258.723 265.084L266.439 186.339C266.797 182.686 264.921 179.593 262.056 178.675L256.071 176.561Z" stroke="white" stroke-width="0.3" stroke-linejoin="round"/>
</g>
<g filter="url(#filter13_b_1_11404)">
<path d="M101.967 182.718C102.393 178.369 105.824 174.873 109.63 174.909L254.338 176.283C258.144 176.32 260.884 179.874 260.458 184.223L252.741 262.969C252.315 267.318 248.884 270.814 245.078 270.778L100.37 269.403C96.564 269.367 93.8244 265.812 94.2505 261.463L101.967 182.718Z" fill="#0E0E0E" fill-opacity="0.1"/>
<path d="M102.365 182.757C102.776 178.567 106.071 175.275 109.626 175.309L254.335 176.683C257.848 176.717 260.469 180.008 260.06 184.184L252.343 262.929C251.932 267.119 248.637 270.411 245.082 270.378L100.374 269.003C96.8599 268.97 94.2394 265.678 94.6486 261.502L102.365 182.757Z" stroke="white" stroke-width="0.8"/>
</g>
<g filter="url(#filter14_b_1_11404)">
<path fill-rule="evenodd" clip-rule="evenodd" d="M262.436 146.383C271.517 149.291 277.462 159.093 276.327 170.67C274.977 184.453 264.104 195.533 252.042 195.418C250.112 195.4 248.269 195.096 246.539 194.542L248.738 195.319C250.468 195.873 252.311 196.177 254.241 196.195C266.303 196.31 277.176 185.23 278.527 171.447C279.661 159.87 273.716 150.068 264.635 147.16L262.436 146.383Z" fill="black" fill-opacity="0.2"/>
<path fill-rule="evenodd" clip-rule="evenodd" d="M262.436 146.383C271.517 149.291 277.462 159.093 276.327 170.67C274.977 184.453 264.104 195.533 252.042 195.418C250.112 195.4 248.269 195.096 246.539 194.542L248.738 195.319C250.468 195.873 252.311 196.177 254.241 196.195C266.303 196.31 277.176 185.23 278.527 171.447C279.661 159.87 273.716 150.068 264.635 147.16L262.436 146.383Z" stroke="white" stroke-width="0.3" stroke-linejoin="round"/>
</g>
<g filter="url(#filter15_b_1_11404)">
<path d="M276.328 170.669C274.977 184.452 264.104 195.532 252.042 195.418C239.981 195.303 231.298 184.037 232.648 170.254C233.999 156.472 244.872 145.392 256.934 145.506C268.995 145.621 277.678 156.887 276.328 170.669Z" fill="#0E0E0E" fill-opacity="0.5"/>
<path d="M276.129 170.65C274.786 184.353 263.98 195.331 252.044 195.218C240.129 195.105 231.505 183.97 232.847 170.274C234.19 156.571 244.996 145.593 256.932 145.706C268.847 145.819 277.471 156.954 276.129 170.65Z" stroke="white" stroke-width="0.4"/>
</g>
<g filter="url(#filter16_b_1_11404)">
<path fill-rule="evenodd" clip-rule="evenodd" d="M265.036 157.576C265.134 157.61 265.228 157.664 265.312 157.739L266.94 159.2C267.347 159.566 267.365 160.277 266.979 160.76L251.484 180.156C251.208 180.501 250.799 180.634 250.451 180.517L252.1 181.1C252.448 181.217 252.857 181.084 253.133 180.739L268.628 161.343C269.014 160.86 268.996 160.149 268.59 159.783L266.961 158.322C266.877 158.247 266.784 158.192 266.685 158.158L265.036 157.576Z" fill="#ACFF43" fill-opacity="0.2"/>
<path fill-rule="evenodd" clip-rule="evenodd" d="M265.036 157.576C265.134 157.61 265.228 157.664 265.312 157.739L266.94 159.2C267.347 159.566 267.365 160.277 266.979 160.76L251.484 180.156C251.208 180.501 250.799 180.634 250.451 180.517L252.1 181.1C252.448 181.217 252.857 181.084 253.133 180.739L268.628 161.343C269.014 160.86 268.996 160.149 268.59 159.783L266.961 158.322C266.877 158.247 266.784 158.192 266.685 158.158L265.036 157.576Z" stroke="white" stroke-width="0.3" stroke-linejoin="round"/>
</g>
<g filter="url(#filter17_b_1_11404)">
<path d="M241.757 172.8L243.381 170.295C243.698 169.806 244.274 169.648 244.688 169.936L250.399 173.912C250.782 174.178 251.31 174.065 251.64 173.646L263.996 157.942C264.354 157.487 264.937 157.397 265.317 157.739L266.946 159.2C267.352 159.566 267.37 160.277 266.984 160.76L251.489 180.156C251.153 180.577 250.619 180.682 250.238 180.403L241.931 174.312C241.502 173.998 241.423 173.314 241.757 172.8Z" fill="#ACFF43"/>
<path d="M250.285 174.076L250.285 174.076C250.773 174.416 251.416 174.254 251.797 173.769L264.153 158.065C264.153 158.065 264.153 158.065 264.153 158.065C264.456 157.68 264.907 157.64 265.184 157.888L265.317 157.739L265.184 157.888L266.812 159.349C267.125 159.63 267.161 160.218 266.828 160.635L266.828 160.635L251.333 180.031C251.333 180.031 251.333 180.031 251.333 180.031C251.048 180.387 250.632 180.444 250.356 180.242L242.049 174.151C242.049 174.151 242.049 174.151 242.049 174.151C241.725 173.913 241.635 173.356 241.925 172.909L243.549 170.404C243.82 169.985 244.275 169.892 244.574 170.1C244.574 170.1 244.574 170.1 244.574 170.1L250.285 174.076Z" stroke="white" stroke-width="0.4"/>
</g>
<g opacity="0.8">
<g filter="url(#filter18_b_1_11404)">
<path fill-rule="evenodd" clip-rule="evenodd" d="M384.061 116.162C392.298 118.8 397.692 127.692 396.663 138.194C395.438 150.698 385.576 160.75 374.634 160.646C372.883 160.63 371.211 160.354 369.642 159.852L371.637 160.557C373.206 161.059 374.879 161.335 376.629 161.351C387.571 161.455 397.433 151.402 398.658 138.899C399.687 128.396 394.293 119.505 386.056 116.867L384.061 116.162Z" fill="black" fill-opacity="0.2"/>
<path fill-rule="evenodd" clip-rule="evenodd" d="M384.061 116.162C392.298 118.8 397.692 127.692 396.663 138.194C395.438 150.698 385.576 160.75 374.634 160.646C372.883 160.63 371.211 160.354 369.642 159.852L371.637 160.557C373.206 161.059 374.879 161.335 376.629 161.351C387.571 161.455 397.433 151.402 398.658 138.899C399.687 128.396 394.293 119.505 386.056 116.867L384.061 116.162Z" stroke="white" stroke-width="0.3" stroke-linejoin="round"/>
</g>
<g filter="url(#filter19_b_1_11404)">
<path d="M396.666 138.194C395.442 150.698 385.579 160.75 374.637 160.646C363.696 160.543 355.819 150.323 357.044 137.82C358.268 125.316 368.131 115.264 379.073 115.368C390.014 115.471 397.891 125.691 396.666 138.194Z" fill="#0E0E0E" fill-opacity="0.5"/>
<path d="M396.467 138.175C395.25 150.598 385.455 160.548 374.639 160.446C363.844 160.344 356.026 150.256 357.243 137.839C358.46 125.415 368.255 115.465 379.071 115.568C389.866 115.67 397.684 125.758 396.467 138.175Z" stroke="white" stroke-width="0.4"/>
</g>
<g filter="url(#filter20_b_1_11404)">
<path fill-rule="evenodd" clip-rule="evenodd" d="M386.426 126.317C386.516 126.348 386.601 126.397 386.677 126.465L388.154 127.791C388.523 128.122 388.539 128.768 388.189 129.206L374.134 146.801C373.884 147.115 373.513 147.235 373.197 147.129L374.693 147.658C375.009 147.764 375.38 147.643 375.63 147.33L389.685 129.734C390.035 129.296 390.019 128.651 389.65 128.319L388.173 126.994C388.097 126.925 388.012 126.876 387.923 126.845L386.426 126.317Z" fill="black" fill-opacity="0.2"/>
<path fill-rule="evenodd" clip-rule="evenodd" d="M386.426 126.317C386.516 126.348 386.601 126.397 386.677 126.465L388.154 127.791C388.523 128.122 388.539 128.768 388.189 129.206L374.134 146.801C373.884 147.115 373.513 147.235 373.197 147.129L374.693 147.658C375.009 147.764 375.38 147.643 375.63 147.33L389.685 129.734C390.035 129.296 390.019 128.651 389.65 128.319L388.173 126.994C388.097 126.925 388.012 126.876 387.923 126.845L386.426 126.317Z" stroke="white" stroke-width="0.3" stroke-linejoin="round"/>
</g>
<g filter="url(#filter21_b_1_11404)">
<path d="M365.307 140.129L366.78 137.856C367.068 137.412 367.59 137.269 367.966 137.53L373.146 141.137C373.494 141.379 373.973 141.276 374.272 140.895L385.48 126.649C385.805 126.236 386.333 126.155 386.679 126.465L388.156 127.79C388.525 128.122 388.541 128.767 388.191 129.205L374.136 146.801C373.831 147.183 373.346 147.279 373 147.025L365.465 141.5C365.076 141.215 365.004 140.595 365.307 140.129Z" fill="#0E0E0E" fill-opacity="0.5"/>
<path d="M373.032 141.301L373.032 141.301C373.485 141.616 374.079 141.464 374.429 141.019L385.637 126.772C385.907 126.429 386.304 126.397 386.545 126.614L386.679 126.465L386.545 126.614L388.022 127.939C388.297 128.186 388.332 128.708 388.035 129.081L388.035 129.081L373.98 146.676C373.98 146.676 373.98 146.676 373.98 146.676C373.726 146.993 373.36 147.041 373.119 146.864L365.583 141.339C365.299 141.13 365.216 140.636 365.475 140.237L366.948 137.965C367.19 137.591 367.591 137.513 367.852 137.695C367.852 137.695 367.852 137.695 367.852 137.695L373.032 141.301Z" stroke="white" stroke-width="0.4"/>
</g>
</g>
<path d="M191.394 61.7296C188.858 61.7055 186.629 64.0181 186.353 66.8359C186.076 69.6618 187.863 72.0484 190.424 72.0727L231.77 72.4655C234.305 72.4896 236.534 70.1769 236.81 67.3592C237.087 64.5332 235.3 62.1467 232.739 62.1224L191.394 61.7296Z" fill="#0E0E0E" stroke="white" stroke-width="0.5"/>
<path d="M187.862 66.8108C188.072 64.6762 189.753 62.9791 191.593 62.9965C193.423 63.0139 194.763 64.7255 194.554 66.8568C194.345 68.9914 192.663 70.6886 190.823 70.6711C188.994 70.6537 187.654 68.9422 187.862 66.8108Z" fill="white" fill-opacity="0.1" stroke="white" stroke-width="0.2"/>
<path fill-rule="evenodd" clip-rule="evenodd" d="M266.891 94.084L267.888 94.4364L266.891 94.084Z" fill="#0E0E0E"/>
<path d="M266.891 94.084V94.084ZM266.891 94.084L267.888 94.4364M267.888 94.4364V94.4364Z" stroke="white"/>
<g filter="url(#filter22_b_1_11404)">
<path d="M254.673 325.533C254.673 325.533 251.735 359.973 248.257 381.672C246.612 391.933 238.428 397.957 228.66 396.848C221.442 396.028 216.157 391.758 217.768 381.769C218.814 375.276 220.393 364.287 220.393 364.287C221.415 356.338 215.897 352.294 209.672 352.031L208.55 352.025C202.174 352.215 195.428 356.284 194.394 364.101L184.499 419.031C182.335 427.655 175.628 431.23 169.409 431.168L45.9156 430.28C34.918 430.201 32.4633 423.938 33.5005 417.945L36.6225 401.467C37.1475 398.471 39.1548 396.985 42.6547 397.011L64.1505 397.665L69.8949 363.206C70.9451 356.713 75.4845 351.245 84.9808 351.314L126.977 351.537L130.174 324.638L254.673 325.533Z" fill="#0E0E0E" fill-opacity="0.8"/>
<path d="M220.789 364.344L220.79 364.338C221.315 360.255 220.161 357.129 218.034 354.995C215.917 352.87 212.877 351.766 209.689 351.632L209.682 351.631L209.674 351.631L208.552 351.625L208.545 351.625L208.538 351.625C202.024 351.82 195.07 355.983 193.999 364.039L184.108 418.946C181.991 427.361 175.467 430.829 169.413 430.768L169.412 430.768L45.9185 429.88C40.4909 429.841 37.2647 428.278 35.5074 426.081C33.7457 423.877 33.3878 420.946 33.8941 418.017C33.8943 418.016 33.8945 418.015 33.8946 418.014L37.0155 401.542L37.0165 401.536C37.2654 400.116 37.8557 399.097 38.7608 398.428C39.6722 397.754 40.9523 397.399 42.6471 397.411C42.6487 397.411 42.6502 397.411 42.6518 397.411L64.1384 398.065L64.4876 398.076L64.5451 397.731L70.2895 363.271L70.2898 363.269C70.8034 360.094 72.1656 357.195 74.5356 355.099C76.9023 353.005 80.3102 351.68 84.9779 351.714L84.9787 351.714L126.975 351.937L127.332 351.938L127.374 351.584L130.529 325.04L254.237 325.93C254.215 326.186 254.183 326.552 254.141 327.02C254.054 328.003 253.926 329.433 253.761 331.216C253.432 334.783 252.956 339.765 252.371 345.424C251.202 356.745 249.599 370.771 247.862 381.609C246.251 391.66 238.259 397.535 228.705 396.45C225.155 396.047 222.143 394.802 220.21 392.49C218.284 390.186 217.37 386.75 218.163 381.833C218.686 378.584 219.343 374.211 219.869 370.652C220.132 368.872 220.362 367.295 220.526 366.163C220.608 365.597 220.674 365.143 220.719 364.829L220.771 364.469L220.785 364.376L220.788 364.352L220.789 364.346L220.789 364.345L220.789 364.344C220.789 364.344 220.789 364.344 220.393 364.287L220.789 364.344Z" stroke="white" stroke-width="0.8"/>
</g>
<g filter="url(#filter23_b_1_11404)">
<path fill-rule="evenodd" clip-rule="evenodd" d="M159.701 196.995L155.361 241.285L148.642 241.222L150.637 241.926L157.356 241.99L161.696 197.699L159.701 196.995Z" fill="black" fill-opacity="0.2"/>
<path fill-rule="evenodd" clip-rule="evenodd" d="M159.701 196.995L155.361 241.285L148.642 241.222L150.637 241.926L157.356 241.99L161.696 197.699L159.701 196.995Z" stroke="white" stroke-width="0.2" stroke-linejoin="round"/>
</g>
<g filter="url(#filter24_b_1_11404)">
<path fill-rule="evenodd" clip-rule="evenodd" d="M138.567 201.525L134.69 241.096L127.97 241.032L129.965 241.737L136.685 241.801L140.562 202.23L138.567 201.525Z" fill="black" fill-opacity="0.2"/>
<path fill-rule="evenodd" clip-rule="evenodd" d="M138.567 201.525L134.69 241.096L127.97 241.032L129.965 241.737L136.685 241.801L140.562 202.23L138.567 201.525Z" stroke="white" stroke-width="0.2" stroke-linejoin="round"/>
</g>
<g filter="url(#filter25_b_1_11404)">
<path fill-rule="evenodd" clip-rule="evenodd" d="M107.345 250.881L159.027 251.372L159.509 246.453L161.504 247.158L161.022 252.076L109.34 251.586L107.345 250.881Z" fill="black" fill-opacity="0.2"/>
<path fill-rule="evenodd" clip-rule="evenodd" d="M107.345 250.881L159.027 251.372L159.509 246.453L161.504 247.158L161.022 252.076L109.34 251.586L107.345 250.881Z" stroke="white" stroke-width="0.2" stroke-linejoin="round"/>
</g>
<g filter="url(#filter26_b_1_11404)">
<path fill-rule="evenodd" clip-rule="evenodd" d="M112.227 246.004L116.953 197.774L118.948 198.479L114.222 246.708L112.227 246.004Z" fill="black" fill-opacity="0.2"/>
<path fill-rule="evenodd" clip-rule="evenodd" d="M112.227 246.004L116.953 197.774L118.948 198.479L114.222 246.708L112.227 246.004Z" stroke="white" stroke-width="0.2" stroke-linejoin="round"/>
</g>
<g filter="url(#filter27_b_1_11404)">
<path fill-rule="evenodd" clip-rule="evenodd" d="M138.303 241.131L145.022 241.195L147.916 211.665L149.911 212.37L147.017 241.9L140.298 241.836L138.303 241.131Z" fill="black" fill-opacity="0.2"/>
<path fill-rule="evenodd" clip-rule="evenodd" d="M138.303 241.131L145.022 241.195L147.916 211.665L149.911 212.37L147.017 241.9L140.298 241.836L138.303 241.131Z" stroke="white" stroke-width="0.2" stroke-linejoin="round"/>
</g>
<g filter="url(#filter28_b_1_11404)">
<path fill-rule="evenodd" clip-rule="evenodd" d="M118.154 240.932L124.358 240.991L126.268 221.503L128.263 222.208L126.353 241.696L120.149 241.637L118.154 240.932Z" fill="black" fill-opacity="0.2"/>
<path fill-rule="evenodd" clip-rule="evenodd" d="M118.154 240.932L124.358 240.991L126.268 221.503L128.263 222.208L126.353 241.696L120.149 241.637L118.154 240.932Z" stroke="white" stroke-width="0.2" stroke-linejoin="round"/>
</g>
<g filter="url(#filter29_b_1_11404)">
<path fill-rule="evenodd" clip-rule="evenodd" d="M153.034 196.931L159.754 196.995L155.413 241.286L148.694 241.222L153.034 196.931ZM131.897 201.461L138.616 201.525L134.739 241.096L128.019 241.032L131.897 201.461ZM117.001 197.775L112.605 197.733L107.397 250.881L159.078 251.372L159.56 246.453L112.275 246.004L117.001 197.775ZM147.971 211.665L141.252 211.601L138.358 241.13L145.077 241.194L147.971 211.665ZM126.314 221.503L120.11 221.444L118.2 240.932L124.404 240.991L126.314 221.503Z" fill="#0E0E0E" fill-opacity="0.5"/>
<path d="M107.617 250.683L112.786 197.935L116.781 197.973L112.076 245.985L112.055 246.202L112.273 246.204L159.34 246.651L158.897 251.17L107.617 250.683ZM148.914 241.024L153.215 197.133L159.533 197.193L155.232 241.084L148.914 241.024ZM128.24 240.834L132.078 201.663L138.396 201.723L134.558 240.894L128.24 240.834ZM138.578 240.932L141.433 211.803L147.751 211.863L144.896 240.992L138.578 240.932ZM118.421 240.734L120.291 221.646L126.094 221.701L124.223 240.789L118.421 240.734Z" stroke="white" stroke-width="0.4"/>
</g>
<g filter="url(#filter30_b_1_11404)">
<path fill-rule="evenodd" clip-rule="evenodd" d="M217.694 219.013L241.111 219.235C242.311 206.994 236.275 196.586 226.932 193.168L228.927 193.873C238.27 197.291 244.306 207.699 243.106 219.94L219.689 219.718L217.694 219.013Z" fill="#ACFF43" fill-opacity="0.2"/>
<path fill-rule="evenodd" clip-rule="evenodd" d="M217.694 219.013L241.111 219.235C242.311 206.994 236.275 196.586 226.932 193.168L228.927 193.873C238.27 197.291 244.306 207.699 243.106 219.94L219.689 219.718L217.694 219.013Z" stroke="white" stroke-width="0.3" stroke-linejoin="round"/>
</g>
<g filter="url(#filter31_b_1_11404)">
<path fill-rule="evenodd" clip-rule="evenodd" d="M215.038 194.532L212.072 224.798L212.023 225.292L214.018 225.997L214.067 225.503L217.033 195.237L215.038 194.532Z" fill="black" fill-opacity="0.2"/>
<path fill-rule="evenodd" clip-rule="evenodd" d="M215.038 194.532L212.072 224.798L212.023 225.292L214.018 225.997L214.067 225.503L217.033 195.237L215.038 194.532Z" stroke="white" stroke-width="0.3" stroke-linejoin="round"/>
</g>
<g filter="url(#filter32_b_1_11404)">
<path fill-rule="evenodd" clip-rule="evenodd" d="M238.243 225.542C235.973 239.924 224.06 251.729 211.164 251.606C208.963 251.585 206.861 251.235 204.888 250.595L206.883 251.3C208.856 251.94 210.958 252.29 213.159 252.311C226.055 252.434 237.968 240.629 240.238 226.247L238.243 225.542Z" fill="black" fill-opacity="0.2"/>
<path fill-rule="evenodd" clip-rule="evenodd" d="M238.243 225.542C235.973 239.924 224.06 251.729 211.164 251.606C208.963 251.585 206.861 251.235 204.888 250.595L206.883 251.3C208.856 251.94 210.958 252.29 213.159 252.311C226.055 252.434 237.968 240.629 240.238 226.247L238.243 225.542Z" stroke="white" stroke-width="0.3" stroke-linejoin="round"/>
</g>
<g filter="url(#filter33_b_1_11404)">
<path fill-rule="evenodd" clip-rule="evenodd" d="M241.113 219.235C242.576 204.307 233.279 192.105 220.345 191.982L220.345 191.984L217.696 219.013L241.113 219.235ZM215.038 194.531L212.072 224.798L212.023 225.292L238.244 225.541C235.974 239.923 224.061 251.728 211.165 251.606C197.41 251.475 187.499 238.469 189.055 222.593C190.513 207.708 202.045 195.4 215.038 194.531Z" fill="#0E0E0E" fill-opacity="0.5"/>
<path d="M217.917 218.815L220.526 192.184C233.165 192.418 242.287 204.344 240.932 219.034L217.917 218.815ZM212.021 225.492L238.009 225.739C235.662 239.944 223.872 251.526 211.167 251.406C197.56 251.276 187.706 238.404 189.254 222.612C190.696 207.896 202.034 195.741 214.816 194.748L211.873 224.778L211.824 225.273L211.803 225.49L212.021 225.492Z" stroke="white" stroke-width="0.4"/>
</g>
<g filter="url(#filter34_b_1_11404)">
<path fill-rule="evenodd" clip-rule="evenodd" d="M241.113 219.235C242.576 204.307 233.278 192.104 220.345 191.981L220.344 191.984L217.696 219.012L241.113 219.235Z" fill="#ACFF43"/>
<path d="M217.916 218.814L220.526 192.184C233.164 192.417 242.286 204.343 240.931 219.033L217.916 218.814Z" stroke="white" stroke-width="0.4"/>
</g>
<g opacity="0.8">
<g filter="url(#filter35_b_1_11404)">
<path fill-rule="evenodd" clip-rule="evenodd" d="M35.0611 188.162C43.2983 190.8 48.6918 199.692 47.663 210.194C46.4383 222.698 36.5756 232.75 25.6341 232.646C23.8835 232.63 22.2113 232.354 20.6423 231.852L22.6373 232.557C24.2063 233.059 25.8785 233.335 27.6292 233.351C38.5706 233.455 48.4333 223.402 49.658 210.899C50.6868 200.396 45.2934 191.505 37.0561 188.867L35.0611 188.162Z" fill="black" fill-opacity="0.2"/>
<path fill-rule="evenodd" clip-rule="evenodd" d="M35.0611 188.162C43.2983 190.8 48.6918 199.692 47.663 210.194C46.4383 222.698 36.5756 232.75 25.6341 232.646C23.8835 232.63 22.2113 232.354 20.6423 231.852L22.6373 232.557C24.2063 233.059 25.8785 233.335 27.6292 233.351C38.5706 233.455 48.4333 223.402 49.658 210.899C50.6868 200.396 45.2934 191.505 37.0561 188.867L35.0611 188.162Z" stroke="white" stroke-width="0.3" stroke-linejoin="round"/>
</g>
<g filter="url(#filter36_b_1_11404)">
<path d="M47.6663 210.194C46.4416 222.698 36.5789 232.75 25.6374 232.646C14.696 232.543 6.81896 222.323 8.04368 209.82C9.2684 197.316 19.1311 187.264 30.0726 187.368C41.014 187.471 48.891 197.691 47.6663 210.194Z" fill="#0E0E0E" fill-opacity="0.5"/>
<path d="M47.4673 210.175C46.2504 222.598 36.4552 232.548 25.6393 232.446C14.8439 232.344 7.02646 222.256 8.24272 209.839C9.45964 197.415 19.2548 187.465 30.0707 187.568C40.8661 187.67 48.6835 197.758 47.4673 210.175Z" stroke="white" stroke-width="0.4"/>
</g>
<path fill-rule="evenodd" clip-rule="evenodd" d="M28.32 198L20.6427 200.938L16.1719 208.719L17.8921 217.005L18.8617 217.428L17.1415 209.142L21.6123 201.361L29.2896 198.423L28.32 198Z" fill="#6580E1" fill-opacity="0.6"/>
<path fill-rule="evenodd" clip-rule="evenodd" d="M17.8906 217.005L24.4504 220.594L25.4201 221.018L18.8602 217.428L17.8906 217.005Z" fill="#6580E1" fill-opacity="0.6"/>
<path fill-rule="evenodd" clip-rule="evenodd" d="M24.4531 220.594L29.8455 218.591L30.8151 219.014L25.4227 221.017L24.4531 220.594Z" fill="#6580E1" fill-opacity="0.6"/>
<path fill-rule="evenodd" clip-rule="evenodd" d="M29.8438 218.591L31.6143 221.41L32.5839 221.833L30.8134 219.014L29.8438 218.591Z" fill="#6580E1" fill-opacity="0.6"/>
<path fill-rule="evenodd" clip-rule="evenodd" d="M31.6151 221.41L35.4363 218.233L33.5017 215.168L36.1581 209.84L34.7941 202.092L28.3203 198L29.2899 198.423L35.7637 202.515L37.1278 210.263L34.4713 215.591L36.4059 218.656L32.5847 221.833L31.6151 221.41Z" fill="#6580E1" fill-opacity="0.6"/>
<path fill-rule="evenodd" clip-rule="evenodd" d="M27.5507 202.53L22.7847 204.178L20.1562 209.055L21.1515 213.718L25.2299 216.087L26.1995 216.51L22.1212 214.141L21.1259 209.478L23.7543 204.601L28.5203 202.953L27.5507 202.53Z" fill="#6580E1" fill-opacity="0.6"/>
<path fill-rule="evenodd" clip-rule="evenodd" d="M25.2266 216.087L29.9926 214.439L32.621 209.562L31.6258 204.899L27.5474 202.53L28.517 202.953L32.5954 205.322L33.5907 209.986L30.9622 214.862L26.1962 216.51L25.2266 216.087Z" fill="#6580E1" fill-opacity="0.6"/>
<path fill-rule="evenodd" clip-rule="evenodd" d="M36.1578 209.84L34.7938 202.092L28.32 198L20.6427 200.938L16.1719 208.719L17.8921 217.005L24.4519 220.595L29.8443 218.591L31.6148 221.41L35.436 218.233L33.5013 215.168L36.1578 209.84ZM29.9946 214.439L32.6231 209.562L31.6278 204.899L27.5494 202.53L22.7834 204.178L20.1549 209.055L21.1502 213.718L25.2286 216.087L29.9946 214.439Z" fill="black" stroke="white" stroke-width="0.5"/>
</g>
<g opacity="0.8">
<path d="M337.306 25.2576C337.306 25.8364 336.837 26.3056 336.258 26.3056C335.679 26.3056 335.21 25.8364 335.21 25.2576C335.21 24.6788 335.679 24.2096 336.258 24.2096C336.837 24.2096 337.306 24.6788 337.306 25.2576Z" fill="#ACFF43" stroke="white" stroke-width="0.419257"/>
<path d="M355.887 16V17.9913M355.887 19.9825V17.9913M355.887 17.9913H357.564H354" stroke="white" stroke-width="0.335405" stroke-linecap="round"/>
<path d="M360.563 42.8865C360.563 43.8125 359.813 44.5633 358.887 44.5633C357.96 44.5633 357.21 43.8125 357.21 42.8865C357.21 41.9604 357.96 41.2096 358.887 41.2096C359.813 41.2096 360.563 41.9604 360.563 42.8865Z" fill="#ACFF43" stroke="white" stroke-width="0.419257"/>
<path d="M348.786 39.2893C348.786 40.913 347.47 42.2293 345.846 42.2293C344.222 42.2293 342.906 40.913 342.906 39.2893C342.906 37.6657 344.222 36.3494 345.846 36.3494C347.47 36.3494 348.786 37.6657 348.786 39.2893Z" fill="#ACFF43" stroke="white" stroke-width="0.890264"/>
<path d="M345.882 28V36.2744M348.891 39.2833H356.038M345.882 42.2922V49.8144M342.873 39.2833H335.727" stroke="white" stroke-width="0.71221" stroke-linecap="round"/>
</g>
<path d="M395.548 245.258C395.548 245.836 395.079 246.306 394.5 246.306C393.921 246.306 393.452 245.836 393.452 245.258C393.452 244.679 393.921 244.21 394.5 244.21C395.079 244.21 395.548 244.679 395.548 245.258Z" fill="#ACFF43" stroke="white" stroke-width="0.419257"/>
<path d="M415.48 252.705V254.696M415.48 256.688V254.696M415.48 254.696H417.157H413.594" stroke="white" stroke-width="0.335405" stroke-linecap="round"/>
<path d="M418.415 272.418C418.415 273.344 417.664 274.095 416.738 274.095C415.812 274.095 415.061 273.344 415.061 272.418C415.061 271.492 415.812 270.741 416.738 270.741C417.664 270.741 418.415 271.492 418.415 272.418Z" fill="#ACFF43" stroke="white" stroke-width="0.419257"/>
<path d="M404.707 268.541C404.707 270.507 403.113 272.102 401.147 272.102C399.18 272.102 397.586 270.507 397.586 268.541C397.586 266.574 399.18 264.98 401.147 264.98C403.113 264.98 404.707 266.574 404.707 268.541Z" fill="#ACFF43" stroke="white" stroke-width="0.890264"/>
<path d="M401.19 255.182V264.973M404.751 268.534H413.208M401.19 272.095V280.996M397.629 268.534H389.172" stroke="white" stroke-width="0.71221" stroke-linecap="round"/>
<g opacity="0.9">
<path d="M71.4307 97.824C71.4307 98.75 70.6799 99.5008 69.7538 99.5008C68.8276 99.5008 68.0768 98.75 68.0768 97.824C68.0768 96.8979 68.8276 96.1471 69.7538 96.1471C70.6799 96.1471 71.4307 96.8979 71.4307 97.824Z" fill="#ACFF43" stroke="white" stroke-width="0.419257"/>
<path d="M63.4777 81.2576C63.4777 81.8364 63.0084 82.3056 62.4296 82.3056C61.8507 82.3056 61.3815 81.8364 61.3815 81.2576C61.3815 80.6788 61.8507 80.2096 62.4296 80.2096C63.0084 80.2096 63.4777 80.6788 63.4777 81.2576Z" fill="#ACFF43" stroke="white" stroke-width="0.419257"/>
<path d="M77.3163 85.6553V87.6465M77.3163 89.6378V87.6465M77.3163 87.6465H78.9932H75.4297" stroke="white" stroke-width="0.335405" stroke-linecap="round"/>
<path d="M80.251 105.368C80.251 106.294 79.5002 107.045 78.5741 107.045C77.6479 107.045 76.8971 106.294 76.8971 105.368C76.8971 104.442 77.6479 103.691 78.5741 103.691C79.5002 103.691 80.251 104.442 80.251 105.368Z" fill="#ACFF43" stroke="white" stroke-width="0.419257"/>
<path d="M69.7728 89.6465V96.1443M71.4498 97.8211H77.3191M69.7728 99.498V105.577M68.0959 97.8211H62.2266" stroke="white" stroke-width="0.335405" stroke-linecap="round"/>
</g>
<g filter="url(#filter37_b_1_11404)">
<path fill-rule="evenodd" clip-rule="evenodd" d="M529.999 432.26C530.018 433.175 529.054 434.103 527.031 435.035C510.173 442.802 426.202 447.875 339.476 446.365C263.157 445.036 210.138 439.053 210 432.343V444.044C210.138 450.753 263.157 456.737 339.476 458.065C426.202 459.575 510.173 454.502 527.031 446.736C529.054 445.803 530.018 444.875 529.999 443.96V432.26Z" fill="#0E0E0E" fill-opacity="0.1"/>
<path fill-rule="evenodd" clip-rule="evenodd" d="M529.999 432.26C530.018 433.175 529.054 434.103 527.031 435.035C510.173 442.802 426.202 447.875 339.476 446.365C263.157 445.036 210.138 439.053 210 432.343V444.044C210.138 450.753 263.157 456.737 339.476 458.065C426.202 459.575 510.173 454.502 527.031 446.736C529.054 445.803 530.018 444.875 529.999 443.96V432.26Z" stroke="white" stroke-width="0.470588"/>
</g>
<g filter="url(#filter38_b_1_11404)">
<path d="M527.031 435.036C510.173 442.802 426.202 447.875 339.476 446.365C252.75 444.855 196.111 437.335 212.969 429.568C229.827 421.801 313.798 416.729 400.524 418.239C487.249 419.748 543.889 427.269 527.031 435.036Z" fill="#0E0E0E" fill-opacity="0.6"/>
<path d="M527.031 435.036C510.173 442.802 426.202 447.875 339.476 446.365C252.75 444.855 196.111 437.335 212.969 429.568C229.827 421.801 313.798 416.729 400.524 418.239C487.249 419.748 543.889 427.269 527.031 435.036Z" stroke="white" stroke-width="0.941177"/>
</g>
<path d="M660.712 166.554C659.943 155.08 659.211 157.988 655.211 166.554C616.221 250.057 575.214 261.953 529.214 258.054C515.05 256.854 498.523 251.878 481.5 246.677C476.459 242.262 471.519 237.392 466.712 232.054C437.199 199.284 403.103 192.637 374.715 210.054C352.711 223.554 339.211 249.554 361.211 304.554C362.367 307.445 364.012 307.054 364.211 303.054C368.771 211.483 427.616 230.212 481.5 246.677C561.925 317.128 667.769 271.949 660.712 166.554Z" fill="#0E0E0E" stroke="url(#paint1_linear_1_11404)" stroke-width="0.8"/>
<ellipse cx="369.5" cy="431" rx="47.5" ry="8" fill="white" fill-opacity="0.15"/>
<g filter="url(#filter39_b_1_11404)">
<path fill-rule="evenodd" clip-rule="evenodd" d="M301.028 315.855C302.061 313.161 331.874 311 368.5 311C405.121 311 434.931 313.16 435.972 315.854C437.199 316.712 438.001 318.136 438.001 319.746V327.419C439.809 327.134 441.628 326.987 443.451 326.987C463.052 326.987 478.998 342.933 479 362.532C479 382.133 463.054 398.079 443.453 398.079C438.978 398.079 434.54 397.218 430.387 395.567C426.614 402.942 421.591 409.524 415.425 415.17C408.398 421.604 400.294 426.443 391.339 429.559C383.988 432.115 376.344 433.401 368.545 433.401C366.439 433.401 364.325 433.309 362.2 433.121C344.823 431.587 328.776 423.412 317.015 410.102C305.399 396.955 299 380.027 299 362.435V319.746C299 318.136 299.802 316.714 301.028 315.855ZM434.122 386.843C437.097 387.99 440.262 388.588 443.451 388.588C457.818 388.588 469.505 376.901 469.505 362.536C469.505 348.169 457.816 336.482 443.451 336.482C441.63 336.482 439.807 336.681 438.001 337.076V363.9C438.001 364.461 437.992 365.019 437.98 365.578C437.977 365.713 437.972 365.848 437.967 365.983C437.965 366.05 437.962 366.116 437.96 366.182C437.949 366.53 437.936 366.877 437.919 367.224C437.906 367.481 437.893 367.74 437.878 367.997C437.863 368.264 437.846 368.532 437.826 368.799C437.805 369.11 437.783 369.421 437.757 369.731C437.751 369.82 437.742 369.908 437.734 369.997C437.237 375.768 436.029 381.401 434.122 386.843Z" fill="#0E0E0E" fill-opacity="0.8"/>
<path d="M301.028 315.855L301.458 316.47L301.646 316.338L301.728 316.124L301.028 315.855ZM435.972 315.854L435.272 316.125L435.355 316.338L435.542 316.469L435.972 315.854ZM438.001 327.419H437.251V328.296L438.118 328.159L438.001 327.419ZM479 362.532H479.75V362.532L479 362.532ZM430.387 395.567L430.664 394.87L430.03 394.619L429.72 395.226L430.387 395.567ZM415.425 415.17L415.931 415.724L415.932 415.724L415.425 415.17ZM391.339 429.559L391.585 430.267L391.585 430.267L391.339 429.559ZM362.2 433.121L362.266 432.374H362.266L362.2 433.121ZM317.015 410.102L316.453 410.599L316.453 410.599L317.015 410.102ZM434.122 386.843L433.414 386.594L433.174 387.281L433.852 387.542L434.122 386.843ZM438.001 337.076L437.841 336.343L437.251 336.472V337.076H438.001ZM437.98 365.578L437.23 365.561L437.23 365.562L437.98 365.578ZM437.967 365.983L438.716 366.01V366.01L437.967 365.983ZM437.96 366.182L437.21 366.158L437.21 366.159L437.96 366.182ZM437.919 367.224L438.668 367.262L438.668 367.262L437.919 367.224ZM437.878 367.997L437.129 367.953L437.129 367.954L437.878 367.997ZM437.826 368.799L437.078 368.745L437.078 368.747L437.826 368.799ZM437.757 369.731L437.01 369.669L437.009 369.677L437.757 369.731ZM437.734 369.997L436.987 369.924L436.986 369.933L437.734 369.997ZM301.728 316.124C301.697 316.205 301.681 316.149 301.928 316.006C302.147 315.88 302.482 315.738 302.951 315.587C303.885 315.287 305.235 314.988 306.978 314.7C310.457 314.124 315.399 313.603 321.471 313.165C333.608 312.29 350.199 311.75 368.5 311.75V310.25C350.175 310.25 333.546 310.791 321.363 311.669C315.274 312.108 310.279 312.633 306.733 313.22C304.964 313.513 303.529 313.825 302.492 314.159C301.975 314.325 301.528 314.506 301.179 314.707C300.857 314.892 300.488 315.169 300.327 315.587L301.728 316.124ZM368.5 311.75C386.798 311.75 403.387 312.29 415.525 313.165C421.596 313.603 426.538 314.123 430.018 314.699C431.761 314.988 433.112 315.286 434.047 315.586C434.516 315.737 434.851 315.879 435.071 316.006C435.318 316.148 435.303 316.205 435.272 316.125L436.672 315.584C436.51 315.167 436.141 314.891 435.819 314.706C435.47 314.505 435.022 314.324 434.505 314.158C433.467 313.825 432.032 313.512 430.263 313.219C426.716 312.632 421.721 312.108 415.633 311.669C403.45 310.79 386.823 310.25 368.5 310.25V311.75ZM438.751 319.746C438.751 317.881 437.821 316.232 436.402 315.24L435.542 316.469C436.577 317.193 437.251 318.391 437.251 319.746H438.751ZM438.751 327.419V319.746H437.251V327.419H438.751ZM443.451 326.237C441.587 326.237 439.73 326.387 437.884 326.678L438.118 328.159C439.888 327.881 441.668 327.737 443.451 327.737V326.237ZM479.75 362.532C479.748 342.519 463.466 326.237 443.451 326.237V327.737C462.638 327.737 478.248 343.347 478.25 362.532L479.75 362.532ZM443.453 398.829C463.468 398.829 479.75 382.547 479.75 362.532H478.25C478.25 381.718 462.64 397.329 443.453 397.329V398.829ZM430.11 396.264C434.35 397.949 438.882 398.829 443.453 398.829V397.329C439.074 397.329 434.73 396.486 430.664 394.87L430.11 396.264ZM415.932 415.724C422.163 410.018 427.24 403.364 431.055 395.909L429.72 395.226C425.987 402.52 421.019 409.031 414.919 414.617L415.932 415.724ZM391.585 430.267C400.638 427.118 408.83 422.226 415.931 415.724L414.919 414.617C407.967 420.982 399.951 425.769 391.092 428.85L391.585 430.267ZM368.545 434.151C376.428 434.151 384.155 432.852 391.585 430.267L391.092 428.85C383.821 431.379 376.261 432.651 368.545 432.651V434.151ZM362.134 433.868C364.281 434.058 366.417 434.151 368.545 434.151V432.651C366.461 432.651 364.369 432.56 362.266 432.374L362.134 433.868ZM316.453 410.599C328.338 424.05 344.562 432.317 362.134 433.868L362.266 432.374C345.084 430.857 329.213 422.774 317.577 409.606L316.453 410.599ZM298.25 362.435C298.25 380.209 304.716 397.314 316.453 410.599L317.577 409.606C306.083 396.596 299.75 379.845 299.75 362.435H298.25ZM298.25 319.746V362.435H299.75V319.746H298.25ZM300.598 315.241C299.18 316.233 298.25 317.881 298.25 319.746H299.75C299.75 318.391 300.424 317.194 301.458 316.47L300.598 315.241ZM443.451 387.838C440.356 387.838 437.282 387.258 434.392 386.143L433.852 387.542C436.912 388.723 440.169 389.338 443.451 389.338V387.838ZM468.755 362.536C468.755 376.487 457.404 387.838 443.451 387.838V389.338C458.232 389.338 470.255 377.315 470.255 362.536H468.755ZM443.451 337.232C457.401 337.232 468.755 348.584 468.755 362.536H470.255C470.255 347.755 458.23 335.732 443.451 335.732V337.232ZM438.161 337.808C439.915 337.425 441.685 337.232 443.451 337.232V335.732C441.575 335.732 439.699 335.937 437.841 336.343L438.161 337.808ZM438.751 363.9V337.076H437.251V363.9H438.751ZM438.729 365.596C438.742 365.033 438.751 364.468 438.751 363.9H437.251C437.251 364.453 437.243 365.006 437.23 365.561L438.729 365.596ZM438.716 366.01C438.721 365.876 438.726 365.735 438.729 365.594L437.23 365.562C437.227 365.69 437.222 365.82 437.217 365.956L438.716 366.01ZM438.71 366.206C438.712 366.142 438.714 366.077 438.716 366.01L437.217 365.956C437.215 366.023 437.213 366.09 437.21 366.158L438.71 366.206ZM438.668 367.262C438.686 366.908 438.699 366.556 438.71 366.206L437.21 366.159C437.2 366.503 437.187 366.846 437.17 367.187L438.668 367.262ZM438.627 368.041C438.642 367.78 438.655 367.518 438.668 367.262L437.17 367.187C437.157 367.444 437.144 367.7 437.129 367.953L438.627 368.041ZM438.574 368.854C438.594 368.582 438.612 368.311 438.627 368.039L437.129 367.954C437.114 368.218 437.097 368.482 437.078 368.745L438.574 368.854ZM438.505 369.794C438.531 369.477 438.553 369.161 438.575 368.851L437.078 368.747C437.056 369.059 437.035 369.364 437.01 369.669L438.505 369.794ZM438.48 370.07C438.488 369.983 438.498 369.885 438.505 369.786L437.009 369.677C437.004 369.755 436.996 369.834 436.987 369.924L438.48 370.07ZM434.83 387.091C436.758 381.59 437.979 375.895 438.481 370.061L436.986 369.933C436.495 375.641 435.3 381.213 433.414 386.594L434.83 387.091Z" fill="white"/>
</g>
<ellipse cx="369" cy="321" rx="62" ry="6" fill="#ACFF43"/>
<defs>
<filter id="filter0_f_1_11404" x="0.171875" y="0" width="235" height="235" filterUnits="userSpaceOnUse" color-interpolation-filters="sRGB">
<feFlood flood-opacity="0" result="BackgroundImageFix"/>
<feBlend mode="normal" in="SourceGraphic" in2="BackgroundImageFix" result="shape"/>
<feGaussianBlur stdDeviation="16" result="effect1_foregroundBlur_1_11404"/>
</filter>
<filter id="filter1_f_1_11404" x="237.052" y="229.052" width="148.067" height="148.067" filterUnits="userSpaceOnUse" color-interpolation-filters="sRGB">
<feFlood flood-opacity="0" result="BackgroundImageFix"/>
<feBlend mode="normal" in="SourceGraphic" in2="BackgroundImageFix" result="shape"/>
<feGaussianBlur stdDeviation="8.97375" result="effect1_foregroundBlur_1_11404"/>
</filter>
<filter id="filter2_b_1_11404" x="50.8789" y="255.061" width="60.6462" height="77.4067" filterUnits="userSpaceOnUse" color-interpolation-filters="sRGB">
<feFlood flood-opacity="0" result="BackgroundImageFix"/>
<feGaussianBlur in="BackgroundImageFix" stdDeviation="9.61436"/>
<feComposite in2="SourceAlpha" operator="in" result="effect1_backgroundBlur_1_11404"/>
<feBlend mode="normal" in="SourceGraphic" in2="effect1_backgroundBlur_1_11404" result="shape"/>
</filter>
<filter id="filter3_b_1_11404" x="5.35672" y="290.85" width="118.494" height="110.602" filterUnits="userSpaceOnUse" color-interpolation-filters="sRGB">
<feFlood flood-opacity="0" result="BackgroundImageFix"/>
<feGaussianBlur in="BackgroundImageFix" stdDeviation="9.61436"/>
<feComposite in2="SourceAlpha" operator="in" result="effect1_backgroundBlur_1_11404"/>
<feBlend mode="normal" in="SourceGraphic" in2="effect1_backgroundBlur_1_11404" result="shape"/>
</filter>
<filter id="filter4_b_1_11404" x="34.5818" y="325.808" width="49.08" height="55.6567" filterUnits="userSpaceOnUse" color-interpolation-filters="sRGB">
<feFlood flood-opacity="0" result="BackgroundImageFix"/>
<feGaussianBlur in="BackgroundImageFix" stdDeviation="9.61436"/>
<feComposite in2="SourceAlpha" operator="in" result="effect1_backgroundBlur_1_11404"/>
<feBlend mode="normal" in="SourceGraphic" in2="effect1_backgroundBlur_1_11404" result="shape"/>
</filter>
<filter id="filter5_b_1_11404" x="31.0276" y="306.752" width="59.7917" height="60.9868" filterUnits="userSpaceOnUse" color-interpolation-filters="sRGB">
<feFlood flood-opacity="0" result="BackgroundImageFix"/>
<feGaussianBlur in="BackgroundImageFix" stdDeviation="9.61436"/>
<feComposite in2="SourceAlpha" operator="in" result="effect1_backgroundBlur_1_11404"/>
<feBlend mode="normal" in="SourceGraphic" in2="effect1_backgroundBlur_1_11404" result="shape"/>
</filter>
<filter id="filter6_b_1_11404" x="30.7906" y="264.098" width="65.0239" height="68.0688" filterUnits="userSpaceOnUse" color-interpolation-filters="sRGB">
<feFlood flood-opacity="0" result="BackgroundImageFix"/>
<feGaussianBlur in="BackgroundImageFix" stdDeviation="9.61436"/>
<feComposite in2="SourceAlpha" operator="in" result="effect1_backgroundBlur_1_11404"/>
<feBlend mode="normal" in="SourceGraphic" in2="effect1_backgroundBlur_1_11404" result="shape"/>
</filter>
<filter id="filter7_b_1_11404" x="1.42581" y="254.005" width="113.704" height="144.526" filterUnits="userSpaceOnUse" color-interpolation-filters="sRGB">
<feFlood flood-opacity="0" result="BackgroundImageFix"/>
<feGaussianBlur in="BackgroundImageFix" stdDeviation="9.61436"/>
<feComposite in2="SourceAlpha" operator="in" result="effect1_backgroundBlur_1_11404"/>
<feBlend mode="normal" in="SourceGraphic" in2="effect1_backgroundBlur_1_11404" result="shape"/>
</filter>
<filter id="filter8_b_1_11404" x="99.2327" y="32.9588" width="235.606" height="400.522" filterUnits="userSpaceOnUse" color-interpolation-filters="sRGB">
<feFlood flood-opacity="0" result="BackgroundImageFix"/>
<feGaussianBlur in="BackgroundImageFix" stdDeviation="9.61436"/>
<feComposite in2="SourceAlpha" operator="in" result="effect1_backgroundBlur_1_11404"/>
<feBlend mode="normal" in="SourceGraphic" in2="effect1_backgroundBlur_1_11404" result="shape"/>
</filter>
<filter id="filter9_b_1_11404" x="85.3533" y="30.3572" width="235.122" height="398.436" filterUnits="userSpaceOnUse" color-interpolation-filters="sRGB">
<feFlood flood-opacity="0" result="BackgroundImageFix"/>
<feGaussianBlur in="BackgroundImageFix" stdDeviation="9.61436"/>
<feComposite in2="SourceAlpha" operator="in" result="effect1_backgroundBlur_1_11404"/>
<feBlend mode="normal" in="SourceGraphic" in2="effect1_backgroundBlur_1_11404" result="shape"/>
</filter>
<filter id="filter10_b_1_11404" x="92.8618" y="35.7088" width="220.018" height="387.739" filterUnits="userSpaceOnUse" color-interpolation-filters="sRGB">
<feFlood flood-opacity="0" result="BackgroundImageFix"/>
<feGaussianBlur in="BackgroundImageFix" stdDeviation="9.61436"/>
<feComposite in2="SourceAlpha" operator="in" result="effect1_backgroundBlur_1_11404"/>
<feBlend mode="normal" in="SourceGraphic" in2="effect1_backgroundBlur_1_11404" result="shape"/>
</filter>
<filter id="filter11_b_1_11404" x="111.482" y="186.799" width="174.588" height="114.538" filterUnits="userSpaceOnUse" color-interpolation-filters="sRGB">
<feFlood flood-opacity="0" result="BackgroundImageFix"/>
<feGaussianBlur in="BackgroundImageFix" stdDeviation="8.19798"/>
<feComposite in2="SourceAlpha" operator="in" result="effect1_backgroundBlur_1_11404"/>
<feBlend mode="normal" in="SourceGraphic" in2="effect1_backgroundBlur_1_11404" result="shape"/>
</filter>
<filter id="filter12_b_1_11404" x="79.2515" y="157.181" width="206.61" height="135.091" filterUnits="userSpaceOnUse" color-interpolation-filters="sRGB">
<feFlood flood-opacity="0" result="BackgroundImageFix"/>
<feGaussianBlur in="BackgroundImageFix" stdDeviation="9.61436"/>
<feComposite in2="SourceAlpha" operator="in" result="effect1_backgroundBlur_1_11404"/>
<feBlend mode="normal" in="SourceGraphic" in2="effect1_backgroundBlur_1_11404" result="shape"/>
</filter>
<filter id="filter13_b_1_11404" x="74.9781" y="155.679" width="204.752" height="134.328" filterUnits="userSpaceOnUse" color-interpolation-filters="sRGB">
<feFlood flood-opacity="0" result="BackgroundImageFix"/>
<feGaussianBlur in="BackgroundImageFix" stdDeviation="9.61436"/>
<feComposite in2="SourceAlpha" operator="in" result="effect1_backgroundBlur_1_11404"/>
<feBlend mode="normal" in="SourceGraphic" in2="effect1_backgroundBlur_1_11404" result="shape"/>
</filter>
<filter id="filter14_b_1_11404" x="227.16" y="127.004" width="70.8832" height="88.5717" filterUnits="userSpaceOnUse" color-interpolation-filters="sRGB">
<feFlood flood-opacity="0" result="BackgroundImageFix"/>
<feGaussianBlur in="BackgroundImageFix" stdDeviation="9.61436"/>
<feComposite in2="SourceAlpha" operator="in" result="effect1_backgroundBlur_1_11404"/>
<feBlend mode="normal" in="SourceGraphic" in2="effect1_backgroundBlur_1_11404" result="shape"/>
</filter>
<filter id="filter15_b_1_11404" x="213.281" y="126.276" width="82.4135" height="88.3715" filterUnits="userSpaceOnUse" color-interpolation-filters="sRGB">
<feFlood flood-opacity="0" result="BackgroundImageFix"/>
<feGaussianBlur in="BackgroundImageFix" stdDeviation="9.61436"/>
<feComposite in2="SourceAlpha" operator="in" result="effect1_backgroundBlur_1_11404"/>
<feBlend mode="normal" in="SourceGraphic" in2="effect1_backgroundBlur_1_11404" result="shape"/>
</filter>
<filter id="filter16_b_1_11404" x="231.072" y="138.197" width="57.2131" height="62.3237" filterUnits="userSpaceOnUse" color-interpolation-filters="sRGB">
<feFlood flood-opacity="0" result="BackgroundImageFix"/>
<feGaussianBlur in="BackgroundImageFix" stdDeviation="9.61436"/>
<feComposite in2="SourceAlpha" operator="in" result="effect1_backgroundBlur_1_11404"/>
<feBlend mode="normal" in="SourceGraphic" in2="effect1_backgroundBlur_1_11404" result="shape"/>
</filter>
<filter id="filter17_b_1_11404" x="222.322" y="138.303" width="64.1696" height="61.4848" filterUnits="userSpaceOnUse" color-interpolation-filters="sRGB">
<feFlood flood-opacity="0" result="BackgroundImageFix"/>
<feGaussianBlur in="BackgroundImageFix" stdDeviation="9.61436"/>
<feComposite in2="SourceAlpha" operator="in" result="effect1_backgroundBlur_1_11404"/>
<feBlend mode="normal" in="SourceGraphic" in2="effect1_backgroundBlur_1_11404" result="shape"/>
</filter>
<filter id="filter18_b_1_11404" x="350.263" y="96.783" width="67.8986" height="83.9477" filterUnits="userSpaceOnUse" color-interpolation-filters="sRGB">
<feFlood flood-opacity="0" result="BackgroundImageFix"/>
<feGaussianBlur in="BackgroundImageFix" stdDeviation="9.61436"/>
<feComposite in2="SourceAlpha" operator="in" result="effect1_backgroundBlur_1_11404"/>
<feBlend mode="normal" in="SourceGraphic" in2="effect1_backgroundBlur_1_11404" result="shape"/>
</filter>
<filter id="filter19_b_1_11404" x="337.689" y="96.1385" width="78.331" height="83.7377" filterUnits="userSpaceOnUse" color-interpolation-filters="sRGB">
<feFlood flood-opacity="0" result="BackgroundImageFix"/>
<feGaussianBlur in="BackgroundImageFix" stdDeviation="9.61436"/>
<feComposite in2="SourceAlpha" operator="in" result="effect1_backgroundBlur_1_11404"/>
<feBlend mode="normal" in="SourceGraphic" in2="effect1_backgroundBlur_1_11404" result="shape"/>
</filter>
<filter id="filter20_b_1_11404" x="353.818" y="106.938" width="55.4982" height="60.1362" filterUnits="userSpaceOnUse" color-interpolation-filters="sRGB">
<feFlood flood-opacity="0" result="BackgroundImageFix"/>
<feGaussianBlur in="BackgroundImageFix" stdDeviation="9.61436"/>
<feComposite in2="SourceAlpha" operator="in" result="effect1_backgroundBlur_1_11404"/>
<feBlend mode="normal" in="SourceGraphic" in2="effect1_backgroundBlur_1_11404" result="shape"/>
</filter>
<filter id="filter21_b_1_11404" x="345.891" y="107.048" width="61.7814" height="59.3471" filterUnits="userSpaceOnUse" color-interpolation-filters="sRGB">
<feFlood flood-opacity="0" result="BackgroundImageFix"/>
<feGaussianBlur in="BackgroundImageFix" stdDeviation="9.61436"/>
<feComposite in2="SourceAlpha" operator="in" result="effect1_backgroundBlur_1_11404"/>
<feBlend mode="normal" in="SourceGraphic" in2="effect1_backgroundBlur_1_11404" result="shape"/>
</filter>
<filter id="filter22_b_1_11404" x="14.055" y="305.409" width="259.847" height="144.989" filterUnits="userSpaceOnUse" color-interpolation-filters="sRGB">
<feFlood flood-opacity="0" result="BackgroundImageFix"/>
<feGaussianBlur in="BackgroundImageFix" stdDeviation="9.61436"/>
<feComposite in2="SourceAlpha" operator="in" result="effect1_backgroundBlur_1_11404"/>
<feBlend mode="normal" in="SourceGraphic" in2="effect1_backgroundBlur_1_11404" result="shape"/>
</filter>
<filter id="filter23_b_1_11404" x="129.313" y="177.666" width="51.7121" height="83.6528" filterUnits="userSpaceOnUse" color-interpolation-filters="sRGB">
<feFlood flood-opacity="0" result="BackgroundImageFix"/>
<feGaussianBlur in="BackgroundImageFix" stdDeviation="9.61436"/>
<feComposite in2="SourceAlpha" operator="in" result="effect1_backgroundBlur_1_11404"/>
<feBlend mode="normal" in="SourceGraphic" in2="effect1_backgroundBlur_1_11404" result="shape"/>
</filter>
<filter id="filter24_b_1_11404" x="108.641" y="182.196" width="51.2497" height="78.933" filterUnits="userSpaceOnUse" color-interpolation-filters="sRGB">
<feFlood flood-opacity="0" result="BackgroundImageFix"/>
<feGaussianBlur in="BackgroundImageFix" stdDeviation="9.61436"/>
<feComposite in2="SourceAlpha" operator="in" result="effect1_backgroundBlur_1_11404"/>
<feBlend mode="normal" in="SourceGraphic" in2="effect1_backgroundBlur_1_11404" result="shape"/>
</filter>
<filter id="filter25_b_1_11404" x="88.0164" y="227.125" width="92.8161" height="44.2807" filterUnits="userSpaceOnUse" color-interpolation-filters="sRGB">
<feFlood flood-opacity="0" result="BackgroundImageFix"/>
<feGaussianBlur in="BackgroundImageFix" stdDeviation="9.61436"/>
<feComposite in2="SourceAlpha" operator="in" result="effect1_backgroundBlur_1_11404"/>
<feBlend mode="normal" in="SourceGraphic" in2="effect1_backgroundBlur_1_11404" result="shape"/>
</filter>
<filter id="filter26_b_1_11404" x="92.898" y="178.445" width="45.3786" height="87.5922" filterUnits="userSpaceOnUse" color-interpolation-filters="sRGB">
<feFlood flood-opacity="0" result="BackgroundImageFix"/>
<feGaussianBlur in="BackgroundImageFix" stdDeviation="9.61436"/>
<feComposite in2="SourceAlpha" operator="in" result="effect1_backgroundBlur_1_11404"/>
<feBlend mode="normal" in="SourceGraphic" in2="effect1_backgroundBlur_1_11404" result="shape"/>
</filter>
<filter id="filter27_b_1_11404" x="118.974" y="192.337" width="50.2656" height="68.892" filterUnits="userSpaceOnUse" color-interpolation-filters="sRGB">
<feFlood flood-opacity="0" result="BackgroundImageFix"/>
<feGaussianBlur in="BackgroundImageFix" stdDeviation="9.61436"/>
<feComposite in2="SourceAlpha" operator="in" result="effect1_backgroundBlur_1_11404"/>
<feBlend mode="normal" in="SourceGraphic" in2="effect1_backgroundBlur_1_11404" result="shape"/>
</filter>
<filter id="filter28_b_1_11404" x="98.8255" y="202.175" width="48.7663" height="58.85" filterUnits="userSpaceOnUse" color-interpolation-filters="sRGB">
<feFlood flood-opacity="0" result="BackgroundImageFix"/>
<feGaussianBlur in="BackgroundImageFix" stdDeviation="9.61436"/>
<feComposite in2="SourceAlpha" operator="in" result="effect1_backgroundBlur_1_11404"/>
<feBlend mode="normal" in="SourceGraphic" in2="effect1_backgroundBlur_1_11404" result="shape"/>
</filter>
<filter id="filter29_b_1_11404" x="88.168" y="177.702" width="90.8141" height="92.8979" filterUnits="userSpaceOnUse" color-interpolation-filters="sRGB">
<feFlood flood-opacity="0" result="BackgroundImageFix"/>
<feGaussianBlur in="BackgroundImageFix" stdDeviation="9.61436"/>
<feComposite in2="SourceAlpha" operator="in" result="effect1_backgroundBlur_1_11404"/>
<feBlend mode="normal" in="SourceGraphic" in2="effect1_backgroundBlur_1_11404" result="shape"/>
</filter>
<filter id="filter30_b_1_11404" x="198.315" y="173.789" width="64.321" height="65.5307" filterUnits="userSpaceOnUse" color-interpolation-filters="sRGB">
<feFlood flood-opacity="0" result="BackgroundImageFix"/>
<feGaussianBlur in="BackgroundImageFix" stdDeviation="9.61436"/>
<feComposite in2="SourceAlpha" operator="in" result="effect1_backgroundBlur_1_11404"/>
<feBlend mode="normal" in="SourceGraphic" in2="effect1_backgroundBlur_1_11404" result="shape"/>
</filter>
<filter id="filter31_b_1_11404" x="192.645" y="175.153" width="43.767" height="70.2231" filterUnits="userSpaceOnUse" color-interpolation-filters="sRGB">
<feFlood flood-opacity="0" result="BackgroundImageFix"/>
<feGaussianBlur in="BackgroundImageFix" stdDeviation="9.61436"/>
<feComposite in2="SourceAlpha" operator="in" result="effect1_backgroundBlur_1_11404"/>
<feBlend mode="normal" in="SourceGraphic" in2="effect1_backgroundBlur_1_11404" result="shape"/>
</filter>
<filter id="filter32_b_1_11404" x="185.509" y="206.163" width="74.1071" height="65.5278" filterUnits="userSpaceOnUse" color-interpolation-filters="sRGB">
<feFlood flood-opacity="0" result="BackgroundImageFix"/>
<feGaussianBlur in="BackgroundImageFix" stdDeviation="9.61436"/>
<feComposite in2="SourceAlpha" operator="in" result="effect1_backgroundBlur_1_11404"/>
<feBlend mode="normal" in="SourceGraphic" in2="effect1_backgroundBlur_1_11404" result="shape"/>
</filter>
<filter id="filter33_b_1_11404" x="169.665" y="172.754" width="90.8286" height="98.0815" filterUnits="userSpaceOnUse" color-interpolation-filters="sRGB">
<feFlood flood-opacity="0" result="BackgroundImageFix"/>
<feGaussianBlur in="BackgroundImageFix" stdDeviation="9.61436"/>
<feComposite in2="SourceAlpha" operator="in" result="effect1_backgroundBlur_1_11404"/>
<feBlend mode="normal" in="SourceGraphic" in2="effect1_backgroundBlur_1_11404" result="shape"/>
</filter>
<filter id="filter34_b_1_11404" x="198.467" y="172.753" width="62.0263" height="65.7104" filterUnits="userSpaceOnUse" color-interpolation-filters="sRGB">
<feFlood flood-opacity="0" result="BackgroundImageFix"/>
<feGaussianBlur in="BackgroundImageFix" stdDeviation="9.61436"/>
<feComposite in2="SourceAlpha" operator="in" result="effect1_backgroundBlur_1_11404"/>
<feBlend mode="normal" in="SourceGraphic" in2="effect1_backgroundBlur_1_11404" result="shape"/>
</filter>
<filter id="filter35_b_1_11404" x="1.26346" y="168.783" width="67.8986" height="83.9477" filterUnits="userSpaceOnUse" color-interpolation-filters="sRGB">
<feFlood flood-opacity="0" result="BackgroundImageFix"/>
<feGaussianBlur in="BackgroundImageFix" stdDeviation="9.61436"/>
<feComposite in2="SourceAlpha" operator="in" result="effect1_backgroundBlur_1_11404"/>
<feBlend mode="normal" in="SourceGraphic" in2="effect1_backgroundBlur_1_11404" result="shape"/>
</filter>
<filter id="filter36_b_1_11404" x="-11.3105" y="168.138" width="78.331" height="83.7377" filterUnits="userSpaceOnUse" color-interpolation-filters="sRGB">
<feFlood flood-opacity="0" result="BackgroundImageFix"/>
<feGaussianBlur in="BackgroundImageFix" stdDeviation="9.61436"/>
<feComposite in2="SourceAlpha" operator="in" result="effect1_backgroundBlur_1_11404"/>
<feBlend mode="normal" in="SourceGraphic" in2="effect1_backgroundBlur_1_11404" result="shape"/>
</filter>
<filter id="filter37_b_1_11404" x="187.143" y="409.633" width="365.715" height="71.5556" filterUnits="userSpaceOnUse" color-interpolation-filters="sRGB">
<feFlood flood-opacity="0" result="BackgroundImageFix"/>
<feGaussianBlur in="BackgroundImageFix" stdDeviation="11.311"/>
<feComposite in2="SourceAlpha" operator="in" result="effect1_backgroundBlur_1_11404"/>
<feBlend mode="normal" in="SourceGraphic" in2="effect1_backgroundBlur_1_11404" result="shape"/>
</filter>
<filter id="filter38_b_1_11404" x="186.907" y="394.88" width="366.185" height="74.8437" filterUnits="userSpaceOnUse" color-interpolation-filters="sRGB">
<feFlood flood-opacity="0" result="BackgroundImageFix"/>
<feGaussianBlur in="BackgroundImageFix" stdDeviation="11.311"/>
<feComposite in2="SourceAlpha" operator="in" result="effect1_backgroundBlur_1_11404"/>
<feBlend mode="normal" in="SourceGraphic" in2="effect1_backgroundBlur_1_11404" result="shape"/>
</filter>
<filter id="filter39_b_1_11404" x="279.021" y="291.021" width="219.957" height="162.359" filterUnits="userSpaceOnUse" color-interpolation-filters="sRGB">
<feFlood flood-opacity="0" result="BackgroundImageFix"/>
<feGaussianBlur in="BackgroundImageFix" stdDeviation="9.61436"/>
<feComposite in2="SourceAlpha" operator="in" result="effect1_backgroundBlur_1_11404"/>
<feBlend mode="normal" in="SourceGraphic" in2="effect1_backgroundBlur_1_11404" result="shape"/>
</filter>
<linearGradient id="paint0_linear_1_11404" x1="45.1719" y1="251" x2="45.1719" y2="259" gradientUnits="userSpaceOnUse">
<stop stop-color="#ACFF43"/>
<stop offset="1" stop-color="#ACFF43" stop-opacity="0"/>
</linearGradient>
<linearGradient id="paint1_linear_1_11404" x1="424" y1="306" x2="661" y2="159" gradientUnits="userSpaceOnUse">
<stop stop-color="white"/>
<stop offset="1" stop-color="white" stop-opacity="0.1"/>
</linearGradient>
</defs>
</svg>
