<svg width="106" height="88" viewBox="0 0 106 88" fill="none" xmlns="http://www.w3.org/2000/svg">
<path fill-rule="evenodd" clip-rule="evenodd" d="M28.9422 11.586C30.3364 11.0062 31.9888 11.0613 33.5689 11.8887L70.1906 31.0642C73.3509 32.7189 75.0254 36.8363 73.9306 40.2605L61.2449 79.9415C60.6975 81.6536 59.5615 82.8683 58.1673 83.4481L54.6154 84.815C56.0096 84.2352 57.1456 83.0205 57.693 81.3084L70.3787 41.6274C71.4734 38.2031 69.799 34.0858 66.6387 32.431L30.017 13.2555C28.4369 12.4281 26.7845 12.3731 25.3903 12.9529L28.9422 11.586Z" fill="#0E0E0E" stroke="white" stroke-width="0.210615" stroke-linejoin="round"/>
<path fill-rule="evenodd" clip-rule="evenodd" d="M58.1633 83.4483C56.7691 84.0281 55.1167 83.973 53.5365 83.1457L16.9148 63.9701C13.7545 62.3154 12.0801 58.1981 13.1748 54.7738L25.8606 15.0928C26.4079 13.3807 27.5439 12.166 28.9381 11.5862L25.3862 12.953C23.992 13.5328 22.856 14.7475 22.3086 16.4597L9.62289 56.1406C8.52817 59.5649 10.2026 63.6822 13.3629 65.337L49.9846 84.5125C51.5648 85.3399 53.2172 85.395 54.6114 84.8151L58.1633 83.4483Z" fill="#0E0E0E" stroke="white" stroke-width="0.210615" stroke-linejoin="round"/>
<path d="M26.0795 15.1607C26.6086 13.5057 27.7016 12.3437 29.0318 11.7905C30.3617 11.2374 31.9457 11.2859 33.4716 12.0849L70.0933 31.2604C73.1575 32.8649 74.788 36.8709 73.7256 40.1943L61.0398 79.8753C60.5107 81.5303 59.4177 82.6923 58.0876 83.2455C56.7576 83.7986 55.1736 83.7501 53.6478 82.9511L17.026 63.7756C13.9618 62.1711 12.3313 58.1651 13.3938 54.8417L26.0795 15.1607Z" fill="#0E0E0E" stroke="white" stroke-width="0.44093"/>
<path fill-rule="evenodd" clip-rule="evenodd" d="M32.2688 13.878C33.3917 12.9918 34.8757 12.5605 36.5085 12.7773L77.6414 18.2404C81.1909 18.7118 84.0995 22.068 84.1378 25.7366L84.5817 68.2497C84.6024 70.2308 83.7819 71.8979 82.4637 72.9382L79.6394 75.0438C80.9576 74.0035 81.7781 72.3364 81.7574 70.3553L81.3135 27.8422C81.2752 24.1736 78.3667 20.8174 74.8171 20.346L33.6842 14.8829C32.0514 14.6661 30.5674 15.0974 29.4446 15.9836L32.2688 13.878Z" fill="#0E0E0E" stroke="white" stroke-width="0.210615" stroke-linejoin="round"/>
<path fill-rule="evenodd" clip-rule="evenodd" d="M81.4863 73.6347C80.3635 74.5209 78.8795 74.9523 77.2466 74.7354L36.1137 69.2724C32.5642 68.8009 29.6557 65.4448 29.6174 61.7761L29.1735 19.263C29.1528 17.2819 29.9733 15.6148 31.2914 14.5746L28.4672 16.6802C27.149 17.7204 26.3285 19.3875 26.3492 21.3686L26.7931 63.8817C26.8314 67.5504 29.7399 70.9065 33.2894 71.378L74.4224 76.841C76.0552 77.0579 77.5392 76.6265 78.6621 75.7403L81.4863 73.6347Z" fill="white" stroke="white" stroke-width="0.210615" stroke-linejoin="round"/>
<path fill-rule="evenodd" clip-rule="evenodd" d="M82.4646 72.9385C81.3417 73.8246 79.8577 74.256 78.2249 74.0391L37.092 68.5761C33.5425 68.1046 30.6339 64.7485 30.5956 61.0798L30.1517 18.5667C30.131 16.5856 30.9515 14.9186 32.2697 13.8783L29.4454 15.9839C28.1273 17.0242 27.3068 18.6912 27.3275 20.6723L27.7713 63.1854C27.8096 66.8541 30.7182 70.2102 34.2677 70.6817L75.4006 76.1447C77.0334 76.3616 78.5174 75.9302 79.6403 75.044L82.4646 72.9385Z" fill="#0E0E0E" stroke="white" stroke-width="0.210615" stroke-linejoin="round"/>
<path d="M30.3757 18.5641C30.3387 15.0233 33.0736 12.5429 36.4839 12.9959L77.6168 18.4589C81.0535 18.9154 83.8845 22.1758 83.9217 25.7389L84.3656 68.252C84.4026 71.7928 81.6678 74.2732 78.2574 73.8203L37.1245 68.3572C33.6877 67.9008 30.8568 64.6404 30.8196 61.0772L30.3757 18.5641Z" fill="#0E0E0E" stroke="white" stroke-width="0.44093"/>
<path fill-rule="evenodd" clip-rule="evenodd" d="M74.729 63.7073C75.377 63.1844 75.5884 62.1651 75.0374 61.2196L68.0209 49.1809C67.3993 48.1145 66.0695 47.7594 65.2403 48.4219L62.4999 50.6355C63.329 49.9729 64.6588 50.328 65.2804 51.3945L72.2969 63.4332C72.848 64.3787 72.6366 65.398 71.9886 65.9209L74.729 63.7073Z" fill="#0E0E0E" stroke="white" stroke-width="0.210615" stroke-linejoin="round"/>
<path fill-rule="evenodd" clip-rule="evenodd" d="M65.2423 48.4217C65.2254 48.4352 65.2086 48.4492 65.1921 48.4635L62.4517 50.6771C62.4682 50.6627 62.4849 50.6488 62.5018 50.6353L65.2423 48.4217Z" fill="#0E0E0E" stroke="white" stroke-width="0.210615" stroke-linejoin="round"/>
<path fill-rule="evenodd" clip-rule="evenodd" d="M65.1921 48.4634L62.4517 50.677L65.1921 48.4634Z" fill="#0E0E0E"/>
<path d="M65.1921 48.4634V48.4634ZM65.1921 48.4634L62.4517 50.677M62.4517 50.677V50.677Z" stroke="white" stroke-width="0.210615" stroke-linejoin="round"/>
<path fill-rule="evenodd" clip-rule="evenodd" d="M65.1922 48.4633C64.4078 49.1467 63.1151 48.8702 62.4426 47.8751L57.6961 40.8526C56.9952 39.8156 55.6884 39.5395 54.872 40.1602L52.1315 42.3738C52.948 41.753 54.2548 42.0292 54.9556 43.0661L59.7021 50.0887C60.3747 51.0838 61.6674 51.3603 62.4518 50.6769L65.1922 48.4633Z" fill="#0E0E0E" stroke="white" stroke-width="0.210615" stroke-linejoin="round"/>
<path fill-rule="evenodd" clip-rule="evenodd" d="M54.871 40.1609C54.7596 40.2456 54.6574 40.3469 54.5671 40.4652L42.2498 56.6058C41.3454 57.7908 42.2753 59.735 43.8507 59.9529L73.4255 64.0425C73.9465 64.1146 74.3962 63.9769 74.73 63.7075L71.9896 65.9211C71.6558 66.1905 71.2061 66.3282 70.6851 66.2561L41.1102 62.1664C39.5349 61.9486 38.605 60.0044 39.5093 58.8194L51.8266 42.6788C51.9169 42.5605 52.0192 42.4591 52.1305 42.3745L54.871 40.1609Z" fill="#0E0E0E" stroke="white" stroke-width="0.210615" stroke-linejoin="round"/>
<path d="M54.5728 40.4643L42.2555 56.6049C41.3512 57.7899 42.2811 59.7341 43.8564 59.9519L73.4313 64.0416C74.9637 64.2535 75.8791 62.6515 75.0441 61.2189L68.0276 49.1802C67.3934 48.092 66.0217 47.7444 65.197 48.463C64.4126 49.1465 63.1199 48.8699 62.4473 47.8748L57.7008 40.8523C56.9044 39.6739 55.3255 39.4781 54.5728 40.4643Z" fill="#0E0E0E" stroke="white" stroke-width="0.351026"/>
<path fill-rule="evenodd" clip-rule="evenodd" d="M74.8525 39.8768C74.4742 40.306 73.9211 40.5822 73.263 40.6139C71.8324 40.6828 70.4472 39.5706 70.1691 38.1297C70.0189 37.3515 70.2223 36.6367 70.6665 36.1328L69.706 37.1639C69.2618 37.6678 69.0585 38.3826 69.2086 39.1607C69.4867 40.6017 70.8719 41.7139 72.3025 41.645C72.9606 41.6132 73.5137 41.3371 73.892 40.9079L74.8525 39.8768Z" fill="#0E0E0E" stroke="white" stroke-width="0.210615" stroke-linejoin="round"/>
<path fill-rule="evenodd" clip-rule="evenodd" d="M70.6714 36.1327C71.0498 35.7035 71.6028 35.4273 72.2609 35.3956C73.6915 35.3267 75.0767 36.4389 75.3548 37.8798C75.505 38.658 75.3016 39.3728 74.8574 39.8767L73.897 40.9078C74.3411 40.4039 74.5445 39.689 74.3943 38.9109C74.1163 37.47 72.7311 36.3577 71.3004 36.4267C70.6424 36.4584 70.0893 36.7345 69.7109 37.1638L70.6714 36.1327Z" fill="#0E0E0E" stroke="white" stroke-width="0.210615" stroke-linejoin="round"/>
<path d="M75.098 37.9283C75.348 39.2236 74.5178 40.2972 73.2499 40.3583C71.9511 40.4209 70.6744 39.4018 70.4195 38.0811C70.1695 36.7858 70.9997 35.7122 72.2675 35.6511C73.5664 35.5885 74.8431 36.6076 75.098 37.9283Z" fill="#ACFF43" stroke="white" stroke-width="0.511478"/>
<path d="M102.88 59.2949C102.721 59.8781 102.267 60.406 101.466 60.8609C100.664 61.3164 99.545 61.6796 98.1281 61.9408C95.2959 62.4629 91.3524 62.5638 86.5688 62.2515C77.0076 61.6273 64.1655 59.3578 50.3132 55.587C36.4609 51.8161 24.2404 47.263 15.6821 42.9548C11.4003 40.7993 8.05204 38.7135 5.87531 36.8278C4.78626 35.8844 4.00614 35.0044 3.54546 34.2051C3.08536 33.4067 2.96132 32.7215 3.12008 32.1383C3.27884 31.5551 3.73311 31.0273 4.53438 30.5723C5.33667 30.1168 6.45521 29.7536 7.87219 29.4924C10.7044 28.9703 14.6479 28.8694 19.4314 29.1817C28.9926 29.806 41.8348 32.0754 55.6871 35.8463C69.5394 39.6172 81.7598 44.1702 90.3182 48.4785C94.6 50.6339 97.9482 52.7198 100.125 54.6054C101.214 55.5488 101.994 56.4288 102.455 57.2282C102.915 58.0265 103.039 58.7117 102.88 59.2949Z" stroke="url(#paint0_linear_1_11157)" stroke-width="0.705487"/>
<path d="M19.1801 9.37115C19.1801 10.7105 18.0943 11.7963 16.755 11.7963C15.4156 11.7963 14.3298 10.7105 14.3298 9.37115C14.3298 8.03181 15.4156 6.94605 16.755 6.94605C18.0943 6.94605 19.1801 8.03181 19.1801 9.37115Z" fill="#0E0E0E" stroke="white" stroke-width="0.44093"/>
<path d="M88.8471 73.8653C88.8471 75.2046 87.7613 76.2904 86.422 76.2904C85.0826 76.2904 83.9968 75.2046 83.9968 73.8653C83.9968 72.5259 85.0826 71.4402 86.422 71.4402C87.7613 71.4402 88.8471 72.5259 88.8471 73.8653Z" fill="#0E0E0E" stroke="white" stroke-width="0.44093"/>
<path d="M25.3539 6.72562C25.3539 7.57793 24.6629 8.26887 23.8106 8.26887C22.9583 8.26887 22.2673 7.57793 22.2673 6.72562C22.2673 5.87332 22.9583 5.18238 23.8106 5.18238C24.6629 5.18238 25.3539 5.87332 25.3539 6.72562Z" fill="#0E0E0E" stroke="white" stroke-width="0.44093"/>
<path d="M94.1383 77.3926C94.1383 78.2449 93.4473 78.9359 92.595 78.9359C91.7427 78.9359 91.0518 78.2449 91.0518 77.3926C91.0518 76.5403 91.7427 75.8494 92.595 75.8494C93.4473 75.8494 94.1383 76.5403 94.1383 77.3926Z" fill="#0E0E0E" stroke="white" stroke-width="0.44093"/>
<path d="M20.9408 1.87552C20.9408 2.48431 20.4472 2.97783 19.8384 2.97783C19.2296 2.97783 18.7361 2.48431 18.7361 1.87552C18.7361 1.26673 19.2296 0.773199 19.8384 0.773199C20.4472 0.773199 20.9408 1.26673 20.9408 1.87552Z" fill="#0E0E0E" stroke="white" stroke-width="0.44093"/>
<path d="M92.3746 71.6607C92.3746 72.2695 91.8811 72.763 91.2723 72.763C90.6635 72.763 90.1699 72.2695 90.1699 71.6607C90.1699 71.0519 90.6635 70.5584 91.2723 70.5584C91.8811 70.5584 92.3746 71.0519 92.3746 71.6607Z" fill="#0E0E0E" stroke="white" stroke-width="0.44093"/>
<defs>
<linearGradient id="paint0_linear_1_11157" x1="47.6201" y1="55.3455" x2="52.9112" y2="33.74" gradientUnits="userSpaceOnUse">
<stop stop-color="white"/>
<stop offset="0.726191" stop-color="white" stop-opacity="0.103199"/>
<stop offset="0.859273" stop-color="white" stop-opacity="0"/>
<stop offset="0.954847" stop-color="#999999" stop-opacity="0"/>
</linearGradient>
</defs>
</svg>
