<svg width="36" height="36" viewBox="0 0 36 36" fill="none" xmlns="http://www.w3.org/2000/svg">
<g clip-path="url(#clip0_296_198)">
<path fill-rule="evenodd" clip-rule="evenodd" d="M18 0C8.06 0 0 8.06 0 18C0 27.94 8.06 36 18 36C27.94 36 36 27.94 36 18C36 8.06 27.94 0 18 0Z" fill="#6B6B6B"/>
<mask id="mask0_296_198" style="mask-type:luminance" maskUnits="userSpaceOnUse" x="10" y="10" width="16" height="16">
<path d="M26 10H10V26H26V10Z" fill="white"/>
</mask>
<g mask="url(#mask0_296_198)">
<path fill-rule="evenodd" clip-rule="evenodd" d="M23.5404 12.9123C23.5504 12.9123 23.5604 12.9223 23.5704 12.9323C25.3704 15.5923 26.2604 18.5923 25.9304 22.0423C25.9304 22.0523 25.9204 22.0623 25.9104 22.0723C24.7004 22.9723 23.3504 23.6523 21.9104 24.0923C21.8904 24.1023 21.8704 24.0923 21.8504 24.0723C21.5504 23.6523 21.2804 23.2123 21.0404 22.7523C21.0304 22.7423 21.0304 22.7323 21.0304 22.7223C21.0304 22.7023 21.0404 22.6823 21.0604 22.6723C21.5004 22.5123 21.9104 22.3123 22.3104 22.0823C22.3304 22.0723 22.3404 22.0623 22.3404 22.0423C22.3404 22.0223 22.3304 22.0123 22.3204 21.9923C22.2304 21.9323 22.1504 21.8723 22.0704 21.8023C22.0504 21.7923 22.0304 21.7923 22.0204 21.7923C19.4304 22.9923 16.5904 22.9923 13.9704 21.7923C13.9604 21.7923 13.9404 21.7923 13.9204 21.8023C13.8404 21.8723 13.7604 21.9323 13.6704 21.9923C13.6604 22.0123 13.6504 22.0223 13.6504 22.0423C13.6604 22.0623 13.6704 22.0723 13.6804 22.0823C14.0804 22.3123 14.5004 22.5123 14.9304 22.6723C14.9404 22.6823 14.9504 22.6923 14.9604 22.7023C14.9604 22.7223 14.9604 22.7323 14.9604 22.7523C14.7204 23.2123 14.4504 23.6523 14.1404 24.0723C14.1304 24.0923 14.1004 24.1023 14.0804 24.0923C12.6504 23.6523 11.2904 22.9723 10.0904 22.0723C10.0804 22.0623 10.0704 22.0523 10.0704 22.0423C9.79042 19.0523 10.3604 16.0323 12.4304 12.9323C12.4404 12.9223 12.4404 12.9123 12.4504 12.9123C13.4904 12.4323 14.5804 12.0923 15.7104 11.9023C15.7304 11.9023 15.7504 11.9123 15.7604 11.9323C15.9104 12.2023 16.0504 12.4723 16.1704 12.7623C17.3804 12.5723 18.6204 12.5723 19.8304 12.7623C19.9404 12.5023 20.1004 12.1823 20.2404 11.9323C20.2504 11.9123 20.2704 11.9023 20.2904 11.9023C21.4104 12.1023 22.5104 12.4323 23.5404 12.9123ZM16.7804 18.6123C16.8004 17.7223 16.1504 16.9923 15.3504 16.9923C14.5504 16.9923 13.9104 17.7223 13.9104 18.6023C13.9104 19.4923 14.5604 20.2223 15.3504 20.2223C16.1504 20.2223 16.7804 19.4923 16.7804 18.6123ZM22.1004 18.6123C22.1104 17.7223 21.4704 16.9923 20.6604 16.9923C19.8604 16.9923 19.2304 17.7223 19.2304 18.6023C19.2304 19.4923 19.8704 20.2223 20.6604 20.2223C21.4704 20.2223 22.1004 19.4923 22.1004 18.6123Z" fill="#211F25"/>
</g>
</g>
<defs>
<clipPath id="clip0_296_198">
<rect width="36" height="36" fill="white"/>
</clipPath>
</defs>
</svg>
