<svg width="36" height="36" viewBox="0 0 36 36" fill="none" xmlns="http://www.w3.org/2000/svg">
<g clip-path="url(#clip0_296_180)">
<path fill-rule="evenodd" clip-rule="evenodd" d="M18 0C8.06 0 0 8.06 0 18C0 27.94 8.06 36 18 36C27.94 36 36 27.94 36 18C36 8.06 27.94 0 18 0Z" fill="#6B6B6B"/>
<mask id="mask0_296_180" style="mask-type:luminance" maskUnits="userSpaceOnUse" x="10" y="10" width="16" height="16">
<path d="M26 10H10V26H26V10Z" fill="white"/>
</mask>
<g mask="url(#mask0_296_180)">
<path fill-rule="evenodd" clip-rule="evenodd" d="M23.2903 11.0029C21.8603 11.0029 20.8203 11.9529 20.8203 11.9529C20.2703 11.6429 18.4404 11.6429 18.4404 11.6429C18.4404 11.6429 16.6104 11.6429 16.0504 11.9529C16.0504 11.9529 15.0204 11.0029 13.5904 11.0029C13.5904 11.0029 12.9504 12.3529 13.5104 13.3929C13.5104 13.3929 12.2404 14.5829 12.7104 17.1229C13.1604 19.5129 15.2604 20.1429 16.6104 20.1429C16.6104 20.1429 16.0504 20.6229 16.1304 21.4229C16.1304 21.4229 15.3404 21.8929 14.5404 21.5729C13.7504 21.2629 13.3504 20.4629 13.3504 20.4629C13.3504 20.4629 12.5504 19.4329 11.7604 19.8329C11.7604 19.8329 11.5204 20.0629 12.4004 20.4629C12.4004 20.4629 13.0304 21.4229 13.2704 21.9729C13.5104 22.5329 14.7804 23.0129 16.0504 22.6929V24.5229C16.0504 24.5229 16.0504 24.6829 15.7404 24.7629C15.4204 24.8329 15.4204 24.9929 15.5804 24.9929H21.3003C21.4603 24.9929 21.4603 24.8329 21.1403 24.7629C20.8203 24.6829 20.8203 24.5229 20.8203 24.5229V22.6929C20.8203 22.6929 20.8303 21.7329 20.8203 21.4229C20.8103 20.6229 20.2703 20.1429 20.2703 20.1429C21.6203 20.1429 23.7203 19.5129 24.1603 17.1229C24.6403 14.5829 23.3703 13.3929 23.3703 13.3929C23.9203 12.3529 23.2903 11.0029 23.2903 11.0029Z" fill="#211F25"/>
</g>
</g>
<defs>
<clipPath id="clip0_296_180">
<rect width="36" height="36" fill="white"/>
</clipPath>
</defs>
</svg>
