<svg width="36" height="36" viewBox="0 0 36 36" fill="none" xmlns="http://www.w3.org/2000/svg">
<circle cx="18" cy="18" r="18" fill="#6B6B6B"/>
<g clip-path="url(#clip0_296_207)">
<path d="M19.5724 18.0003C19.5724 21.8126 16.4736 24.9037 12.6491 24.9037C11.7413 24.905 10.8422 24.7274 10.003 24.3811C9.1639 24.0348 8.40118 23.5266 7.75843 22.8856C7.11568 22.2446 6.60548 21.4832 6.25698 20.645C5.90847 19.8068 5.72847 18.9081 5.72726 18.0003C5.72726 14.1866 8.82613 11.0969 12.6491 11.0969C13.557 11.0955 14.4563 11.273 15.2956 11.6192C16.1349 11.9653 16.8978 12.4735 17.5407 13.1145C18.1836 13.7556 18.694 14.517 19.0426 15.3553C19.3912 16.1937 19.5712 17.0924 19.5724 18.0003ZM27.1662 18.0003C27.1662 21.5901 25.6168 24.4987 23.7053 24.4987C21.7938 24.4987 20.2444 21.5886 20.2444 18.0003C20.2444 14.4106 21.7938 11.5019 23.7053 11.5019C25.6168 11.5019 27.1662 14.4121 27.1662 18.0003ZM30.2727 18.0003C30.2727 21.2158 29.7281 23.8222 29.0547 23.8222C28.3827 23.8222 27.8381 21.2143 27.8381 18.0003C27.8381 14.7849 28.3827 12.1785 29.0562 12.1785C29.7281 12.1785 30.2727 14.7849 30.2727 18.0003Z" fill="#211F25"/>
</g>
<defs>
<clipPath id="clip0_296_207">
<rect width="24.5455" height="24.5455" fill="white" transform="translate(5.72726 5.72754)"/>
</clipPath>
</defs>
</svg>
