<svg width="440" height="347" viewBox="0 0 440 347" fill="none" xmlns="http://www.w3.org/2000/svg">
<path d="M250.471 66.9724L250.471 112.817" stroke="url(#paint0_linear_3_91)" stroke-opacity="0.5" stroke-width="0.881312"/>
<path d="M323.149 163.198L323.149 201.216" stroke="url(#paint1_linear_3_91)" stroke-opacity="0.8" stroke-width="0.881312"/>
<path d="M391.359 103.872L391.359 141.89" stroke="url(#paint2_linear_3_91)" stroke-width="0.881312"/>
<path d="M312.263 58.2921C312.263 58.9288 311.747 59.4449 311.11 59.4449C310.473 59.4449 309.957 58.9288 309.957 58.2921C309.957 57.6555 310.473 57.1393 311.11 57.1393C311.747 57.1393 312.263 57.6555 312.263 58.2921Z" fill="#ACFF43" stroke="white" stroke-width="0.461181"/>
<path d="M334.194 66.4841V68.6745M334.194 70.8649V68.6745M334.194 68.6745H336.039H332.119" stroke="white" stroke-width="0.368944" stroke-linecap="round"/>
<path d="M339.665 88.1675C339.665 89.1862 338.839 90.012 337.82 90.012C336.801 90.012 335.975 89.1862 335.975 88.1675C335.975 87.1489 336.801 86.323 337.82 86.323C338.839 86.323 339.665 87.1489 339.665 88.1675Z" fill="#ACFF43" stroke="white" stroke-width="0.461181"/>
<path d="M322.347 83.9043C322.347 86.0674 320.593 87.8209 318.43 87.8209C316.266 87.8209 314.513 86.0674 314.513 83.9043C314.513 81.7412 316.266 79.9876 318.43 79.9876C320.593 79.9876 322.347 81.7412 322.347 83.9043Z" fill="#ACFF43" stroke="white" stroke-width="0.979285"/>
<path d="M318.477 69.2085V79.9793M322.394 83.896H331.697M318.477 87.8128V97.6043M314.56 83.896H305.258" stroke="white" stroke-width="0.783427" stroke-linecap="round"/>
<path d="M13.4089 185.426L279.949 339.577C285.564 342.825 292.497 342.779 298.069 339.456L426.899 262.635C432.766 259.136 432.705 250.618 426.788 247.204L162.126 94.4933C156.595 91.3014 149.781 91.3004 144.248 94.4909L13.4187 169.933C7.4541 173.373 7.44861 181.979 13.4089 185.426Z" fill="#0E0E0E" stroke="white" stroke-width="0.559082"/>
<path d="M152.633 216.597V99.3605C152.633 95.6718 156.077 92.9506 159.666 93.8043C161.1 94.1454 162.476 94.6927 163.753 95.4292L426.792 247.204C432.709 250.618 432.77 259.136 426.903 262.635L322.654 324.798C316.798 328.29 309.467 328.15 303.748 324.437L160.78 231.602C155.699 228.302 152.633 222.656 152.633 216.597Z" fill="url(#paint3_linear_3_91)"/>
<path d="M123.562 223.02L235.305 202.852C237.205 202.509 239.147 202.476 241.056 202.753L334.335 216.311V294.419C334.335 295.213 333.913 295.948 333.228 296.349L269.481 333.641L123.562 249.297V223.02Z" fill="url(#paint4_linear_3_91)" stroke="white" stroke-width="0.670899"/>
<path d="M213.468 277.496L124.645 224.987C123.165 224.112 123.185 221.963 124.681 221.116L225.998 163.719C231.466 160.621 238.159 160.619 243.628 163.715L333.178 214.394C334.679 215.244 334.694 217.403 333.203 218.272L231.587 277.549C225.985 280.817 219.052 280.797 213.468 277.496Z" fill="#0F1110" stroke="white" stroke-width="1.11816"/>
<path d="M86.4385 148.97C79.6209 152.695 75.9576 146.811 79.9495 144.126L99.7415 133.12C104.865 129.907 112.037 133.463 107.472 136.691L86.4385 148.97Z" fill="#0F1110" stroke="white" stroke-opacity="0.8" stroke-width="0.559082"/>
<ellipse cx="2.90329" cy="2.30226" rx="2.90329" ry="2.30226" transform="matrix(0.963172 -0.268887 0.268883 0.963173 79.6189 145.078)" fill="#ACFF43" fill-opacity="0.8"/>
<path d="M181.786 240.517L117.494 204.745C115.977 203.901 115.958 201.726 117.461 200.856L224.183 139.069C228.338 136.663 233.461 136.661 237.618 139.062L304.45 177.671L194.984 240.433C190.903 242.772 185.896 242.804 181.786 240.517Z" fill="url(#paint5_linear_3_91)"/>
<path d="M117.331 197.211L181.623 232.983C185.836 235.327 190.968 235.294 195.151 232.896L311.04 166.453C312.749 165.473 312.766 163.013 311.071 162.009L248.453 124.919C244.173 122.384 238.858 122.358 234.553 124.85L117.293 192.738C115.565 193.739 115.586 196.241 117.331 197.211Z" fill="#0F1110" stroke="white" stroke-width="0.670899"/>
<path d="M340.356 248.05L340.355 248.063V248.076V314.52L297.794 340.045C292.092 343.465 284.949 343.37 279.34 339.801L276.522 338.008V272.228C276.592 270.824 277.559 269.367 279.559 268.213L322.166 243.613C324.243 242.414 326.985 241.805 329.745 241.805C332.506 241.805 335.248 242.414 337.325 243.613C339.523 244.882 340.473 246.515 340.356 248.05Z" fill="url(#paint6_linear_3_91)" stroke="white" stroke-width="0.670899"/>
<path d="M279.675 276.384C277.637 275.207 276.745 273.744 276.745 272.395C276.745 271.046 277.637 269.583 279.675 268.407L322.282 243.807C324.317 242.632 327.018 242.029 329.75 242.029C332.481 242.029 335.183 242.632 337.217 243.807C339.254 244.983 340.146 246.447 340.146 247.795C340.146 249.144 339.254 250.608 337.217 251.784L294.609 276.384C292.575 277.558 289.874 278.161 287.142 278.161C284.41 278.161 281.709 277.558 279.675 276.384Z" fill="#0F1110" stroke="white" stroke-width="1.11816"/>
<foreignObject x="328.078" y="89.2966" width="100.391" height="122.083"><div xmlns="http://www.w3.org/1999/xhtml" style="backdrop-filter:blur(10.58px);clip-path:url(#bgblur_0_3_91_clip_path);height:100%;width:100%"></div></foreignObject><path data-figma-bg-blur-radius="21.1515" fill-rule="evenodd" clip-rule="evenodd" d="M349.362 115.817C354.952 112.183 362.889 112.48 371.692 117.562C388.62 127.336 402.343 151.106 402.343 170.653C402.343 180.036 399.182 186.741 394.021 190.096L398.863 187.3C404.023 183.945 407.185 177.241 407.185 167.858C407.185 148.31 393.462 124.541 376.533 114.767C367.73 109.684 359.794 109.387 354.204 113.022L349.362 115.817Z" fill="white" fill-opacity="0.1" stroke="white" stroke-width="0.264394" stroke-linejoin="round"/>
<foreignObject x="319.89" y="92.2244" width="103.607" height="121.464"><div xmlns="http://www.w3.org/1999/xhtml" style="backdrop-filter:blur(10.58px);clip-path:url(#bgblur_1_3_91_clip_path);height:100%;width:100%"></div></foreignObject><path data-figma-bg-blur-radius="21.1515" d="M402.066 170.653C402.066 180.368 398.658 187.12 393.228 190.255C387.798 193.39 380.247 192.966 371.833 188.108C363.421 183.252 355.79 174.907 350.261 165.33C344.732 155.754 341.321 144.973 341.321 135.259C341.321 125.544 344.729 118.792 350.159 115.657C355.589 112.522 363.14 112.947 371.554 117.804C379.965 122.661 387.597 131.006 393.126 140.582C398.654 150.159 402.066 160.94 402.066 170.653Z" fill="#0E0E0E" fill-opacity="0.1" stroke="white" stroke-width="0.559082"/>
<path fill-rule="evenodd" clip-rule="evenodd" d="M357.105 129.589L351.104 141.96L357.105 161.261L370.82 175.117L381.317 175.983L385.392 182.605L387.328 181.487L383.253 174.865L372.756 173.999L359.041 160.142L353.041 140.842L359.041 128.471L357.105 129.589Z" fill="white" fill-opacity="0.2"/>
<path fill-rule="evenodd" clip-rule="evenodd" d="M385.389 182.604L389.836 179.975L391.773 178.857L387.326 181.486L385.389 182.604Z" fill="white" fill-opacity="0.2"/>
<path fill-rule="evenodd" clip-rule="evenodd" d="M389.837 179.976L385.85 173.405L389.677 163.241L384.534 145.426L370.819 130.579L357.104 129.589L359.04 128.471L372.755 129.461L386.47 144.307L391.613 162.123L387.786 172.286L391.774 178.857L389.837 179.976Z" fill="white" fill-opacity="0.2"/>
<path fill-rule="evenodd" clip-rule="evenodd" d="M379.395 167.226L382.824 159.308L379.395 148.421L370.824 139.513L362.252 138.523L364.188 137.405L372.76 138.395L381.332 147.303L384.761 158.19L381.332 166.108L379.395 167.226Z" fill="white" fill-opacity="0.2"/>
<path fill-rule="evenodd" clip-rule="evenodd" d="M362.259 138.523L358.831 146.441L362.259 157.328L370.831 166.236L379.403 167.226L381.34 166.108L372.768 165.118L364.196 156.21L360.767 145.322L364.196 137.405L362.259 138.523Z" fill="white" fill-opacity="0.2"/>
<path fill-rule="evenodd" clip-rule="evenodd" d="M389.68 163.241L384.537 145.426L370.822 130.579L357.107 129.589L351.107 141.961L357.107 161.261L370.822 175.117L381.319 175.984L385.394 182.605L389.841 179.976L385.853 173.405L389.68 163.241ZM379.401 167.226L382.83 159.308L379.401 148.421L370.829 139.513L362.258 138.523L358.829 146.441L362.257 157.328L370.829 166.236L379.401 167.226Z" fill="#0E0E0E" stroke="white" stroke-width="0.371175"/>
<foreignObject x="324.722" y="-20.2838" width="100.391" height="122.083"><div xmlns="http://www.w3.org/1999/xhtml" style="backdrop-filter:blur(10.58px);clip-path:url(#bgblur_2_3_91_clip_path);height:100%;width:100%"></div></foreignObject><path data-figma-bg-blur-radius="21.1515" fill-rule="evenodd" clip-rule="evenodd" d="M346.006 6.23658C351.597 2.60226 359.533 2.89936 368.336 7.98174C385.264 17.7556 398.987 41.5253 398.987 61.0729C398.987 70.4558 395.826 77.1604 390.665 80.5151L395.507 77.7197C400.667 74.3649 403.829 67.6603 403.829 58.2775C403.829 38.7299 390.106 14.9601 373.177 5.18631C364.374 0.103932 356.438 -0.193167 350.848 3.44115L346.006 6.23658Z" fill="white" fill-opacity="0.1" stroke="white" stroke-width="0.264394" stroke-linejoin="round"/>
<foreignObject x="316.53" y="-17.3559" width="103.607" height="121.464"><div xmlns="http://www.w3.org/1999/xhtml" style="backdrop-filter:blur(10.58px);clip-path:url(#bgblur_3_3_91_clip_path);height:100%;width:100%"></div></foreignObject><path data-figma-bg-blur-radius="21.1515" d="M398.706 61.0731C398.706 70.7881 395.298 77.5401 389.868 80.6751C384.438 83.8101 376.887 83.3856 368.474 78.5281C360.062 73.6715 352.431 65.3264 346.902 55.75C341.373 46.1736 337.961 35.3922 337.961 25.679C337.961 15.964 341.369 9.21203 346.799 6.07703C352.229 2.94203 359.781 3.36654 368.194 8.22404C376.606 13.0806 384.237 21.4257 389.766 31.0021C395.295 40.5785 398.706 51.3599 398.706 61.0731Z" fill="#0E0E0E" fill-opacity="0.1" stroke="white" stroke-width="0.559082"/>
<foreignObject x="268.894" y="17.7342" width="85.4014" height="101.47"><div xmlns="http://www.w3.org/1999/xhtml" style="backdrop-filter:blur(10.58px);clip-path:url(#bgblur_4_3_91_clip_path);height:100%;width:100%"></div></foreignObject><path data-figma-bg-blur-radius="21.1515" fill-rule="evenodd" clip-rule="evenodd" d="M290.178 42.8971C294.319 40.2049 300.198 40.425 306.719 44.1899C319.26 51.4301 329.425 69.0381 329.425 83.5185C329.425 90.469 327.083 95.4356 323.26 97.9207L326.847 95.85C330.67 93.3648 333.012 88.3983 333.012 81.4477C333.012 66.9673 322.846 49.3593 310.306 42.1191C303.785 38.3542 297.906 38.1341 293.765 40.8263L290.178 42.8971Z" fill="white" fill-opacity="0.1" stroke="white" stroke-width="0.264394" stroke-linejoin="round"/>
<foreignObject x="262.862" y="19.9372" width="87.7154" height="100.943"><div xmlns="http://www.w3.org/1999/xhtml" style="backdrop-filter:blur(10.58px);clip-path:url(#bgblur_5_3_91_clip_path);height:100%;width:100%"></div></foreignObject><path data-figma-bg-blur-radius="21.1515" d="M329.146 83.5184C329.146 90.6998 326.628 95.6715 322.635 97.9763C318.643 100.281 313.079 99.9765 306.859 96.3858C300.642 92.796 294.997 86.6248 290.906 79.5389C286.815 72.4531 284.293 64.4789 284.293 57.2993C284.293 50.118 286.812 45.1463 290.804 42.8415C294.796 40.5366 300.361 40.8412 306.58 44.4319C312.797 48.0217 318.442 54.193 322.533 61.2788C326.624 68.3646 329.146 76.3388 329.146 83.5184Z" fill="#0E0E0E" fill-opacity="0.1" stroke="white" stroke-width="0.559082"/>
<path fill-rule="evenodd" clip-rule="evenodd" d="M145.352 201.135L146.63 200.397L157.042 201.51L157.088 201.483V202.602L157.042 202.628L146.63 201.515L145.352 202.253V201.135Z" fill="white" fill-opacity="0.2"/>
<path fill-rule="evenodd" clip-rule="evenodd" d="M157.088 201.484L150.917 197.921V199.039L157.088 202.602V201.484Z" fill="white" fill-opacity="0.2"/>
<path fill-rule="evenodd" clip-rule="evenodd" d="M150.917 197.921L152.184 197.19L160.481 201.98V203.098L152.184 198.308L150.917 199.039V197.921Z" fill="white" fill-opacity="0.2"/>
<path fill-rule="evenodd" clip-rule="evenodd" d="M160.473 201.98L159.241 202.691L148.713 201.564L148.667 201.591V202.709L148.713 202.682L159.241 203.809L160.473 203.098V201.98Z" fill="white" fill-opacity="0.2"/>
<path fill-rule="evenodd" clip-rule="evenodd" d="M148.667 201.591L154.907 205.194V206.312L148.667 202.709V201.591Z" fill="white" fill-opacity="0.2"/>
<path fill-rule="evenodd" clip-rule="evenodd" d="M154.915 205.194L153.649 205.925L145.352 201.135V202.253L153.649 207.043L154.915 206.312V205.194Z" fill="white" fill-opacity="0.2"/>
<path fill-rule="evenodd" clip-rule="evenodd" d="M164.844 196.388L160.289 199.018V200.136L164.844 197.506V196.388Z" fill="white" fill-opacity="0.2"/>
<path fill-rule="evenodd" clip-rule="evenodd" d="M160.289 199.018C160.916 199.326 161.52 199.501 162.113 199.521C162.694 199.534 163.24 199.407 163.728 199.125C164.158 198.877 164.402 198.615 164.472 198.347C164.479 198.313 164.483 198.277 164.484 198.241V199.359C164.483 199.395 164.479 199.431 164.472 199.465C164.402 199.733 164.158 199.995 163.728 200.243C163.24 200.525 162.694 200.653 162.113 200.639C161.52 200.619 160.916 200.445 160.289 200.136V199.018Z" fill="white" fill-opacity="0.2"/>
<path fill-rule="evenodd" clip-rule="evenodd" d="M164.486 198.241C164.489 198.049 164.398 197.83 164.242 197.582V198.7C164.398 198.948 164.489 199.168 164.486 199.359V198.241Z" fill="white" fill-opacity="0.2"/>
<path fill-rule="evenodd" clip-rule="evenodd" d="M164.242 197.582L165.474 196.871C165.85 197.233 166.057 197.617 166.061 198.023V199.141C166.057 198.735 165.85 198.351 165.474 197.989L164.242 198.7V197.582Z" fill="white" fill-opacity="0.2"/>
<path fill-rule="evenodd" clip-rule="evenodd" d="M166.057 198.023C166.057 198.068 166.055 198.114 166.051 198.159V199.277C166.055 199.232 166.057 199.186 166.057 199.141V198.023Z" fill="white" fill-opacity="0.2"/>
<path fill-rule="evenodd" clip-rule="evenodd" d="M166.053 198.159C165.983 198.723 165.553 199.239 164.751 199.702C163.868 200.212 162.88 200.46 161.823 200.44C160.684 200.427 159.627 200.138 158.639 199.568C157.744 199.051 157.256 198.474 157.186 197.817C157.176 197.752 157.171 197.687 157.17 197.624V198.742C157.171 198.805 157.176 198.87 157.186 198.935C157.256 199.592 157.744 200.169 158.639 200.686C159.627 201.256 160.684 201.545 161.823 201.558C162.88 201.578 163.868 201.33 164.751 200.82C165.553 200.357 165.983 199.841 166.053 199.277V198.159Z" fill="white" fill-opacity="0.2"/>
<path fill-rule="evenodd" clip-rule="evenodd" d="M157.17 197.624C157.168 197.05 157.577 196.531 158.372 196.073C159.348 195.509 160.429 195.261 161.614 195.355C162.683 195.435 163.764 195.777 164.844 196.388V197.506C163.764 196.895 162.683 196.553 161.614 196.473C160.429 196.379 159.348 196.627 158.372 197.191C157.577 197.65 157.168 198.168 157.17 198.742V197.624Z" fill="white" fill-opacity="0.2"/>
<path fill-rule="evenodd" clip-rule="evenodd" d="M158.717 197.508C158.729 197.81 158.938 198.132 159.38 198.468L162.622 196.596V197.714L159.38 199.586C158.938 199.25 158.729 198.928 158.717 198.627V197.508Z" fill="white" fill-opacity="0.2"/>
<path fill-rule="evenodd" clip-rule="evenodd" d="M162.622 196.596C161.46 196.059 160.391 196.072 159.415 196.636C158.95 196.904 158.717 197.186 158.717 197.508V198.626C158.717 198.304 158.95 198.023 159.415 197.754C160.391 197.191 161.46 197.177 162.622 197.714V196.596Z" fill="white" fill-opacity="0.2"/>
<path fill-rule="evenodd" clip-rule="evenodd" d="M166.767 192.594L165.396 193.386V194.504L166.767 193.712V192.594Z" fill="white" fill-opacity="0.2"/>
<path fill-rule="evenodd" clip-rule="evenodd" d="M165.396 193.386L168.882 195.399C169.045 195.492 169.196 195.539 169.347 195.546C169.486 195.546 169.637 195.513 169.788 195.425L170.578 194.969L171.601 195.56V196.678L170.578 196.087L169.788 196.544C169.637 196.631 169.486 196.664 169.347 196.664C169.196 196.658 169.045 196.611 168.882 196.517L165.396 194.504V193.386Z" fill="white" fill-opacity="0.2"/>
<path fill-rule="evenodd" clip-rule="evenodd" d="M171.607 195.56L170.619 196.13C170.108 196.425 169.585 196.566 169.085 196.546C168.597 196.532 168.133 196.385 167.656 196.11L164.17 194.097L163.055 194.741L162.032 194.151V195.269L163.055 195.859L164.17 195.215L167.656 197.228C168.133 197.503 168.597 197.651 169.085 197.664C169.585 197.684 170.108 197.543 170.619 197.248L171.607 196.678V195.56Z" fill="white" fill-opacity="0.2"/>
<path fill-rule="evenodd" clip-rule="evenodd" d="M162.032 194.151L163.148 193.507V194.625L162.032 195.269V194.151Z" fill="white" fill-opacity="0.2"/>
<path fill-rule="evenodd" clip-rule="evenodd" d="M163.142 193.507L161.713 192.681V193.8L163.142 194.625V193.507Z" fill="white" fill-opacity="0.2"/>
<path fill-rule="evenodd" clip-rule="evenodd" d="M161.713 192.682L162.433 191.675L164.374 192.796L165.745 192.004L166.768 192.594V193.713L165.745 193.122L164.374 193.914L162.433 192.793L161.713 193.8V192.682Z" fill="white" fill-opacity="0.2"/>
<path fill-rule="evenodd" clip-rule="evenodd" d="M166.1 191.8L167.459 191.015L173.269 192.907V194.025L167.459 192.134L166.1 192.918V191.8Z" fill="white" fill-opacity="0.2"/>
<path fill-rule="evenodd" clip-rule="evenodd" d="M173.266 192.907L169.955 189.573V190.691L173.266 194.025V192.907Z" fill="white" fill-opacity="0.2"/>
<path fill-rule="evenodd" clip-rule="evenodd" d="M169.955 189.573L171.093 188.915L176.869 190.827V191.946L171.093 190.033L169.955 190.691V189.573Z" fill="white" fill-opacity="0.2"/>
<path fill-rule="evenodd" clip-rule="evenodd" d="M176.865 190.827L173.589 187.473V188.591L176.865 191.945V190.827Z" fill="white" fill-opacity="0.2"/>
<path fill-rule="evenodd" clip-rule="evenodd" d="M173.589 187.473L174.948 186.688L178.922 191.33V192.449L174.948 187.806L173.589 188.591V187.473Z" fill="white" fill-opacity="0.2"/>
<path fill-rule="evenodd" clip-rule="evenodd" d="M178.916 191.33L177.777 191.988L172.025 190.116V191.234L177.777 193.106L178.916 192.449V191.33Z" fill="white" fill-opacity="0.2"/>
<path fill-rule="evenodd" clip-rule="evenodd" d="M172.025 190.116L175.267 193.437V194.555L172.025 191.234V190.116Z" fill="white" fill-opacity="0.2"/>
<path fill-rule="evenodd" clip-rule="evenodd" d="M175.28 193.437L174.141 194.095L166.1 191.8V192.918L174.141 195.213L175.28 194.555V193.437Z" fill="white" fill-opacity="0.2"/>
<path fill-rule="evenodd" clip-rule="evenodd" d="M185.931 186.417C185.933 186.444 185.934 186.47 185.934 186.497V187.615C185.934 187.588 185.933 187.562 185.931 187.535V186.417Z" fill="white" fill-opacity="0.2"/>
<path fill-rule="evenodd" clip-rule="evenodd" d="M185.927 186.497C185.936 187.136 185.516 187.712 184.645 188.215C183.739 188.738 182.693 188.979 181.531 188.953C180.416 188.926 179.393 188.644 178.487 188.121C177.569 187.591 177.081 187 177.034 186.343V187.461C177.081 188.118 177.569 188.709 178.487 189.239C179.393 189.762 180.416 190.044 181.531 190.071C182.693 190.098 183.739 189.856 184.645 189.333C185.516 188.83 185.936 188.254 185.927 187.615V186.497Z" fill="white" fill-opacity="0.2"/>
<path fill-rule="evenodd" clip-rule="evenodd" d="M177.039 186.343C177.036 186.316 177.035 186.29 177.034 186.263V187.381C177.035 187.408 177.036 187.434 177.039 187.461V186.343Z" fill="white" fill-opacity="0.2"/>
<path fill-rule="evenodd" clip-rule="evenodd" d="M177.027 186.263C177.008 185.631 177.439 185.06 178.309 184.558C179.216 184.035 180.25 183.787 181.4 183.82C182.528 183.854 183.562 184.129 184.48 184.659C185.386 185.182 185.874 185.772 185.921 186.416V187.535C185.874 186.891 185.386 186.3 184.48 185.777C183.562 185.247 182.528 184.972 181.4 184.938C180.25 184.905 179.216 185.153 178.309 185.676C177.439 186.179 177.008 186.749 177.027 187.381V186.263Z" fill="white" fill-opacity="0.2"/>
<path fill-rule="evenodd" clip-rule="evenodd" d="M178.638 186.037C178.638 186.121 178.651 186.207 178.679 186.296C178.783 186.678 179.155 187.041 179.76 187.389C180.364 187.738 180.98 187.946 181.642 188.007C182.397 188.08 183.071 187.96 183.641 187.631C184.108 187.361 184.332 187.051 184.334 186.704V187.822C184.332 188.169 184.108 188.48 183.641 188.749C183.071 189.078 182.397 189.199 181.642 189.125C180.98 189.064 180.364 188.856 179.76 188.508C179.155 188.159 178.783 187.796 178.679 187.414C178.651 187.325 178.638 187.239 178.638 187.156V186.037Z" fill="white" fill-opacity="0.2"/>
<path fill-rule="evenodd" clip-rule="evenodd" d="M184.334 186.704C184.334 186.628 184.324 186.55 184.303 186.47C184.187 186.081 183.838 185.719 183.246 185.377C182.641 185.028 182.002 184.82 181.34 184.759C180.561 184.686 179.899 184.813 179.33 185.142C178.874 185.405 178.642 185.702 178.638 186.037V187.155C178.642 186.82 178.874 186.523 179.33 186.26C179.899 185.931 180.561 185.804 181.34 185.878C182.002 185.938 182.641 186.146 183.246 186.495C183.838 186.837 184.187 187.199 184.303 187.588C184.324 187.668 184.334 187.746 184.334 187.822V186.704Z" fill="white" fill-opacity="0.2"/>
<path fill-rule="evenodd" clip-rule="evenodd" d="M187.436 180.891C187.041 181.011 186.715 181.159 186.436 181.32C186.079 181.526 185.894 181.794 185.89 182.118V183.236C185.894 182.912 186.079 182.644 186.436 182.438C186.715 182.277 187.041 182.13 187.436 182.009V180.891Z" fill="white" fill-opacity="0.2"/>
<path fill-rule="evenodd" clip-rule="evenodd" d="M185.89 182.118C185.89 182.131 185.89 182.145 185.89 182.158V183.276C185.89 183.263 185.89 183.249 185.89 183.236V182.118Z" fill="white" fill-opacity="0.2"/>
<path fill-rule="evenodd" clip-rule="evenodd" d="M185.89 182.158C185.901 182.527 186.18 182.863 186.703 183.165L189.887 185.003V186.121L186.703 184.283C186.18 183.981 185.901 183.646 185.89 183.277V182.158Z" fill="white" fill-opacity="0.2"/>
<path fill-rule="evenodd" clip-rule="evenodd" d="M189.888 185.003L188.656 185.714L182.649 182.246V183.364L188.656 186.832L189.888 186.121V185.003Z" fill="white" fill-opacity="0.2"/>
<path fill-rule="evenodd" clip-rule="evenodd" d="M182.649 182.246L183.88 181.535L184.787 182.058V183.176L183.88 182.653L182.649 183.364V182.246Z" fill="white" fill-opacity="0.2"/>
<path fill-rule="evenodd" clip-rule="evenodd" d="M184.779 182.058C184.657 181.865 184.597 181.682 184.597 181.512V182.63C184.597 182.801 184.657 182.983 184.779 183.176V182.058Z" fill="white" fill-opacity="0.2"/>
<path fill-rule="evenodd" clip-rule="evenodd" d="M184.597 181.512C184.596 181.439 184.607 181.368 184.628 181.3C184.674 181.005 184.895 180.756 185.267 180.542C185.569 180.367 185.883 180.24 186.196 180.179L187.428 180.89V182.009L186.196 181.297C185.883 181.358 185.569 181.485 185.267 181.66C184.895 181.874 184.674 182.123 184.628 182.418C184.607 182.486 184.596 182.557 184.597 182.63V181.512Z" fill="white" fill-opacity="0.2"/>
<path fill-rule="evenodd" clip-rule="evenodd" d="M184.515 178.334L185.747 177.623L190.674 180.467L190.801 177.535L192.393 176.616V177.734L190.801 178.654L190.674 181.585L185.747 178.741L184.515 179.452V178.334Z" fill="white" fill-opacity="0.2"/>
<path fill-rule="evenodd" clip-rule="evenodd" d="M192.402 176.616L192.216 179.582V180.7L192.402 177.734V176.616Z" fill="white" fill-opacity="0.2"/>
<path fill-rule="evenodd" clip-rule="evenodd" d="M192.216 179.582L198.642 179.951V181.069L192.216 180.7V179.582Z" fill="white" fill-opacity="0.2"/>
<path fill-rule="evenodd" clip-rule="evenodd" d="M198.627 179.951L197.047 180.863L192.143 180.528V181.646L197.047 181.981L198.627 181.069V179.951Z" fill="white" fill-opacity="0.2"/>
<path fill-rule="evenodd" clip-rule="evenodd" d="M192.148 180.528L192.102 181.292V182.411L192.148 181.646V180.528Z" fill="white" fill-opacity="0.2"/>
<path fill-rule="evenodd" clip-rule="evenodd" d="M192.102 181.292L194.205 182.507V183.625L192.102 182.411V181.292Z" fill="white" fill-opacity="0.2"/>
<path fill-rule="evenodd" clip-rule="evenodd" d="M194.206 182.507L192.974 183.218L184.515 178.334V179.452L192.974 184.336L194.206 183.625V182.507Z" fill="white" fill-opacity="0.2"/>
<path d="M145.354 201.135L146.633 200.397L157.044 201.51L157.091 201.484L150.92 197.921L152.187 197.19L160.484 201.98L159.252 202.691L148.724 201.564L148.678 201.591L154.918 205.194L153.651 205.925L145.354 201.135ZM158.375 196.073C159.351 195.509 160.432 195.261 161.617 195.355C162.686 195.435 163.767 195.777 164.848 196.388L160.292 199.018C160.92 199.327 161.524 199.501 162.117 199.521C162.698 199.535 163.244 199.407 163.732 199.125C164.162 198.877 164.406 198.615 164.476 198.347C164.522 198.132 164.429 197.877 164.243 197.582L165.475 196.871C165.893 197.274 166.103 197.703 166.056 198.159C165.986 198.723 165.556 199.239 164.755 199.702C163.871 200.212 162.884 200.46 161.826 200.44C160.687 200.427 159.63 200.138 158.642 199.568C157.748 199.051 157.26 198.474 157.19 197.817C157.085 197.166 157.492 196.583 158.375 196.073ZM159.421 196.636C158.956 196.905 158.724 197.186 158.724 197.508C158.735 197.81 158.944 198.132 159.386 198.468L162.628 196.596C161.466 196.059 160.397 196.073 159.421 196.636ZM162.436 191.675L164.376 192.796L165.748 192.004L166.77 192.594L165.399 193.386L168.885 195.399C169.048 195.493 169.199 195.54 169.35 195.546C169.489 195.546 169.64 195.513 169.791 195.426L170.582 194.969L171.604 195.56L170.616 196.13C170.105 196.425 169.582 196.566 169.083 196.546C168.594 196.533 168.13 196.385 167.653 196.11L164.167 194.097L163.052 194.741L162.029 194.151L163.145 193.507L161.715 192.682L162.436 191.675ZM166.1 191.8L167.46 191.015L173.27 192.907L169.958 189.573L171.097 188.915L176.872 190.828L173.595 187.473L174.955 186.688L178.929 191.331L177.79 191.988L172.038 190.116L175.28 193.437L174.141 194.095L166.1 191.8ZM178.319 184.558C179.225 184.035 180.259 183.787 181.41 183.82C182.537 183.854 183.571 184.129 184.489 184.659C185.395 185.182 185.883 185.773 185.93 186.417C185.976 187.087 185.558 187.691 184.652 188.215C183.745 188.738 182.699 188.979 181.537 188.953C180.422 188.926 179.399 188.644 178.493 188.121C177.575 187.591 177.087 187 177.04 186.343C176.982 185.679 177.412 185.081 178.319 184.558ZM179.329 185.142C178.76 185.471 178.539 185.853 178.679 186.296C178.783 186.678 179.155 187.041 179.759 187.389C180.364 187.738 180.98 187.946 181.642 188.007C182.397 188.08 183.071 187.96 183.641 187.631C184.21 187.302 184.419 186.913 184.303 186.47C184.187 186.081 183.838 185.719 183.246 185.377C182.641 185.028 182.002 184.82 181.34 184.759C180.561 184.686 179.899 184.813 179.329 185.142ZM185.275 180.542C185.577 180.367 185.891 180.24 186.205 180.179L187.437 180.891C187.042 181.011 186.716 181.159 186.437 181.32C186.065 181.535 185.88 181.816 185.891 182.159C185.903 182.528 186.182 182.863 186.705 183.165L189.889 185.003L188.657 185.714L182.649 182.246L183.881 181.535L184.787 182.058C184.613 181.783 184.566 181.528 184.636 181.3C184.683 181.005 184.903 180.756 185.275 180.542ZM184.521 178.334L185.753 177.623L190.68 180.467L190.807 177.536L192.399 176.616L192.213 179.582L198.639 179.951L197.059 180.863L192.155 180.528L192.109 181.293L194.212 182.507L192.98 183.218L184.521 178.334Z" fill="#A8A8A8"/>
<foreignObject x="153.142" y="59.1063" width="115.709" height="146.371"><div xmlns="http://www.w3.org/1999/xhtml" style="backdrop-filter:blur(10.58px);clip-path:url(#bgblur_6_3_91_clip_path);height:100%;width:100%"></div></foreignObject><path data-figma-bg-blur-radius="21.1515" fill-rule="evenodd" clip-rule="evenodd" d="M191.989 184.194C184.249 180.255 179.416 171.11 179.416 157.871C179.416 132.412 197.289 101.453 219.338 88.7236C230.362 82.3588 240.342 81.7562 247.567 85.9273L242.576 83.0462C235.352 78.8751 225.371 79.4777 214.347 85.8425C192.299 98.5722 174.425 129.53 174.425 154.99C174.425 168.229 179.258 177.374 186.998 181.313L191.989 184.194Z" fill="white" fill-opacity="0.1" stroke="white" stroke-width="0.264394" stroke-linejoin="round"/>
<foreignObject x="158.268" y="62.1198" width="122.147" height="145.404"><div xmlns="http://www.w3.org/1999/xhtml" style="backdrop-filter:blur(10.58px);clip-path:url(#bgblur_7_3_91_clip_path);height:100%;width:100%"></div></foreignObject><path data-figma-bg-blur-radius="21.1515" d="M258.822 111.773C258.822 124.407 254.385 138.436 247.189 150.9C239.993 163.364 230.062 174.221 219.121 180.539C208.177 186.857 198.373 187.399 191.333 183.335C184.293 179.27 179.86 170.508 179.86 157.871C179.86 145.237 184.298 131.208 191.494 118.744C198.69 106.28 208.62 95.4224 219.562 89.1054C230.505 82.7869 240.31 82.2444 247.35 86.309C254.39 90.3736 258.822 99.1359 258.822 111.773Z" fill="#0E0E0E" fill-opacity="0.1" stroke="white" stroke-width="0.881312"/>
<foreignObject x="167.204" y="71.676" width="108.1" height="128.64"><div xmlns="http://www.w3.org/1999/xhtml" style="backdrop-filter:blur(10.58px);clip-path:url(#bgblur_8_3_91_clip_path);height:100%;width:100%"></div></foreignObject><path data-figma-bg-blur-radius="21.1515" d="M253.706 118.855C252.761 129.744 248.258 141.524 241.733 151.763C235.207 162.004 226.674 170.68 217.693 175.38C208.711 180.079 201.036 179.891 195.85 175.905C190.653 171.911 187.856 164.033 188.801 153.138C189.746 142.249 194.249 130.469 200.775 120.229C207.3 109.988 215.833 101.313 224.815 96.613C233.797 91.9132 241.471 92.1018 246.657 96.0875C251.854 100.081 254.652 107.959 253.706 118.855Z" fill="#0E0E0E" fill-opacity="0.1" stroke="white" stroke-width="0.528788"/>
<path fill-rule="evenodd" clip-rule="evenodd" d="M218.928 256.036C217.591 255.264 216.923 254.252 216.923 253.24V257.713C216.923 258.725 217.591 259.737 218.928 260.508V256.036Z" fill="#0F1110" stroke="white" stroke-width="0.447266"/>
<path fill-rule="evenodd" clip-rule="evenodd" d="M302.272 211.747C302.328 212.798 301.661 213.861 300.27 214.663L228.612 256.036C225.938 257.58 221.602 257.58 218.928 256.036V260.508C221.602 262.052 225.938 262.052 228.612 260.508L300.27 219.136C301.661 218.333 302.328 217.271 302.272 216.219V211.747Z" fill="#0F1110" stroke="white" stroke-width="0.447266"/>
<path d="M219.152 255.648C217.896 254.923 217.37 254.036 217.37 253.24C217.37 252.445 217.896 251.557 219.152 250.832L290.81 209.46C292.063 208.736 293.733 208.362 295.428 208.362C297.123 208.362 298.793 208.736 300.046 209.46C301.302 210.185 301.828 211.072 301.828 211.868C301.828 212.664 301.302 213.551 300.046 214.276L228.388 255.648C227.135 256.372 225.465 256.746 223.77 256.746C222.075 256.746 220.405 256.372 219.152 255.648Z" fill="#0F1110" stroke="white" stroke-width="0.894532"/>
<path d="M227.152 254.223L227.152 254.222L298.409 213.274L227.152 254.223ZM227.152 254.223C226.402 254.655 225.402 254.88 224.386 254.88C223.371 254.88 222.371 254.655 221.621 254.223C220.87 253.789 220.557 253.259 220.557 252.787M227.152 254.223L220.557 252.787M220.557 252.787C220.557 252.315 220.87 251.786 221.621 251.352M220.557 252.787L221.621 251.352M221.621 251.352L292.539 210.403M221.621 251.352L292.539 210.403M292.539 210.403C293.285 209.973 294.368 209.746 295.474 209.746M292.539 210.403L295.474 209.746M295.474 209.746C296.58 209.746 297.663 209.973 298.409 210.403M295.474 209.746L298.409 210.403M298.409 210.403C298.992 210.739 299.327 211.269 299.359 211.789M298.409 210.403L299.359 211.789M299.359 211.789C299.389 212.296 299.135 212.854 298.41 213.273L299.359 211.789Z" stroke="white" stroke-width="0.559082"/>
<path d="M256.058 173.68C256.058 177.221 258.398 180.762 263.078 183.464C265.905 185.096 269.263 186.235 272.831 186.881L271.422 187.716C268.381 187.042 265.53 185.997 263.078 184.582C258.398 181.88 256.058 178.339 256.058 174.798V173.68Z" fill="white" fill-opacity="0.3"/>
<path d="M263.08 163.896C253.721 169.3 253.721 178.06 263.08 183.464C266.295 185.32 270.197 186.539 274.313 187.12L303.377 170.559C302.402 168.117 300.267 165.799 296.972 163.896C287.613 158.493 272.439 158.493 263.08 163.896Z" fill="#424242"/>
<path fill-rule="evenodd" clip-rule="evenodd" d="M248.242 156.76C248.242 155.546 249.044 154.332 250.648 153.406C253.857 151.553 259.06 151.553 262.268 153.406C263.809 154.295 264.61 155.45 264.671 156.615V157.733C264.61 156.568 263.809 155.413 262.268 154.524C259.06 152.671 253.857 152.671 250.648 154.524C249.044 155.45 248.242 156.665 248.242 157.879V156.76Z" fill="white" fill-opacity="0.3"/>
<path fill-rule="evenodd" clip-rule="evenodd" d="M264.671 156.615C264.738 157.877 263.937 159.152 262.268 160.115C259.06 161.968 253.857 161.968 250.648 160.115C249.044 159.189 248.242 157.975 248.242 156.761V157.879C248.242 159.093 249.044 160.307 250.648 161.233C253.857 163.086 259.06 163.086 262.268 161.233C263.937 160.27 264.738 158.995 264.671 157.733V156.615Z" fill="white" fill-opacity="0.3"/>
<path d="M262.267 160.115C259.058 161.968 253.855 161.968 250.646 160.115C247.438 158.262 247.438 155.259 250.646 153.406C253.855 151.553 259.058 151.553 262.267 153.406C265.475 155.259 265.475 158.262 262.267 160.115Z" fill="#424242"/>
<foreignObject x="205.708" y="158.687" width="99.5788" height="113.905"><div xmlns="http://www.w3.org/1999/xhtml" style="backdrop-filter:blur(10.58px);clip-path:url(#bgblur_9_3_91_clip_path);height:100%;width:100%"></div></foreignObject><path data-figma-bg-blur-radius="21.1515" d="M263.56 187.929C247.078 197.445 233.717 220.587 233.717 239.618C233.717 243.277 234.211 246.517 235.126 249.297L231.465 251.308C228.629 247.673 226.992 242.397 226.992 235.735C226.992 216.704 240.353 193.562 256.835 184.046C264.746 179.479 271.938 178.881 277.278 181.599L284.004 185.482C278.663 182.764 271.471 183.361 263.56 187.929Z" fill="white" fill-opacity="0.1" stroke="white" stroke-width="0.264394" stroke-linejoin="round"/>
<foreignObject x="212.13" y="162.26" width="102.869" height="108.84"><div xmlns="http://www.w3.org/1999/xhtml" style="backdrop-filter:blur(10.58px);clip-path:url(#bgblur_10_3_91_clip_path);height:100%;width:100%"></div></foreignObject><path data-figma-bg-blur-radius="21.1515" d="M263.565 187.929C247.083 197.444 233.723 220.586 233.723 239.618C233.723 243.276 234.216 246.517 235.131 249.297L291.971 216.579C292.904 212.704 293.407 208.854 293.407 205.158C293.407 186.127 280.046 178.413 263.565 187.929Z" fill="#0E0E0E" fill-opacity="0.1" stroke="white" stroke-width="0.881312"/>
<foreignObject x="218.964" y="168.221" width="92.4163" height="99.1408"><div xmlns="http://www.w3.org/1999/xhtml" style="backdrop-filter:blur(10.58px);clip-path:url(#bgblur_11_3_91_clip_path);height:100%;width:100%"></div></foreignObject><path data-figma-bg-blur-radius="21.1515" d="M240.392 239.82C240.608 231.114 243.592 221.521 248.25 213.051C252.91 204.581 259.23 197.26 266.095 193.081C272.961 188.902 279.015 188.682 283.288 191.582C287.572 194.49 290.168 200.603 289.952 209.316C289.88 212.215 289.501 215.213 288.855 218.236L240.73 245.79C240.457 243.964 240.339 241.97 240.392 239.82Z" fill="#0E0E0E" fill-opacity="0.1" stroke="white" stroke-width="0.528788"/>
<path d="M267.655 201.088L281.37 200.098L279.433 198.979L265.718 199.97L252.003 214.816L246.003 234.117L249.003 240.302L250.361 240.227L247.94 235.235L253.94 215.935L267.655 201.088Z" fill="white" fill-opacity="0.3"/>
<path d="M276.25 209.023L279.678 215.951L276.992 225.257L274.459 226.204L277.742 214.833L274.313 207.905L276.25 209.023Z" fill="white" fill-opacity="0.3"/>
<path d="M281.371 200.097L286.514 211.974L284.202 220.784L277.071 224.933L279.664 215.951L276.235 209.023L267.664 210.013L259.092 218.921L255.663 230.798L258.177 235.879C255.568 237.32 250.352 240.206 250.36 240.222L247.941 235.235L253.941 215.934L267.656 201.088L281.371 200.097Z" fill="#0E0E0E" stroke="white" stroke-width="0.371175"/>
<path fill-rule="evenodd" clip-rule="evenodd" d="M130.832 193.32C130.83 193.079 130.885 192.842 130.997 192.612C131.168 192.254 131.497 191.935 131.985 191.653C132.473 191.371 133.023 191.183 133.635 191.089C134.247 190.986 134.875 190.964 135.518 191.022C136.161 191.071 136.8 191.194 137.435 191.391C138.07 191.579 138.651 191.825 139.178 192.129C139.736 192.451 140.181 192.807 140.514 193.196C140.855 193.581 141.068 193.972 141.153 194.37L143.21 194.363V195.481L141.153 195.488C141.068 195.09 140.855 194.699 140.514 194.314C140.181 193.925 139.736 193.569 139.178 193.247C138.651 192.943 138.07 192.697 137.435 192.509C136.8 192.313 136.161 192.19 135.518 192.14C134.875 192.082 134.247 192.105 133.635 192.207C133.023 192.301 132.473 192.489 131.985 192.771C131.497 193.053 131.168 193.373 130.997 193.73C130.885 193.961 130.83 194.197 130.832 194.439V193.32Z" fill="white" fill-opacity="0.2"/>
<path fill-rule="evenodd" clip-rule="evenodd" d="M143.207 194.363L143.218 195.041V196.159L143.207 195.482V194.363Z" fill="white" fill-opacity="0.2"/>
<path fill-rule="evenodd" clip-rule="evenodd" d="M143.222 195.041H141.153C141.045 195.533 140.677 195.96 140.049 196.322C139.561 196.604 139.007 196.794 138.388 196.893C137.776 196.986 137.141 197.004 136.482 196.946C135.831 196.884 135.188 196.754 134.553 196.557C133.918 196.36 133.337 196.11 132.81 195.806C132.283 195.502 131.853 195.168 131.52 194.806C131.187 194.435 130.974 194.066 130.881 193.699C130.849 193.571 130.833 193.445 130.832 193.32V194.439C130.833 194.563 130.849 194.689 130.881 194.817C130.974 195.184 131.187 195.553 131.52 195.924C131.853 196.287 132.283 196.62 132.81 196.924C133.337 197.228 133.918 197.478 134.553 197.675C135.188 197.872 135.831 198.002 136.482 198.064C137.141 198.123 137.776 198.105 138.388 198.011C139.007 197.912 139.561 197.722 140.049 197.44C140.677 197.078 141.045 196.651 141.153 196.159H143.222V195.041Z" fill="white" fill-opacity="0.2"/>
<path fill-rule="evenodd" clip-rule="evenodd" d="M139.961 195.048L138.648 195.041V196.159L139.961 196.166V195.048Z" fill="white" fill-opacity="0.2"/>
<path fill-rule="evenodd" clip-rule="evenodd" d="M138.648 195.041L138.66 194.363L139.926 194.37V195.488L138.66 195.482L138.648 196.159V195.041Z" fill="white" fill-opacity="0.2"/>
<path fill-rule="evenodd" clip-rule="evenodd" d="M139.923 194.37C139.722 193.815 139.141 193.261 138.18 192.706C137.708 192.433 137.227 192.214 136.739 192.049C136.259 191.879 135.787 191.767 135.322 191.713C134.857 191.659 134.415 191.668 133.997 191.74C133.571 191.807 133.184 191.941 132.835 192.142C132.494 192.339 132.266 192.561 132.149 192.807C132.08 192.942 132.045 193.081 132.043 193.225V194.343C132.045 194.2 132.08 194.06 132.149 193.925C132.266 193.679 132.494 193.457 132.835 193.261C133.184 193.059 133.571 192.925 133.997 192.858C134.415 192.787 134.857 192.778 135.322 192.831C135.787 192.885 136.259 192.997 136.739 193.167C137.227 193.332 137.708 193.551 138.18 193.824C139.141 194.379 139.722 194.933 139.923 195.488V194.37Z" fill="white" fill-opacity="0.2"/>
<path fill-rule="evenodd" clip-rule="evenodd" d="M132.043 193.225C132.042 193.338 132.062 193.454 132.103 193.572C132.196 193.84 132.386 194.115 132.672 194.397C132.959 194.679 133.339 194.956 133.811 195.229C134.284 195.502 134.764 195.725 135.252 195.9C135.748 196.07 136.232 196.184 136.705 196.242C137.169 196.296 137.619 196.291 138.053 196.228C138.479 196.161 138.866 196.027 139.215 195.826C139.602 195.602 139.85 195.343 139.958 195.048V196.166C139.85 196.461 139.602 196.72 139.215 196.944C138.866 197.145 138.479 197.28 138.053 197.347C137.619 197.409 137.169 197.414 136.705 197.36C136.232 197.302 135.748 197.188 135.252 197.018C134.764 196.843 134.284 196.62 133.811 196.347C133.339 196.074 132.959 195.797 132.672 195.515C132.386 195.233 132.196 194.958 132.103 194.69C132.062 194.572 132.042 194.456 132.043 194.343V193.225Z" fill="white" fill-opacity="0.2"/>
<path fill-rule="evenodd" clip-rule="evenodd" d="M145.229 193.122L144.311 193.652L136.618 189.21V190.329L144.311 194.77L145.229 194.24V193.122Z" fill="white" fill-opacity="0.2"/>
<path fill-rule="evenodd" clip-rule="evenodd" d="M136.618 189.21L137.536 188.68L145.229 193.122V194.24L137.536 189.798L136.618 190.328V189.21Z" fill="white" fill-opacity="0.2"/>
<path fill-rule="evenodd" clip-rule="evenodd" d="M144.532 185.594L142.347 186.856V187.974L144.532 186.712V185.594Z" fill="white" fill-opacity="0.2"/>
<path fill-rule="evenodd" clip-rule="evenodd" d="M142.347 186.855L149.215 190.82V191.939L142.347 187.974V186.855Z" fill="white" fill-opacity="0.2"/>
<path fill-rule="evenodd" clip-rule="evenodd" d="M149.209 190.821L148.28 191.357L141.412 187.392L139.228 188.654L138.403 188.177V189.295L139.228 189.772L141.412 188.51L148.28 192.475L149.209 191.939V190.821Z" fill="white" fill-opacity="0.2"/>
<path fill-rule="evenodd" clip-rule="evenodd" d="M138.403 188.177L143.701 185.118L144.526 185.594V186.712L143.701 186.236L138.403 189.295V188.177Z" fill="white" fill-opacity="0.2"/>
<path fill-rule="evenodd" clip-rule="evenodd" d="M154.12 186.523L149.542 181.746V182.864L154.12 187.641V186.523Z" fill="white" fill-opacity="0.2"/>
<path fill-rule="evenodd" clip-rule="evenodd" d="M149.542 181.746L150.843 180.994L158.536 185.436V186.554L150.843 182.113L149.542 182.864V181.746Z" fill="white" fill-opacity="0.2"/>
<path fill-rule="evenodd" clip-rule="evenodd" d="M158.535 185.436L157.617 185.966L151.377 182.363L151.342 182.383V183.502L151.377 183.481L157.617 187.084L158.535 186.554V185.436Z" fill="white" fill-opacity="0.2"/>
<path fill-rule="evenodd" clip-rule="evenodd" d="M151.342 182.384L155.781 187.026V188.144L151.342 183.502V182.384Z" fill="white" fill-opacity="0.2"/>
<path fill-rule="evenodd" clip-rule="evenodd" d="M155.775 187.026L154.961 187.496L146.897 184.946L146.874 184.96V186.078L146.897 186.064L154.961 188.614L155.775 188.144V187.026Z" fill="white" fill-opacity="0.2"/>
<path fill-rule="evenodd" clip-rule="evenodd" d="M146.874 184.96L153.114 188.562V189.681L146.874 186.078V184.96Z" fill="white" fill-opacity="0.2"/>
<path fill-rule="evenodd" clip-rule="evenodd" d="M153.127 188.562L152.209 189.092L144.516 184.651V185.769L152.209 190.21L153.127 189.68V188.562Z" fill="white" fill-opacity="0.2"/>
<path fill-rule="evenodd" clip-rule="evenodd" d="M144.516 184.651L145.934 183.832L154.103 186.536L154.126 186.523V187.641L154.103 187.654L145.934 184.951L144.516 185.769V184.651Z" fill="white" fill-opacity="0.2"/>
<path fill-rule="evenodd" clip-rule="evenodd" d="M157.716 177.982L153.986 180.135V181.254L157.716 179.1V177.982Z" fill="white" fill-opacity="0.2"/>
<path fill-rule="evenodd" clip-rule="evenodd" d="M153.986 180.135L156.473 181.571L159.982 179.545L160.807 180.021V181.14L159.982 180.663L156.473 182.689L153.986 181.254V180.135Z" fill="white" fill-opacity="0.2"/>
<path fill-rule="evenodd" clip-rule="evenodd" d="M160.802 180.022L157.292 182.048V183.166L160.802 181.14V180.022Z" fill="white" fill-opacity="0.2"/>
<path fill-rule="evenodd" clip-rule="evenodd" d="M157.292 182.047L160.023 183.624L163.916 181.377L164.741 181.853V182.971L163.916 182.495L160.023 184.742L157.292 183.166V182.047Z" fill="white" fill-opacity="0.2"/>
<path fill-rule="evenodd" clip-rule="evenodd" d="M164.746 181.853L159.935 184.631L152.243 180.189V181.307L159.935 185.749L164.746 182.971V181.853Z" fill="white" fill-opacity="0.2"/>
<path fill-rule="evenodd" clip-rule="evenodd" d="M152.243 180.189L156.891 177.506L157.716 177.982V179.1L156.891 178.624L152.243 181.308V180.189Z" fill="white" fill-opacity="0.2"/>
<path fill-rule="evenodd" clip-rule="evenodd" d="M163.715 174.516L159.985 176.67V177.788L163.715 175.634V174.516Z" fill="white" fill-opacity="0.2"/>
<path fill-rule="evenodd" clip-rule="evenodd" d="M159.985 176.67L162.472 178.106L165.981 176.079L166.806 176.556V177.674L165.981 177.198L162.472 179.224L159.985 177.788V176.67Z" fill="white" fill-opacity="0.2"/>
<path fill-rule="evenodd" clip-rule="evenodd" d="M166.801 176.556L163.292 178.582V179.7L166.801 177.674V176.556Z" fill="white" fill-opacity="0.2"/>
<path fill-rule="evenodd" clip-rule="evenodd" d="M163.292 178.582L166.022 180.158L169.915 177.911L170.74 178.387V179.505L169.915 179.029L166.022 181.277L163.292 179.7V178.582Z" fill="white" fill-opacity="0.2"/>
<path fill-rule="evenodd" clip-rule="evenodd" d="M170.745 178.387L165.934 181.165L158.242 176.723V177.842L165.934 182.283L170.745 179.505V178.387Z" fill="white" fill-opacity="0.2"/>
<path fill-rule="evenodd" clip-rule="evenodd" d="M158.242 176.723L162.89 174.04L163.715 174.516V175.634L162.89 175.158L158.242 177.841V176.723Z" fill="white" fill-opacity="0.2"/>
<path fill-rule="evenodd" clip-rule="evenodd" d="M164.241 173.257L167.506 171.372C167.77 171.22 168.076 171.12 168.424 171.07C168.773 171.021 169.122 171.012 169.47 171.043C169.819 171.066 170.156 171.122 170.481 171.211C170.799 171.296 171.066 171.401 171.283 171.527C171.492 171.647 171.678 171.786 171.841 171.942C172.003 172.099 172.131 172.258 172.224 172.419C172.309 172.575 172.352 172.73 172.352 172.882V174C172.352 173.848 172.309 173.694 172.224 173.537C172.131 173.376 172.003 173.217 171.841 173.061C171.678 172.904 171.492 172.765 171.283 172.645C171.066 172.519 170.799 172.414 170.481 172.329C170.156 172.24 169.819 172.184 169.47 172.162C169.122 172.13 168.773 172.139 168.424 172.188C168.076 172.238 167.77 172.338 167.506 172.49L164.241 174.376V173.257Z" fill="white" fill-opacity="0.2"/>
<path fill-rule="evenodd" clip-rule="evenodd" d="M172.353 172.882C172.345 173.029 172.279 173.157 172.156 173.264V174.382C172.279 174.275 172.345 174.148 172.353 174V172.882Z" fill="white" fill-opacity="0.2"/>
<path fill-rule="evenodd" clip-rule="evenodd" d="M172.156 173.264C172.613 173.099 173.035 173.056 173.422 173.137C173.802 173.213 174.154 173.345 174.48 173.533L175.932 174.371C176.141 174.492 176.35 174.577 176.56 174.626C176.769 174.675 176.962 174.698 177.141 174.693V175.811C176.962 175.816 176.769 175.793 176.56 175.744C176.35 175.695 176.141 175.61 175.932 175.489L174.48 174.651C174.154 174.463 173.802 174.331 173.422 174.255C173.035 174.174 172.613 174.217 172.156 174.382V173.264Z" fill="white" fill-opacity="0.2"/>
<path fill-rule="evenodd" clip-rule="evenodd" d="M177.141 174.693L176.095 175.297C176.002 175.297 175.905 175.286 175.805 175.263C175.712 175.237 175.619 175.205 175.526 175.17C175.425 175.129 175.332 175.089 175.247 175.049C175.162 175 175.088 174.957 175.026 174.921L173.539 174.063C173.422 173.995 173.291 173.942 173.144 173.902C172.989 173.857 172.826 173.834 172.655 173.834C172.485 173.825 172.311 173.841 172.133 173.881C171.947 173.917 171.765 173.986 171.586 174.089L169.553 175.263V176.382L171.586 175.208C171.765 175.105 171.947 175.035 172.133 175C172.311 174.959 172.485 174.944 172.655 174.953C172.826 174.953 172.989 174.975 173.144 175.02C173.291 175.06 173.422 175.114 173.539 175.181L175.026 176.039C175.088 176.075 175.162 176.118 175.247 176.167C175.332 176.207 175.425 176.247 175.526 176.288C175.619 176.323 175.712 176.355 175.805 176.382C175.905 176.404 176.002 176.415 176.095 176.415L177.141 175.811V174.693Z" fill="white" fill-opacity="0.2"/>
<path fill-rule="evenodd" clip-rule="evenodd" d="M169.553 175.264L172.853 177.169V178.287L169.553 176.382V175.264Z" fill="white" fill-opacity="0.2"/>
<path fill-rule="evenodd" clip-rule="evenodd" d="M172.852 177.169L171.934 177.699L164.241 173.258V174.376L171.934 178.817L172.852 178.287V177.169Z" fill="white" fill-opacity="0.2"/>
<path fill-rule="evenodd" clip-rule="evenodd" d="M171.083 173.072C171.083 173.018 171.075 172.963 171.059 172.909C171.028 172.775 170.954 172.643 170.838 172.513C170.73 172.379 170.594 172.265 170.431 172.171C170.277 172.081 170.091 172.01 169.874 171.956C169.649 171.898 169.421 171.864 169.188 171.855C168.956 171.838 168.735 171.844 168.526 171.876C168.317 171.907 168.142 171.963 168.003 172.043L165.993 173.204V174.322L168.003 173.161C168.142 173.081 168.317 173.025 168.526 172.994C168.735 172.962 168.956 172.956 169.188 172.974C169.421 172.983 169.649 173.016 169.874 173.074C170.091 173.128 170.277 173.2 170.431 173.289C170.594 173.383 170.73 173.497 170.838 173.631C170.954 173.761 171.028 173.893 171.059 174.027C171.075 174.081 171.083 174.136 171.083 174.19V173.072Z" fill="white" fill-opacity="0.2"/>
<path fill-rule="evenodd" clip-rule="evenodd" d="M165.993 173.204L168.723 174.78L170.734 173.62C170.889 173.53 170.989 173.423 171.036 173.298C171.067 173.223 171.083 173.147 171.083 173.072V174.19C171.083 174.266 171.067 174.341 171.036 174.416C170.989 174.541 170.889 174.649 170.734 174.738L168.723 175.899L165.993 174.322V173.204Z" fill="white" fill-opacity="0.2"/>
<path d="M140.048 196.322C139.56 196.604 139.006 196.794 138.387 196.892C137.775 196.986 137.139 197.004 136.481 196.946C135.83 196.884 135.187 196.754 134.552 196.557C133.917 196.36 133.336 196.11 132.809 195.806C132.282 195.501 131.852 195.168 131.519 194.806C131.186 194.435 130.973 194.066 130.88 193.699C130.787 193.323 130.826 192.961 130.996 192.612C131.167 192.254 131.496 191.934 131.984 191.653C132.472 191.371 133.022 191.183 133.634 191.089C134.246 190.986 134.873 190.964 135.516 191.022C136.159 191.071 136.798 191.194 137.434 191.391C138.069 191.579 138.65 191.825 139.177 192.129C139.735 192.451 140.18 192.807 140.513 193.196C140.854 193.58 141.067 193.972 141.152 194.37L143.209 194.363L143.221 195.041H141.152C141.044 195.533 140.676 195.96 140.048 196.322ZM139.212 195.826C139.599 195.602 139.847 195.343 139.955 195.047L138.642 195.041L138.654 194.363L139.92 194.37C139.719 193.815 139.138 193.261 138.177 192.706C137.705 192.433 137.225 192.214 136.737 192.049C136.256 191.879 135.784 191.767 135.319 191.713C134.854 191.659 134.412 191.668 133.994 191.74C133.568 191.807 133.181 191.941 132.832 192.142C132.491 192.339 132.263 192.561 132.147 192.807C132.023 193.048 132.007 193.303 132.1 193.571C132.193 193.84 132.383 194.115 132.669 194.397C132.956 194.678 133.336 194.956 133.808 195.229C134.281 195.501 134.761 195.725 135.249 195.9C135.745 196.069 136.229 196.184 136.702 196.242C137.166 196.295 137.616 196.291 138.05 196.228C138.476 196.161 138.863 196.027 139.212 195.826ZM137.528 188.68L145.22 193.122L144.302 193.652L136.61 189.21L137.528 188.68ZM143.698 185.118L144.523 185.594L142.338 186.855L149.206 190.82L148.276 191.357L141.409 187.392L139.224 188.653L138.399 188.177L143.698 185.118ZM145.924 183.832L154.093 186.536L154.116 186.523L149.538 181.746L150.839 180.994L158.532 185.436L157.614 185.966L151.374 182.363L151.339 182.383L155.778 187.026L154.965 187.496L146.9 184.946L146.877 184.96L153.117 188.562L152.199 189.092L144.506 184.651L145.924 183.832ZM156.882 177.506L157.707 177.982L153.977 180.135L156.464 181.571L159.973 179.545L160.798 180.021L157.289 182.048L160.02 183.624L163.913 181.377L164.738 181.853L159.927 184.63L152.234 180.189L156.882 177.506ZM162.885 174.04L163.71 174.516L159.98 176.67L162.467 178.105L165.976 176.079L166.801 176.556L163.292 178.582L166.023 180.158L169.916 177.911L170.741 178.387L165.93 181.165L158.237 176.723L162.885 174.04ZM164.24 173.257L167.506 171.372C167.769 171.22 168.075 171.119 168.424 171.07C168.772 171.021 169.121 171.012 169.469 171.043C169.818 171.066 170.155 171.122 170.48 171.211C170.798 171.296 171.065 171.401 171.282 171.526C171.491 171.647 171.677 171.786 171.84 171.942C172.003 172.099 172.13 172.258 172.223 172.419C172.309 172.575 172.351 172.73 172.351 172.882C172.343 173.029 172.278 173.157 172.154 173.264C172.611 173.099 173.033 173.056 173.42 173.137C173.8 173.213 174.152 173.345 174.478 173.532L175.93 174.371C176.139 174.492 176.349 174.577 176.558 174.626C176.767 174.675 176.961 174.698 177.139 174.693L176.093 175.297C176 175.297 175.903 175.286 175.802 175.263C175.709 175.237 175.617 175.205 175.524 175.169C175.423 175.129 175.33 175.089 175.245 175.049C175.159 174.999 175.086 174.957 175.024 174.921L173.537 174.062C173.42 173.995 173.289 173.942 173.141 173.901C172.986 173.857 172.824 173.834 172.653 173.834C172.483 173.825 172.309 173.841 172.13 173.881C171.945 173.917 171.762 173.986 171.584 174.089L169.551 175.263L172.851 177.169L171.933 177.699L164.24 173.257ZM168.714 174.78L170.724 173.62C170.879 173.53 170.98 173.423 171.027 173.298C171.081 173.168 171.089 173.038 171.05 172.908C171.019 172.774 170.945 172.642 170.829 172.513C170.721 172.378 170.585 172.264 170.422 172.17C170.267 172.081 170.081 172.009 169.865 171.956C169.64 171.898 169.411 171.864 169.179 171.855C168.947 171.837 168.726 171.844 168.517 171.875C168.307 171.907 168.133 171.963 167.994 172.043L165.983 173.204L168.714 174.78Z" fill="#A8A8A8"/>
<path fill-rule="evenodd" clip-rule="evenodd" d="M164.84 214.441C163.771 213.824 163.236 213.014 163.236 212.205V213.323C163.236 214.133 163.771 214.942 164.84 215.559V214.441Z" fill="white" fill-opacity="0.2"/>
<path fill-rule="evenodd" clip-rule="evenodd" d="M163.236 212.205C163.236 211.396 163.771 210.586 164.84 209.969L195.828 192.078C197.967 190.843 201.435 190.843 203.574 192.078C204.601 192.671 205.135 193.44 205.176 194.217V195.335C205.135 194.559 204.601 193.789 203.574 193.196C201.435 191.961 197.967 191.961 195.828 193.196L164.84 211.087C163.771 211.704 163.236 212.514 163.236 213.323V212.205Z" fill="white" fill-opacity="0.2"/>
<path fill-rule="evenodd" clip-rule="evenodd" d="M205.168 194.217C205.212 195.059 204.678 195.908 203.566 196.551L172.579 214.441C170.439 215.676 166.971 215.676 164.832 214.441V215.56C166.971 216.795 170.439 216.795 172.579 215.56L203.566 197.669C204.678 197.027 205.212 196.177 205.168 195.335V194.217Z" fill="white" fill-opacity="0.2"/>
<path d="M164.842 214.441C162.703 213.206 162.703 211.204 164.842 209.969L195.83 192.078C197.969 190.843 201.437 190.843 203.577 192.078C205.716 193.313 205.716 195.316 203.577 196.551L172.589 214.441C170.45 215.677 166.982 215.677 164.842 214.441Z" fill="#A8A8A8"/>
<path fill-rule="evenodd" clip-rule="evenodd" d="M175.228 220.688C174.693 220.379 174.425 219.974 174.425 219.57V220.688C174.425 221.092 174.693 221.497 175.228 221.806V220.688Z" fill="white" fill-opacity="0.2"/>
<path fill-rule="evenodd" clip-rule="evenodd" d="M174.425 219.57C174.425 219.165 174.693 218.76 175.228 218.451L190.721 209.506C191.791 208.888 193.525 208.888 194.595 209.506C195.13 209.815 195.397 210.219 195.397 210.624V211.742C195.397 211.338 195.13 210.933 194.595 210.624C193.525 210.007 191.791 210.007 190.721 210.624L175.228 219.57C174.693 219.878 174.425 220.283 174.425 220.688V219.57Z" fill="white" fill-opacity="0.2"/>
<path fill-rule="evenodd" clip-rule="evenodd" d="M195.405 210.624C195.405 211.029 195.138 211.433 194.603 211.742L179.109 220.688C178.04 221.305 176.305 221.305 175.236 220.688V221.806C176.305 222.423 178.04 222.423 179.109 221.806L194.603 212.86C195.138 212.552 195.405 212.147 195.405 211.742V210.624Z" fill="white" fill-opacity="0.2"/>
<path d="M175.229 220.687C174.159 220.07 174.159 219.069 175.229 218.451L190.723 209.506C191.792 208.888 193.527 208.888 194.596 209.506C195.666 210.123 195.666 211.124 194.596 211.742L179.103 220.687C178.033 221.305 176.299 221.305 175.229 220.687Z" fill="#A8A8A8"/>
<path fill-rule="evenodd" clip-rule="evenodd" d="M366.482 22.7493L376.954 50.4619L378.891 49.3438L368.418 21.6311L366.482 22.7493Z" fill="white" fill-opacity="0.2" stroke="white" stroke-width="0.335449" stroke-linejoin="round"/>
<path fill-rule="evenodd" clip-rule="evenodd" d="M376.953 50.4619L366.481 51.4697L355.572 38.1172L366.481 22.7493L368.417 21.6311L357.508 36.999L368.417 50.3516L378.89 49.3437L376.953 50.4619Z" fill="white" fill-opacity="0.2" stroke="white" stroke-width="0.335449" stroke-linejoin="round"/>
<path fill-rule="evenodd" clip-rule="evenodd" d="M366.484 63.0587L356.448 41.6443L358.384 40.5261L368.42 61.9405L366.484 63.0587Z" fill="white" fill-opacity="0.2" stroke="white" stroke-width="0.335449" stroke-linejoin="round"/>
<path fill-rule="evenodd" clip-rule="evenodd" d="M356.448 41.6443L366.484 54.493L376.956 53.4852L366.484 63.0587L368.42 61.9405L378.893 52.367L368.42 53.3748L358.384 40.5261L356.448 41.6443Z" fill="white" fill-opacity="0.2" stroke="white" stroke-width="0.335449" stroke-linejoin="round"/>
<path d="M355.574 38.1173L366.483 22.7493L376.955 50.462L366.483 51.4698L355.574 38.1173ZM366.483 63.0587L356.447 41.6443L366.483 54.493L376.955 53.4852L366.483 63.0587Z" fill="#0E0E0E" stroke="white" stroke-width="0.335449"/>
<path fill-rule="evenodd" clip-rule="evenodd" d="M200.403 160.898L207.182 149.717L237.685 132.106L235.748 130.987L205.245 148.599L198.466 159.78L200.403 160.898Z" fill="white" fill-opacity="0.4" stroke="white" stroke-width="0.223633" stroke-linejoin="round"/>
<path fill-rule="evenodd" clip-rule="evenodd" d="M237.685 132.106L231.875 142.728L200.403 160.898L198.466 159.78L229.938 141.61L235.748 130.987L237.685 132.106Z" fill="white" fill-opacity="0.4" stroke="white" stroke-width="0.223633" stroke-linejoin="round"/>
<path d="M200.408 160.898L207.187 149.717L237.69 132.106L231.88 142.728L200.408 160.898Z" fill="#0E0E0E" stroke="white" stroke-width="0.223633"/>
<path fill-rule="evenodd" clip-rule="evenodd" d="M207.182 144.685L200.403 141.33L198.466 140.212L205.245 143.566L207.182 144.685Z" fill="white" fill-opacity="0.4" stroke="white" stroke-width="0.223633" stroke-linejoin="round"/>
<path fill-rule="evenodd" clip-rule="evenodd" d="M200.403 141.33L230.906 123.719L237.201 126.794L235.264 125.676L228.969 122.601L198.466 140.212L200.403 141.33Z" fill="white" fill-opacity="0.4" stroke="white" stroke-width="0.223633" stroke-linejoin="round"/>
<path fill-rule="evenodd" clip-rule="evenodd" d="M237.199 126.794L207.18 144.685L205.243 143.566L235.262 125.676L237.199 126.794Z" fill="white" fill-opacity="0.4" stroke="white" stroke-width="0.223633" stroke-linejoin="round"/>
<path d="M207.187 144.685L200.408 141.33L230.911 123.719L237.206 126.794L207.187 144.685Z" fill="#0E0E0E" stroke="white" stroke-width="0.223633"/>
<path fill-rule="evenodd" clip-rule="evenodd" d="M199.852 136.299L206.63 125.117L237.617 107.226L235.681 106.108L204.693 123.999L197.915 135.18L199.852 136.299Z" fill="white" fill-opacity="0.4" stroke="white" stroke-width="0.223633" stroke-linejoin="round"/>
<path fill-rule="evenodd" clip-rule="evenodd" d="M237.617 107.226L231.807 117.849L199.852 136.299L197.915 135.18L229.871 116.731L235.681 106.108L237.617 107.226Z" fill="white" fill-opacity="0.4" stroke="white" stroke-width="0.223633" stroke-linejoin="round"/>
<path d="M199.85 136.299L206.629 125.117L237.616 107.226L231.806 117.849L199.85 136.299Z" fill="#0E0E0E" stroke="white" stroke-width="0.223633"/>
<path fill-rule="evenodd" clip-rule="evenodd" d="M312.361 72.8079L315.919 82.6817L317.56 81.7343L314.001 71.8606L312.361 72.8079Z" fill="white" fill-opacity="0.2" stroke="white" stroke-width="0.335449" stroke-linejoin="round"/>
<path fill-rule="evenodd" clip-rule="evenodd" d="M315.918 82.6817L308.8 78.5722L312.359 72.8079L314 71.8606L310.441 77.6249L317.559 81.7343L315.918 82.6817Z" fill="white" fill-opacity="0.2" stroke="white" stroke-width="0.335449" stroke-linejoin="round"/>
<path d="M308.803 78.5722L312.362 72.8079L315.921 82.6816L308.803 78.5722Z" fill="#0E0E0E" stroke="white" stroke-width="0.335449"/>
<path fill-rule="evenodd" clip-rule="evenodd" d="M306.576 60.0923L310.135 69.3646L304.288 77.7175L305.929 76.7702L311.776 68.4173L308.217 59.145L306.576 60.0923Z" fill="white" fill-opacity="0.2" stroke="white" stroke-width="0.335449" stroke-linejoin="round"/>
<path fill-rule="evenodd" clip-rule="evenodd" d="M304.293 77.7175L297.43 73.7549L306.581 60.0923L308.222 59.145L299.071 72.8076L305.934 76.7702L304.293 77.7175Z" fill="white" fill-opacity="0.2" stroke="white" stroke-width="0.335449" stroke-linejoin="round"/>
<path d="M297.434 73.7552L306.585 60.0927L310.144 69.365L304.297 77.7178L297.434 73.7552Z" fill="#0E0E0E" stroke="white" stroke-width="0.335449"/>
<path d="M418.284 108.942C418.284 109.961 417.459 110.787 416.44 110.787C415.421 110.787 414.595 109.961 414.595 108.942C414.595 107.924 415.421 107.098 416.44 107.098C417.459 107.098 418.284 107.924 418.284 108.942Z" fill="#ACFF43" stroke="white" stroke-width="0.461181"/>
<path d="M409.535 90.7191C409.535 91.3557 409.019 91.8719 408.382 91.8719C407.745 91.8719 407.229 91.3557 407.229 90.7191C407.229 90.0824 407.745 89.5663 408.382 89.5663C409.019 89.5663 409.535 90.0824 409.535 90.7191Z" fill="#ACFF43" stroke="white" stroke-width="0.461181"/>
<path d="M424.755 95.5564V97.7468M424.755 99.9372V97.7468M424.755 97.7468H426.6H422.68" stroke="white" stroke-width="0.368944" stroke-linecap="round"/>
<path d="M427.983 117.24C427.983 118.259 427.157 119.085 426.138 119.085C425.12 119.085 424.294 118.259 424.294 117.24C424.294 116.221 425.12 115.396 426.138 115.396C427.157 115.396 427.983 116.221 427.983 117.24Z" fill="#ACFF43" stroke="white" stroke-width="0.461181"/>
<path d="M416.462 99.9464V107.094M418.306 108.938H424.762M416.462 110.783V117.469M414.617 108.938H408.161" stroke="white" stroke-width="0.368944" stroke-linecap="round"/>
<path d="M133.367 94.0736C133.367 94.7102 132.851 95.2264 132.214 95.2264C131.577 95.2264 131.061 94.7102 131.061 94.0736C131.061 93.4369 131.577 92.9208 132.214 92.9208C132.851 92.9208 133.367 93.4369 133.367 94.0736Z" fill="#ACFF43" stroke="white" stroke-width="0.461181"/>
<path d="M155.29 102.266V104.456M155.29 106.646V104.456M155.29 104.456H157.135H153.215" stroke="white" stroke-width="0.368944" stroke-linecap="round"/>
<path d="M158.518 123.949C158.518 124.968 157.692 125.793 156.673 125.793C155.655 125.793 154.829 124.968 154.829 123.949C154.829 122.93 155.655 122.104 156.673 122.104C157.692 122.104 158.518 122.93 158.518 123.949Z" fill="#ACFF43" stroke="white" stroke-width="0.461181"/>
<path d="M143.443 119.686C143.443 121.849 141.69 123.602 139.526 123.602C137.363 123.602 135.609 121.849 135.609 119.686C135.609 117.523 137.363 115.769 139.526 115.769C141.69 115.769 143.443 117.523 143.443 119.686Z" fill="#ACFF43" stroke="white" stroke-width="0.979285"/>
<path d="M139.574 104.99V115.761M143.491 119.677H152.794M139.574 123.594V133.386M135.657 119.677H126.354" stroke="white" stroke-width="0.783427" stroke-linecap="round"/>
<path d="M366.857 263.313C366.857 264.331 366.031 265.157 365.012 265.157C363.994 265.157 363.168 264.331 363.168 263.313C363.168 262.294 363.994 261.468 365.012 261.468C366.031 261.468 366.857 262.294 366.857 263.313Z" fill="#ACFF43" stroke="white" stroke-width="0.461181"/>
<path d="M364.811 243.972C364.811 244.608 364.294 245.124 363.658 245.124C363.021 245.124 362.505 244.608 362.505 243.972C362.505 243.335 363.021 242.819 363.658 242.819C364.294 242.819 364.811 243.335 364.811 243.972Z" fill="#ACFF43" stroke="white" stroke-width="0.461181"/>
<path d="M380.031 248.809V250.999M380.031 253.19V250.999M380.031 250.999H381.876H377.956" stroke="white" stroke-width="0.368944" stroke-linecap="round"/>
<path d="M378.798 270.493C378.798 271.511 377.972 272.337 376.954 272.337C375.935 272.337 375.109 271.511 375.109 270.493C375.109 269.474 375.935 268.648 376.954 268.648C377.972 268.648 378.798 269.474 378.798 270.493Z" fill="#ACFF43" stroke="white" stroke-width="0.461181"/>
<path d="M365.034 254.317V261.465M366.879 263.309H373.335M365.034 265.154V271.84M363.19 263.309H356.733" stroke="white" stroke-width="0.368944" stroke-linecap="round"/>
<path d="M62.6115 155.371L62.6114 207.925" stroke="url(#paint7_linear_3_91)" stroke-opacity="0.7" stroke-width="0.881312"/>
<path d="M109.574 193.389L109.574 239.234" stroke="url(#paint8_linear_3_91)" stroke-width="0.881312"/>
<path d="M119.641 145.307L119.641 183.325" stroke="url(#paint9_linear_3_91)" stroke-width="0.881312"/>
<defs>
<clipPath id="bgblur_0_3_91_clip_path" transform="translate(-328.078 -89.2966)"><path fill-rule="evenodd" clip-rule="evenodd" d="M349.362 115.817C354.952 112.183 362.889 112.48 371.692 117.562C388.62 127.336 402.343 151.106 402.343 170.653C402.343 180.036 399.182 186.741 394.021 190.096L398.863 187.3C404.023 183.945 407.185 177.241 407.185 167.858C407.185 148.31 393.462 124.541 376.533 114.767C367.73 109.684 359.794 109.387 354.204 113.022L349.362 115.817Z"/>
</clipPath><clipPath id="bgblur_1_3_91_clip_path" transform="translate(-319.89 -92.2244)"><path d="M402.066 170.653C402.066 180.368 398.658 187.12 393.228 190.255C387.798 193.39 380.247 192.966 371.833 188.108C363.421 183.252 355.79 174.907 350.261 165.33C344.732 155.754 341.321 144.973 341.321 135.259C341.321 125.544 344.729 118.792 350.159 115.657C355.589 112.522 363.14 112.947 371.554 117.804C379.965 122.661 387.597 131.006 393.126 140.582C398.654 150.159 402.066 160.94 402.066 170.653Z"/>
</clipPath><clipPath id="bgblur_2_3_91_clip_path" transform="translate(-324.722 20.2838)"><path fill-rule="evenodd" clip-rule="evenodd" d="M346.006 6.23658C351.597 2.60226 359.533 2.89936 368.336 7.98174C385.264 17.7556 398.987 41.5253 398.987 61.0729C398.987 70.4558 395.826 77.1604 390.665 80.5151L395.507 77.7197C400.667 74.3649 403.829 67.6603 403.829 58.2775C403.829 38.7299 390.106 14.9601 373.177 5.18631C364.374 0.103932 356.438 -0.193167 350.848 3.44115L346.006 6.23658Z"/>
</clipPath><clipPath id="bgblur_3_3_91_clip_path" transform="translate(-316.53 17.3559)"><path d="M398.706 61.0731C398.706 70.7881 395.298 77.5401 389.868 80.6751C384.438 83.8101 376.887 83.3856 368.474 78.5281C360.062 73.6715 352.431 65.3264 346.902 55.75C341.373 46.1736 337.961 35.3922 337.961 25.679C337.961 15.964 341.369 9.21203 346.799 6.07703C352.229 2.94203 359.781 3.36654 368.194 8.22404C376.606 13.0806 384.237 21.4257 389.766 31.0021C395.295 40.5785 398.706 51.3599 398.706 61.0731Z"/>
</clipPath><clipPath id="bgblur_4_3_91_clip_path" transform="translate(-268.894 -17.7342)"><path fill-rule="evenodd" clip-rule="evenodd" d="M290.178 42.8971C294.319 40.2049 300.198 40.425 306.719 44.1899C319.26 51.4301 329.425 69.0381 329.425 83.5185C329.425 90.469 327.083 95.4356 323.26 97.9207L326.847 95.85C330.67 93.3648 333.012 88.3983 333.012 81.4477C333.012 66.9673 322.846 49.3593 310.306 42.1191C303.785 38.3542 297.906 38.1341 293.765 40.8263L290.178 42.8971Z"/>
</clipPath><clipPath id="bgblur_5_3_91_clip_path" transform="translate(-262.862 -19.9372)"><path d="M329.146 83.5184C329.146 90.6998 326.628 95.6715 322.635 97.9763C318.643 100.281 313.079 99.9765 306.859 96.3858C300.642 92.796 294.997 86.6248 290.906 79.5389C286.815 72.4531 284.293 64.4789 284.293 57.2993C284.293 50.118 286.812 45.1463 290.804 42.8415C294.796 40.5366 300.361 40.8412 306.58 44.4319C312.797 48.0217 318.442 54.193 322.533 61.2788C326.624 68.3646 329.146 76.3388 329.146 83.5184Z"/>
</clipPath><clipPath id="bgblur_6_3_91_clip_path" transform="translate(-153.142 -59.1063)"><path fill-rule="evenodd" clip-rule="evenodd" d="M191.989 184.194C184.249 180.255 179.416 171.11 179.416 157.871C179.416 132.412 197.289 101.453 219.338 88.7236C230.362 82.3588 240.342 81.7562 247.567 85.9273L242.576 83.0462C235.352 78.8751 225.371 79.4777 214.347 85.8425C192.299 98.5722 174.425 129.53 174.425 154.99C174.425 168.229 179.258 177.374 186.998 181.313L191.989 184.194Z"/>
</clipPath><clipPath id="bgblur_7_3_91_clip_path" transform="translate(-158.268 -62.1198)"><path d="M258.822 111.773C258.822 124.407 254.385 138.436 247.189 150.9C239.993 163.364 230.062 174.221 219.121 180.539C208.177 186.857 198.373 187.399 191.333 183.335C184.293 179.27 179.86 170.508 179.86 157.871C179.86 145.237 184.298 131.208 191.494 118.744C198.69 106.28 208.62 95.4224 219.562 89.1054C230.505 82.7869 240.31 82.2444 247.35 86.309C254.39 90.3736 258.822 99.1359 258.822 111.773Z"/>
</clipPath><clipPath id="bgblur_8_3_91_clip_path" transform="translate(-167.204 -71.676)"><path d="M253.706 118.855C252.761 129.744 248.258 141.524 241.733 151.763C235.207 162.004 226.674 170.68 217.693 175.38C208.711 180.079 201.036 179.891 195.85 175.905C190.653 171.911 187.856 164.033 188.801 153.138C189.746 142.249 194.249 130.469 200.775 120.229C207.3 109.988 215.833 101.313 224.815 96.613C233.797 91.9132 241.471 92.1018 246.657 96.0875C251.854 100.081 254.652 107.959 253.706 118.855Z"/>
</clipPath><clipPath id="bgblur_9_3_91_clip_path" transform="translate(-205.708 -158.687)"><path d="M263.56 187.929C247.078 197.445 233.717 220.587 233.717 239.618C233.717 243.277 234.211 246.517 235.126 249.297L231.465 251.308C228.629 247.673 226.992 242.397 226.992 235.735C226.992 216.704 240.353 193.562 256.835 184.046C264.746 179.479 271.938 178.881 277.278 181.599L284.004 185.482C278.663 182.764 271.471 183.361 263.56 187.929Z"/>
</clipPath><clipPath id="bgblur_10_3_91_clip_path" transform="translate(-212.13 -162.26)"><path d="M263.565 187.929C247.083 197.444 233.723 220.586 233.723 239.618C233.723 243.276 234.216 246.517 235.131 249.297L291.971 216.579C292.904 212.704 293.407 208.854 293.407 205.158C293.407 186.127 280.046 178.413 263.565 187.929Z"/>
</clipPath><clipPath id="bgblur_11_3_91_clip_path" transform="translate(-218.964 -168.221)"><path d="M240.392 239.82C240.608 231.114 243.592 221.521 248.25 213.051C252.91 204.581 259.23 197.26 266.095 193.081C272.961 188.902 279.015 188.682 283.288 191.582C287.572 194.49 290.168 200.603 289.952 209.316C289.88 212.215 289.501 215.213 288.855 218.236L240.73 245.79C240.457 243.964 240.339 241.97 240.392 239.82Z"/>
</clipPath><linearGradient id="paint0_linear_3_91" x1="250.971" y1="66.9724" x2="250.971" y2="112.817" gradientUnits="userSpaceOnUse">
<stop stop-color="white"/>
<stop offset="0.680302" stop-color="white" stop-opacity="0.43658"/>
<stop offset="1" stop-color="white" stop-opacity="0"/>
</linearGradient>
<linearGradient id="paint1_linear_3_91" x1="323.649" y1="163.198" x2="323.649" y2="201.216" gradientUnits="userSpaceOnUse">
<stop stop-color="white"/>
<stop offset="0.680302" stop-color="white" stop-opacity="0.43658"/>
<stop offset="1" stop-color="white" stop-opacity="0"/>
</linearGradient>
<linearGradient id="paint2_linear_3_91" x1="391.859" y1="103.872" x2="391.859" y2="141.89" gradientUnits="userSpaceOnUse">
<stop stop-color="white"/>
<stop offset="0.680302" stop-color="white" stop-opacity="0.43658"/>
<stop offset="1" stop-color="white" stop-opacity="0"/>
</linearGradient>
<linearGradient id="paint3_linear_3_91" x1="296.316" y1="15.5364" x2="296.316" y2="330.502" gradientUnits="userSpaceOnUse">
<stop stop-color="#ACFF43" stop-opacity="0.9"/>
<stop offset="1" stop-color="#ACFF43" stop-opacity="0"/>
</linearGradient>
<linearGradient id="paint4_linear_3_91" x1="228.948" y1="202.334" x2="228.948" y2="363.351" gradientUnits="userSpaceOnUse">
<stop stop-color="#0F1110"/>
<stop offset="1" stop-color="#1B2213"/>
</linearGradient>
<linearGradient id="paint5_linear_3_91" x1="235.371" y1="145.803" x2="191.763" y2="243.084" gradientUnits="userSpaceOnUse">
<stop stop-color="#ACFF43" stop-opacity="0"/>
<stop offset="1" stop-color="#ACFF43" stop-opacity="0.9"/>
</linearGradient>
<linearGradient id="paint6_linear_3_91" x1="308.444" y1="241.47" x2="308.444" y2="374.532" gradientUnits="userSpaceOnUse">
<stop stop-color="#0E0E0E"/>
<stop offset="1" stop-color="#1A2012"/>
</linearGradient>
<linearGradient id="paint7_linear_3_91" x1="63.1115" y1="155.371" x2="63.1114" y2="207.925" gradientUnits="userSpaceOnUse">
<stop stop-color="white"/>
<stop offset="0.680302" stop-color="white" stop-opacity="0.43658"/>
<stop offset="1" stop-color="white" stop-opacity="0"/>
</linearGradient>
<linearGradient id="paint8_linear_3_91" x1="110.074" y1="193.389" x2="110.074" y2="239.234" gradientUnits="userSpaceOnUse">
<stop stop-color="white"/>
<stop offset="0.680302" stop-color="white" stop-opacity="0.43658"/>
<stop offset="1" stop-color="white" stop-opacity="0"/>
</linearGradient>
<linearGradient id="paint9_linear_3_91" x1="120.141" y1="145.307" x2="120.141" y2="183.325" gradientUnits="userSpaceOnUse">
<stop stop-color="white"/>
<stop offset="0.680302" stop-color="white" stop-opacity="0.43658"/>
<stop offset="1" stop-color="white" stop-opacity="0"/>
</linearGradient>
</defs>
</svg>
