<svg width="362" height="491" viewBox="0 0 362 491" fill="none" xmlns="http://www.w3.org/2000/svg">
<path d="M44.7884 287C44.7884 289.176 43.024 290.94 40.8475 290.94C38.671 290.94 36.9067 289.176 36.9067 287C36.9067 284.823 38.671 283.059 40.8475 283.059C43.024 283.059 44.7884 284.823 44.7884 287Z" fill="#ACFF43" stroke="white" stroke-width="0.985266"/>
<path d="M40.8942 273.102V283.051M44.8351 286.992H54.1946M40.8942 290.933V300.784M36.9533 286.992H27.5938" stroke="white" stroke-width="0.788212" stroke-linecap="round"/>
<path d="M230.656 318.323V370.195" stroke="url(#paint0_linear_1_11318)" stroke-width="0.886695"/>
<path d="M126.906 379.505V431.376" stroke="url(#paint1_linear_1_11318)" stroke-width="0.886695"/>
<path fill-rule="evenodd" clip-rule="evenodd" d="M2.89635 151.772C2.89635 105.952 80.4955 69.3681 176.219 70.0584C271.943 70.7487 349.542 108.452 349.542 154.272L348.52 178.446C348.52 132.626 270.921 94.923 175.198 94.2327C79.4742 93.5424 1.875 130.127 1.875 175.946L2.89635 151.772Z" fill="url(#paint2_linear_1_11318)" stroke="white" stroke-width="0.506247"/>
<path fill-rule="evenodd" clip-rule="evenodd" d="M2.02159 273.248C2.02159 227.429 79.6208 190.845 175.344 191.535C271.068 192.225 348.667 229.929 348.667 275.748L347.646 299.922C347.646 254.103 270.047 216.4 174.323 215.709C78.5994 215.019 1.00024 251.603 1.00024 297.423L2.02159 273.248Z" fill="url(#paint3_linear_1_11318)" stroke="white" stroke-width="0.506247"/>
<path fill-rule="evenodd" clip-rule="evenodd" d="M285.453 366.535C283.563 366.867 281.579 366.813 279.532 366.331C266.743 363.318 256.375 344.702 256.375 324.753C256.375 307.995 263.69 295.627 273.612 293.884L280.503 292.819C270.581 294.562 263.266 306.931 263.266 323.688C263.266 343.638 273.634 362.253 286.423 365.267C288.47 365.749 290.454 365.802 292.344 365.47L285.453 366.535Z" fill="#0E0E0E" stroke="white" stroke-width="0.266008" stroke-linejoin="round"/>
<g filter="url(#filter0_b_1_11318)">
<path fill-rule="evenodd" clip-rule="evenodd" d="M273.617 293.884C275.507 293.552 277.491 293.606 279.537 294.088C292.327 297.102 302.695 315.717 302.695 335.666C302.695 352.424 295.379 364.792 285.458 366.535L292.349 365.47C302.27 363.728 309.586 351.359 309.586 334.602C309.586 314.652 299.218 296.037 286.428 293.023C284.382 292.541 282.398 292.487 280.508 292.819L273.617 293.884Z" fill="white" fill-opacity="0.1"/>
<path fill-rule="evenodd" clip-rule="evenodd" d="M273.617 293.884C275.507 293.552 277.491 293.606 279.537 294.088C292.327 297.102 302.695 315.717 302.695 335.666C302.695 352.424 295.379 364.792 285.458 366.535L292.349 365.47C302.27 363.728 309.586 351.359 309.586 334.602C309.586 314.652 299.218 296.037 286.428 293.023C284.382 292.541 282.398 292.487 280.508 292.819L273.617 293.884Z" stroke="white" stroke-width="0.266008" stroke-linejoin="round"/>
</g>
<g filter="url(#filter1_b_1_11318)">
<path d="M302.69 335.666C302.69 355.615 292.322 369.345 279.532 366.331C266.743 363.318 256.375 344.702 256.375 324.753C256.375 304.803 266.743 291.074 279.532 294.088C292.322 297.101 302.69 315.717 302.69 335.666Z" fill="white" fill-opacity="0.1"/>
<path d="M302.69 335.666C302.69 355.615 292.322 369.345 279.532 366.331C266.743 363.318 256.375 344.702 256.375 324.753C256.375 304.803 266.743 291.074 279.532 294.088C292.322 297.101 302.69 315.717 302.69 335.666Z" stroke="white" stroke-width="0.709356" stroke-linejoin="round"/>
</g>
<g filter="url(#filter2_b_1_11318)">
<path d="M296.276 334.862C296.276 351.565 288.138 363.06 278.099 360.537C268.06 358.014 259.922 342.428 259.922 325.724C259.922 309.021 268.06 297.526 278.099 300.049C288.138 302.573 296.276 318.159 296.276 334.862Z" fill="#0E0E0E" fill-opacity="0.1"/>
<path d="M296.099 334.862C296.099 343.188 294.07 350.198 290.807 354.807C287.548 359.41 283.072 361.604 278.142 360.365C273.193 359.121 268.681 354.645 265.403 348.366C262.127 342.093 260.099 334.049 260.099 325.724C260.099 317.398 262.128 310.388 265.39 305.78C268.65 301.176 273.126 298.982 278.056 300.221C283.005 301.465 287.516 305.941 290.795 312.22C294.07 318.493 296.099 326.537 296.099 334.862Z" stroke="white" stroke-width="0.354678"/>
</g>
<g filter="url(#filter3_b_1_11318)">
<path fill-rule="evenodd" clip-rule="evenodd" d="M67.2212 397.866C50.4675 391.198 39.1384 372.486 39.1384 347.277C39.1384 310.204 63.639 273.12 93.862 264.447C103.533 261.671 112.619 262.141 120.503 265.279L106.2 259.449C98.3163 256.312 89.2309 255.842 79.5595 258.617C49.3365 267.29 24.8359 304.375 24.8359 341.447C24.8359 366.656 36.165 385.369 52.9187 392.036L67.2212 397.866Z" fill="white" fill-opacity="0.1"/>
<path fill-rule="evenodd" clip-rule="evenodd" d="M67.2212 397.866C50.4675 391.198 39.1384 372.486 39.1384 347.277C39.1384 310.204 63.639 273.12 93.862 264.447C103.533 261.671 112.619 262.141 120.503 265.279L106.2 259.449C98.3163 256.312 89.2309 255.842 79.5595 258.617C49.3365 267.29 24.8359 304.375 24.8359 341.447C24.8359 366.656 36.165 385.369 52.9187 392.036L67.2212 397.866Z" stroke="white" stroke-width="0.234358" stroke-linejoin="round"/>
</g>
<path fill-rule="evenodd" clip-rule="evenodd" d="M120.506 265.279C137.26 271.946 148.589 290.658 148.589 315.868C148.589 352.94 124.088 390.024 93.8652 398.698C84.1939 401.473 75.1085 401.003 67.2244 397.865L52.9219 392.036C60.806 395.173 69.8914 395.644 79.5627 392.868C109.786 384.195 134.286 347.111 134.286 310.038C134.286 284.829 122.957 266.117 106.204 259.449L120.506 265.279Z" fill="#0E0E0E" stroke="white" stroke-width="0.234358" stroke-linejoin="round"/>
<g filter="url(#filter4_b_1_11318)">
<path d="M148.58 315.868C148.58 352.941 124.079 390.025 93.8564 398.698C63.6334 407.372 39.1328 384.35 39.1328 347.277C39.1328 310.205 63.6334 273.121 93.8564 264.447C124.079 255.774 148.58 278.796 148.58 315.868Z" fill="#0E0E0E" fill-opacity="0.1"/>
<path d="M148.189 315.868C148.189 334.322 142.09 352.787 132.226 367.718C122.36 382.651 108.748 394.018 93.7487 398.323C78.7639 402.623 65.227 399.065 55.4284 389.858C45.6208 380.642 39.5234 365.731 39.5234 347.277C39.5234 328.824 45.6223 310.359 55.4869 295.428C65.3532 280.494 78.9647 269.127 93.9641 264.823C108.949 260.522 122.486 264.081 132.284 273.288C142.092 282.504 148.189 297.414 148.189 315.868Z" stroke="white" stroke-width="0.781195"/>
</g>
<g filter="url(#filter5_b_1_11318)">
<path d="M141.238 320.302C141.238 352.012 120.952 383.731 95.9274 391.15C70.9033 398.569 50.6172 378.877 50.6172 347.167C50.6172 315.458 70.9033 283.738 95.9274 276.319C120.952 268.901 141.238 288.593 141.238 320.302Z" fill="#0E0E0E" fill-opacity="0.1"/>
<path d="M141.003 320.302C141.003 336.109 135.946 351.923 127.769 364.709C119.591 377.497 108.304 387.236 95.8608 390.925C83.4278 394.611 72.1887 391.562 64.0515 383.664C55.9079 375.759 50.8515 362.975 50.8515 347.167C50.8515 331.361 55.9084 315.547 64.0857 302.761C72.2643 289.972 83.5507 280.233 95.9941 276.544C108.427 272.858 119.666 275.907 127.803 283.806C135.947 291.711 141.003 304.494 141.003 320.302Z" stroke="white" stroke-width="0.468717"/>
</g>
<path fill-rule="evenodd" clip-rule="evenodd" d="M123.294 360.671L127.284 354.632L121.964 349.633L128.614 324.886L120.634 302.706L116.617 301.068L124.596 323.249L117.947 347.996L123.266 352.995L119.277 359.033L123.294 360.671Z" fill="#0E0E0E" stroke="white" stroke-width="0.234358" stroke-linejoin="round"/>
<g filter="url(#filter6_b_1_11318)">
<path fill-rule="evenodd" clip-rule="evenodd" d="M120.632 302.706L99.3543 297.393L78.0764 314.919L68.7672 343.692L78.0763 367.122L74.0591 365.485L64.75 342.055L74.0592 313.282L95.3371 295.756L116.615 301.069L120.632 302.706Z" fill="#ACFF43" fill-opacity="0.5"/>
<path d="M120.594 302.858L120.691 302.562L116.674 300.924L116.664 300.92L116.653 300.917L95.375 295.604L95.2986 295.585L95.2378 295.635L73.9599 313.161L73.9246 313.19L73.9105 313.233L64.6013 342.007L64.584 342.06L64.6048 342.112L73.9139 365.542L73.9385 365.604L74.0001 365.629L78.0173 367.267L78.3569 367.405L78.2215 367.064L68.9332 343.687L78.211 315.01L99.3929 297.564L120.594 302.858Z" stroke="white" stroke-width="0.312478"/>
</g>
<path fill-rule="evenodd" clip-rule="evenodd" d="M78.0719 367.122L99.3498 370.804L117.968 355.673L113.951 354.035L95.3326 369.166L74.0547 365.485L78.0719 367.122Z" fill="#0E0E0E" stroke="white" stroke-width="0.234358" stroke-linejoin="round"/>
<path fill-rule="evenodd" clip-rule="evenodd" d="M117.978 355.673L123.298 360.671L119.28 359.034L113.961 354.035L117.978 355.673Z" fill="#0E0E0E" stroke="white" stroke-width="0.234358" stroke-linejoin="round"/>
<path fill-rule="evenodd" clip-rule="evenodd" d="M112.669 314.816L99.3699 312.107L86.0712 322.449L80.7516 340.289L86.071 353.445L82.0538 351.807L76.7344 338.652L82.0539 320.812L95.3526 310.47L108.651 313.179L112.669 314.816Z" fill="#0E0E0E" stroke="white" stroke-width="0.234358" stroke-linejoin="round"/>
<path fill-rule="evenodd" clip-rule="evenodd" d="M86.0719 353.445L99.3706 356.153L112.669 345.812L117.989 327.972L112.669 314.816L108.652 313.179L113.972 326.334L108.652 344.174L95.3534 354.516L82.0547 351.807L86.0719 353.445Z" fill="#ACFF43" fill-opacity="0.5" stroke="white" stroke-width="0.234358" stroke-linejoin="round"/>
<g filter="url(#filter7_b_1_11318)">
<path fill-rule="evenodd" clip-rule="evenodd" d="M123.283 360.672L127.272 354.633L121.953 349.634L128.602 324.887L120.623 302.707L99.3449 297.394L78.067 314.919L68.7578 343.692L78.0669 367.122L99.3448 370.804L117.963 355.673L123.283 360.672ZM112.658 345.812L117.977 327.972L112.658 314.816L99.3592 312.107L86.0605 322.449L80.7409 340.289L86.0603 353.445L99.3591 356.154L112.658 345.812Z" fill="#0E0E0E" fill-opacity="0.1"/>
<path d="M123.069 360.899L123.339 361.153L123.543 360.844L127.533 354.805L127.678 354.585L127.486 354.405L122.303 349.534L128.904 324.968L128.929 324.873L128.896 324.781L120.917 302.601L120.86 302.444L120.699 302.403L99.4206 297.09L99.2678 297.052L99.1463 297.152L77.8683 314.678L77.7978 314.736L77.7697 314.823L68.4605 343.596L68.4259 343.703L68.4674 343.808L77.7765 367.238L77.8411 367.4L78.0136 367.43L99.2915 371.112L99.4316 371.136L99.5419 371.046L117.948 356.088L123.069 360.899ZM117.647 327.987L112.387 345.626L99.2806 355.819L86.2871 353.172L81.0716 340.273L86.3313 322.634L99.4376 312.442L112.431 315.089L117.647 327.987Z" stroke="white" stroke-width="0.624956"/>
</g>
<path fill-rule="evenodd" clip-rule="evenodd" d="M239.907 259.145C227.489 265.023 213.18 267.292 197.948 265.016C150.346 257.903 111.758 209.096 111.758 156.002C111.758 119.899 129.601 91.1103 155.988 78.6191L174.855 70.1611C148.468 82.6523 130.625 111.441 130.625 147.544C130.625 200.638 169.213 249.445 216.815 256.558C232.047 258.834 246.356 256.565 258.774 250.687L239.907 259.145Z" fill="#0E0E0E" stroke="white" stroke-width="0.249956" stroke-linejoin="round"/>
<g filter="url(#filter8_b_1_11318)">
<path fill-rule="evenodd" clip-rule="evenodd" d="M156 78.6192C168.417 72.741 182.727 70.4719 197.959 72.7481C245.561 79.8613 284.149 128.668 284.149 181.761C284.149 217.865 266.306 246.654 239.919 259.145L258.786 250.687C285.173 238.196 303.016 209.407 303.016 173.304C303.016 120.21 264.428 71.4033 216.826 64.2901C201.594 62.0139 187.284 64.283 174.867 70.1612L156 78.6192Z" fill="#0E0E0E" fill-opacity="0.2"/>
<path fill-rule="evenodd" clip-rule="evenodd" d="M156 78.6192C168.417 72.741 182.727 70.4719 197.959 72.7481C245.561 79.8613 284.149 128.668 284.149 181.761C284.149 217.865 266.306 246.654 239.919 259.145L258.786 250.687C285.173 238.196 303.016 209.407 303.016 173.304C303.016 120.21 264.428 71.4033 216.826 64.2901C201.594 62.0139 187.284 64.283 174.867 70.1612L156 78.6192Z" stroke="white" stroke-width="0.249956" stroke-linejoin="round"/>
</g>
<g filter="url(#filter9_b_1_11318)">
<path d="M284.137 181.762C284.137 234.855 245.549 272.129 197.948 265.016C150.346 257.903 111.758 209.096 111.758 156.003C111.758 102.909 150.346 65.635 197.948 72.7481C245.549 79.8613 284.137 128.668 284.137 181.762Z" fill="#0E0E0E" fill-opacity="0.1"/>
<path d="M283.721 181.762C283.721 234.65 245.312 271.672 198.009 264.604C150.642 257.526 112.174 208.921 112.174 156.003C112.174 103.114 150.583 66.0916 197.886 73.1602C245.253 80.2384 283.721 128.843 283.721 181.762Z" stroke="white" stroke-width="0.833187"/>
</g>
<g filter="url(#filter10_b_1_11318)">
<path d="M266.729 182.687C266.729 227.834 234.648 259.53 195.075 253.482C155.502 247.433 123.422 205.931 123.422 160.783C123.422 115.636 155.502 83.9404 195.075 89.989C234.648 96.0376 266.729 137.54 266.729 182.687Z" fill="#0E0E0E"/>
<path d="M266.391 182.687C266.391 227.677 234.449 259.158 195.126 253.148C155.747 247.129 123.759 205.795 123.759 160.783C123.759 115.793 155.702 84.3123 195.024 90.3226C234.403 96.3415 266.391 137.675 266.391 182.687Z" stroke="white" stroke-width="0.674996"/>
</g>
<g filter="url(#filter11_b_1_11318)">
<path d="M266.499 183.704C266.499 226.806 235.775 257.066 197.875 251.292C159.974 245.517 129.25 205.895 129.25 162.793C129.25 119.691 159.974 89.4309 197.875 95.2055C235.775 100.98 266.499 140.602 266.499 183.704Z" fill="white" fill-opacity="0.1"/>
<path d="M266.252 183.704C266.252 226.69 235.629 256.794 197.912 251.047C160.153 245.294 129.497 205.795 129.497 162.793C129.497 119.807 160.12 89.7034 197.837 95.4502C235.596 101.203 266.252 140.702 266.252 183.704Z" stroke="white" stroke-width="0.494997"/>
</g>
<g filter="url(#filter12_b_1_11318)">
<path fill-rule="evenodd" clip-rule="evenodd" d="M231.694 223.915L238.092 217.735L229.561 206.946L240.225 175.238L227.428 137.645L193.304 115.895L159.18 127.447L164.721 124.963L198.845 113.411L232.969 135.161L245.766 172.754L235.102 204.462L243.633 215.251L237.235 221.431L231.694 223.915Z" fill="#ACFF43" fill-opacity="0.8"/>
<path d="M232.494 223.374L238.208 217.855L238.316 217.75L238.223 217.632L229.748 206.913L240.383 175.291L240.401 175.237L240.383 175.184L227.586 137.591L227.567 137.536L227.518 137.505L193.394 115.755L193.326 115.712L193.251 115.737L162.446 126.165L164.782 125.118L198.823 113.595L232.831 135.27L245.59 172.754L234.944 204.409L234.915 204.494L234.971 204.565L243.409 215.236L237.14 221.291L232.494 223.374Z" stroke="white" stroke-width="0.333275"/>
</g>
<path fill-rule="evenodd" clip-rule="evenodd" d="M159.187 127.447L144.258 163.275L159.187 203.565L193.311 222.936L198.853 220.452L164.728 201.081L149.799 160.791L164.728 124.963L159.187 127.447Z" fill="#0E0E0E" stroke="white" stroke-width="0.249956" stroke-linejoin="round"/>
<path fill-rule="evenodd" clip-rule="evenodd" d="M193.312 222.936L223.171 213.126L228.712 210.642L198.854 220.452L193.312 222.936Z" fill="#0E0E0E" stroke="white" stroke-width="0.249956" stroke-linejoin="round"/>
<g filter="url(#filter13_b_1_11318)">
<path fill-rule="evenodd" clip-rule="evenodd" d="M223.164 213.126L231.695 223.915L237.236 221.431L228.705 210.642L223.164 213.126Z" fill="#0E0E0E" fill-opacity="0.1"/>
<path d="M236.578 221.27L231.821 223.402L223.823 213.287L228.58 211.154L236.578 221.27Z" stroke="white" stroke-width="0.833187"/>
</g>
<path fill-rule="evenodd" clip-rule="evenodd" d="M214.655 195.256L223.187 172.744L214.655 150.061L193.328 137.359L172 143.687L177.541 141.203L198.869 134.875L220.197 147.577L228.728 170.26L220.196 192.772L214.655 195.256Z" fill="#0E0E0E" stroke="white" stroke-width="0.249956" stroke-linejoin="round"/>
<g filter="url(#filter14_b_1_11318)">
<path fill-rule="evenodd" clip-rule="evenodd" d="M172.016 143.687L163.484 166.199L172.015 188.882L193.343 201.584L214.671 195.256L220.212 192.772L198.884 199.1L177.557 186.398L169.025 163.715L177.557 141.203L172.016 143.687Z" fill="#ACFF43" fill-opacity="0.8"/>
<path d="M198.799 199.243L198.862 199.28L198.932 199.26L217.861 193.644L214.613 195.1L193.366 201.403L172.151 188.769L163.662 166.199L172.147 143.811L177.259 141.519L168.87 163.656L168.847 163.715L168.87 163.774L177.401 186.457L177.421 186.511L177.471 186.541L198.799 199.243Z" stroke="white" stroke-width="0.333275"/>
</g>
<g filter="url(#filter15_b_1_11318)">
<path fill-rule="evenodd" clip-rule="evenodd" d="M231.701 223.916L238.1 217.736L229.569 206.946L240.233 175.238L227.436 137.646L193.312 115.896L159.187 127.447L144.258 163.275L159.187 203.565L193.311 222.937L223.17 213.126L231.701 223.916ZM214.664 195.256L223.195 172.744L214.664 150.061L193.337 137.359L172.009 143.687L163.478 166.199L172.009 188.882L193.337 201.584L214.664 195.256Z" fill="#0E0E0E" fill-opacity="0.1"/>
<path d="M231.44 224.122L231.668 224.411L231.933 224.155L238.331 217.975L238.548 217.766L238.361 217.529L229.942 206.881L240.548 175.344L240.584 175.237L240.548 175.131L227.751 137.538L227.714 137.427L227.615 137.364L193.491 115.614L193.356 115.529L193.205 115.58L159.08 127.132L158.938 127.18L158.88 127.319L143.95 163.147L143.9 163.268L143.945 163.391L158.875 203.681L158.917 203.795L159.023 203.855L193.147 223.226L193.275 223.299L193.416 223.253L223.053 213.515L231.44 224.122ZM222.839 172.744L214.411 194.984L193.382 201.223L172.28 188.656L163.834 166.2L172.262 143.96L193.291 137.72L214.393 150.288L222.839 172.744Z" stroke="white" stroke-width="0.66655"/>
</g>
<path fill-rule="evenodd" clip-rule="evenodd" d="M349.568 154.271L348.547 178.446L349.568 154.271Z" fill="#0E0E0E"/>
<path d="M349.568 154.271V154.271ZM349.568 154.271L348.547 178.446M348.547 178.446V178.446Z" stroke="white" stroke-width="0.266008" stroke-linejoin="round"/>
<path fill-rule="evenodd" clip-rule="evenodd" d="M349.573 154.271C349.573 200.091 271.974 236.675 176.25 235.985C80.5268 235.294 2.9276 197.591 2.9276 151.771L1.90625 175.946C1.90625 221.765 79.5054 259.469 175.229 260.159C270.953 260.849 348.552 224.265 348.552 178.446L349.573 154.271Z" fill="#0E0E0E" stroke="white" stroke-width="0.532017" stroke-linejoin="round"/>
<path fill-rule="evenodd" clip-rule="evenodd" d="M2.9276 151.771L1.90625 175.946L2.9276 151.771Z" fill="#0E0E0E"/>
<path d="M2.9276 151.771V151.771ZM2.9276 151.771L1.90625 175.946M1.90625 175.946V175.946Z" stroke="white" stroke-width="0.266008" stroke-linejoin="round"/>
<path fill-rule="evenodd" clip-rule="evenodd" d="M348.662 275.749L347.641 299.923L348.662 275.749Z" fill="#0E0E0E"/>
<path d="M348.662 275.749V275.749ZM348.662 275.749L347.641 299.923M347.641 299.923V299.923Z" stroke="white" stroke-width="0.266008" stroke-linejoin="round"/>
<path fill-rule="evenodd" clip-rule="evenodd" d="M348.667 275.749C348.667 321.568 271.068 358.153 175.344 357.462C79.6205 356.772 2.02135 319.068 2.02135 273.249L1 297.423C1 343.243 78.5992 380.946 174.323 381.637C270.046 382.327 347.645 345.742 347.645 299.923L348.667 275.749Z" fill="#0E0E0E" stroke="white" stroke-width="0.532017" stroke-linejoin="round"/>
<path fill-rule="evenodd" clip-rule="evenodd" d="M2.02135 273.249L1 297.423L2.02135 273.249Z" fill="#0E0E0E"/>
<path d="M2.02135 273.249V273.249ZM2.02135 273.249L1 297.423M1 297.423V297.423Z" stroke="white" stroke-width="0.266008" stroke-linejoin="round"/>
<path d="M143.312 0V51.8716" stroke="url(#paint4_linear_1_11318)" stroke-width="0.886695"/>
<path d="M80.7969 129.457V181.329" stroke="url(#paint5_linear_1_11318)" stroke-width="0.886695"/>
<path d="M175.68 401.672L175.68 490.341" stroke="url(#paint6_linear_1_11318)" stroke-width="0.886695"/>
<path d="M45.6868 134.488C45.6868 136.664 43.9225 138.428 41.746 138.428C39.5695 138.428 37.8051 136.664 37.8051 134.488C37.8051 132.312 39.5695 130.547 41.746 130.547C43.9225 130.547 45.6868 132.312 45.6868 134.488Z" fill="#ACFF43" stroke="white" stroke-width="0.985266"/>
<path d="M41.7926 120.59V130.54M45.7335 134.48H55.0931M41.7926 138.421V148.272M37.8518 134.48H28.4922" stroke="white" stroke-width="0.788212" stroke-linecap="round"/>
<path d="M253.171 373.01C253.171 375.187 251.407 376.951 249.23 376.951C247.054 376.951 245.29 375.187 245.29 373.01C245.29 370.834 247.054 369.07 249.23 369.07C251.407 369.07 253.171 370.834 253.171 373.01Z" fill="#ACFF43" stroke="white" stroke-width="0.985266"/>
<path d="M249.277 358.225V369.061M253.218 373.002H262.577M249.277 376.942V386.794M245.336 373.002H235.977" stroke="white" stroke-width="0.788212" stroke-linecap="round"/>
<path d="M25.1012 142.613C25.1012 143.701 24.2191 144.583 23.1308 144.583C22.0426 144.583 21.1604 143.701 21.1604 142.613C21.1604 141.525 22.0426 140.643 23.1308 140.643C24.2191 140.643 25.1012 141.525 25.1012 142.613Z" fill="#ACFF43" stroke="white" stroke-width="0.492633"/>
<path d="M23.1639 134.777V140.639M25.1343 142.609H30.2574M23.1639 144.58V149.949M21.1934 142.609H16.0703" stroke="white" stroke-width="0.394106" stroke-linecap="round"/>
<path d="M355.843 218.869C355.843 219.957 354.961 220.839 353.873 220.839C352.785 220.839 351.903 219.957 351.903 218.869C351.903 217.781 352.785 216.899 353.873 216.899C354.961 216.899 355.843 217.781 355.843 218.869Z" fill="#ACFF43" stroke="white" stroke-width="0.492633"/>
<path d="M353.906 211.033V216.895M355.877 218.865H361M353.906 220.835V226.204M351.936 218.865H346.812" stroke="white" stroke-width="0.394106" stroke-linecap="round"/>
<path d="M245.007 40.6434C245.007 41.7315 244.125 42.6137 243.037 42.6137C241.949 42.6137 241.067 41.7315 241.067 40.6434C241.067 39.5552 241.949 38.6731 243.037 38.6731C244.125 38.6731 245.007 39.5552 245.007 40.6434Z" fill="#ACFF43" stroke="white" stroke-width="0.492633"/>
<path d="M243.07 32.8076V38.6692M245.041 40.6395H250.164M243.07 42.6098V47.9789M241.1 40.6395H235.977" stroke="white" stroke-width="0.394106" stroke-linecap="round"/>
<path d="M254.023 293.4C254.023 294.608 253.044 295.588 251.836 295.588C250.628 295.588 249.648 294.608 249.648 293.4C249.648 292.192 250.628 291.213 251.836 291.213C253.044 291.213 254.023 292.192 254.023 293.4Z" fill="#ACFF43" stroke="white" stroke-width="0.546899"/>
<path d="M251.875 284.701V291.208M254.062 293.396H259.75M251.875 295.583V301.544M249.687 293.396H244" stroke="white" stroke-width="0.437519" stroke-linecap="round"/>
<defs>
<filter id="filter0_b_1_11318" x="252.203" y="271.195" width="78.7965" height="116.754" filterUnits="userSpaceOnUse" color-interpolation-filters="sRGB">
<feFlood flood-opacity="0" result="BackgroundImageFix"/>
<feGaussianBlur in="BackgroundImageFix" stdDeviation="10.6403"/>
<feComposite in2="SourceAlpha" operator="in" result="effect1_backgroundBlur_1_11318"/>
<feBlend mode="normal" in="SourceGraphic" in2="effect1_backgroundBlur_1_11318" result="shape"/>
</filter>
<filter id="filter1_b_1_11318" x="234.739" y="272.037" width="89.586" height="116.345" filterUnits="userSpaceOnUse" color-interpolation-filters="sRGB">
<feFlood flood-opacity="0" result="BackgroundImageFix"/>
<feGaussianBlur in="BackgroundImageFix" stdDeviation="10.6403"/>
<feComposite in2="SourceAlpha" operator="in" result="effect1_backgroundBlur_1_11318"/>
<feBlend mode="normal" in="SourceGraphic" in2="effect1_backgroundBlur_1_11318" result="shape"/>
</filter>
<filter id="filter2_b_1_11318" x="238.641" y="278.421" width="78.9159" height="103.743" filterUnits="userSpaceOnUse" color-interpolation-filters="sRGB">
<feFlood flood-opacity="0" result="BackgroundImageFix"/>
<feGaussianBlur in="BackgroundImageFix" stdDeviation="10.6403"/>
<feComposite in2="SourceAlpha" operator="in" result="effect1_backgroundBlur_1_11318"/>
<feBlend mode="normal" in="SourceGraphic" in2="effect1_backgroundBlur_1_11318" result="shape"/>
</filter>
<filter id="filter3_b_1_11318" x="5.97008" y="237.923" width="133.399" height="178.808" filterUnits="userSpaceOnUse" color-interpolation-filters="sRGB">
<feFlood flood-opacity="0" result="BackgroundImageFix"/>
<feGaussianBlur in="BackgroundImageFix" stdDeviation="9.37434"/>
<feComposite in2="SourceAlpha" operator="in" result="effect1_backgroundBlur_1_11318"/>
<feBlend mode="normal" in="SourceGraphic" in2="effect1_backgroundBlur_1_11318" result="shape"/>
</filter>
<filter id="filter4_b_1_11318" x="20.3841" y="243.87" width="146.945" height="175.405" filterUnits="userSpaceOnUse" color-interpolation-filters="sRGB">
<feFlood flood-opacity="0" result="BackgroundImageFix"/>
<feGaussianBlur in="BackgroundImageFix" stdDeviation="9.37434"/>
<feComposite in2="SourceAlpha" operator="in" result="effect1_backgroundBlur_1_11318"/>
<feBlend mode="normal" in="SourceGraphic" in2="effect1_backgroundBlur_1_11318" result="shape"/>
</filter>
<filter id="filter5_b_1_11318" x="31.8685" y="256.007" width="128.118" height="155.455" filterUnits="userSpaceOnUse" color-interpolation-filters="sRGB">
<feFlood flood-opacity="0" result="BackgroundImageFix"/>
<feGaussianBlur in="BackgroundImageFix" stdDeviation="9.37434"/>
<feComposite in2="SourceAlpha" operator="in" result="effect1_backgroundBlur_1_11318"/>
<feBlend mode="normal" in="SourceGraphic" in2="effect1_backgroundBlur_1_11318" result="shape"/>
</filter>
<filter id="filter6_b_1_11318" x="45.6693" y="276.665" width="93.8296" height="109.772" filterUnits="userSpaceOnUse" color-interpolation-filters="sRGB">
<feFlood flood-opacity="0" result="BackgroundImageFix"/>
<feGaussianBlur in="BackgroundImageFix" stdDeviation="9.37434"/>
<feComposite in2="SourceAlpha" operator="in" result="effect1_backgroundBlur_1_11318"/>
<feBlend mode="normal" in="SourceGraphic" in2="effect1_backgroundBlur_1_11318" result="shape"/>
</filter>
<filter id="filter7_b_1_11318" x="49.3453" y="277.962" width="98.6599" height="112.254" filterUnits="userSpaceOnUse" color-interpolation-filters="sRGB">
<feFlood flood-opacity="0" result="BackgroundImageFix"/>
<feGaussianBlur in="BackgroundImageFix" stdDeviation="9.37434"/>
<feComposite in2="SourceAlpha" operator="in" result="effect1_backgroundBlur_1_11318"/>
<feBlend mode="normal" in="SourceGraphic" in2="effect1_backgroundBlur_1_11318" result="shape"/>
</filter>
<filter id="filter8_b_1_11318" x="135.879" y="43.2984" width="187.259" height="235.968" filterUnits="userSpaceOnUse" color-interpolation-filters="sRGB">
<feFlood flood-opacity="0" result="BackgroundImageFix"/>
<feGaussianBlur in="BackgroundImageFix" stdDeviation="9.99825"/>
<feComposite in2="SourceAlpha" operator="in" result="effect1_backgroundBlur_1_11318"/>
<feBlend mode="normal" in="SourceGraphic" in2="effect1_backgroundBlur_1_11318" result="shape"/>
</filter>
<filter id="filter9_b_1_11318" x="91.7613" y="51.8814" width="212.373" height="234.001" filterUnits="userSpaceOnUse" color-interpolation-filters="sRGB">
<feFlood flood-opacity="0" result="BackgroundImageFix"/>
<feGaussianBlur in="BackgroundImageFix" stdDeviation="9.99825"/>
<feComposite in2="SourceAlpha" operator="in" result="effect1_backgroundBlur_1_11318"/>
<feBlend mode="normal" in="SourceGraphic" in2="effect1_backgroundBlur_1_11318" result="shape"/>
</filter>
<filter id="filter10_b_1_11318" x="103.425" y="69.2525" width="183.3" height="204.966" filterUnits="userSpaceOnUse" color-interpolation-filters="sRGB">
<feFlood flood-opacity="0" result="BackgroundImageFix"/>
<feGaussianBlur in="BackgroundImageFix" stdDeviation="9.99825"/>
<feComposite in2="SourceAlpha" operator="in" result="effect1_backgroundBlur_1_11318"/>
<feBlend mode="normal" in="SourceGraphic" in2="effect1_backgroundBlur_1_11318" result="shape"/>
</filter>
<filter id="filter11_b_1_11318" x="109.254" y="74.5025" width="177.242" height="197.492" filterUnits="userSpaceOnUse" color-interpolation-filters="sRGB">
<feFlood flood-opacity="0" result="BackgroundImageFix"/>
<feGaussianBlur in="BackgroundImageFix" stdDeviation="9.99825"/>
<feComposite in2="SourceAlpha" operator="in" result="effect1_backgroundBlur_1_11318"/>
<feBlend mode="normal" in="SourceGraphic" in2="effect1_backgroundBlur_1_11318" result="shape"/>
</filter>
<filter id="filter12_b_1_11318" x="139.183" y="93.4146" width="126.579" height="150.497" filterUnits="userSpaceOnUse" color-interpolation-filters="sRGB">
<feFlood flood-opacity="0" result="BackgroundImageFix"/>
<feGaussianBlur in="BackgroundImageFix" stdDeviation="9.99825"/>
<feComposite in2="SourceAlpha" operator="in" result="effect1_backgroundBlur_1_11318"/>
<feBlend mode="normal" in="SourceGraphic" in2="effect1_backgroundBlur_1_11318" result="shape"/>
</filter>
<filter id="filter13_b_1_11318" x="203.168" y="190.645" width="54.0653" height="53.2664" filterUnits="userSpaceOnUse" color-interpolation-filters="sRGB">
<feFlood flood-opacity="0" result="BackgroundImageFix"/>
<feGaussianBlur in="BackgroundImageFix" stdDeviation="9.99825"/>
<feComposite in2="SourceAlpha" operator="in" result="effect1_backgroundBlur_1_11318"/>
<feBlend mode="normal" in="SourceGraphic" in2="effect1_backgroundBlur_1_11318" result="shape"/>
</filter>
<filter id="filter14_b_1_11318" x="143.488" y="121.207" width="96.7205" height="100.374" filterUnits="userSpaceOnUse" color-interpolation-filters="sRGB">
<feFlood flood-opacity="0" result="BackgroundImageFix"/>
<feGaussianBlur in="BackgroundImageFix" stdDeviation="9.99825"/>
<feComposite in2="SourceAlpha" operator="in" result="effect1_backgroundBlur_1_11318"/>
<feBlend mode="normal" in="SourceGraphic" in2="effect1_backgroundBlur_1_11318" result="shape"/>
</filter>
<filter id="filter15_b_1_11318" x="123.545" y="95.1656" width="137.388" height="149.737" filterUnits="userSpaceOnUse" color-interpolation-filters="sRGB">
<feFlood flood-opacity="0" result="BackgroundImageFix"/>
<feGaussianBlur in="BackgroundImageFix" stdDeviation="9.99825"/>
<feComposite in2="SourceAlpha" operator="in" result="effect1_backgroundBlur_1_11318"/>
<feBlend mode="normal" in="SourceGraphic" in2="effect1_backgroundBlur_1_11318" result="shape"/>
</filter>
<linearGradient id="paint0_linear_1_11318" x1="231.156" y1="318.323" x2="231.156" y2="370.195" gradientUnits="userSpaceOnUse">
<stop stop-color="white"/>
<stop offset="0.680302" stop-color="white" stop-opacity="0.43658"/>
<stop offset="1" stop-color="white" stop-opacity="0"/>
</linearGradient>
<linearGradient id="paint1_linear_1_11318" x1="127.406" y1="379.505" x2="127.406" y2="431.376" gradientUnits="userSpaceOnUse">
<stop stop-color="white"/>
<stop offset="0.680302" stop-color="white" stop-opacity="0.43658"/>
<stop offset="1" stop-color="white" stop-opacity="0"/>
</linearGradient>
<linearGradient id="paint2_linear_1_11318" x1="175.708" y1="35.2181" x2="175.708" y2="178.446" gradientUnits="userSpaceOnUse">
<stop stop-color="#ACFF43" stop-opacity="0.9"/>
<stop offset="1" stop-color="#ACFF43" stop-opacity="0"/>
</linearGradient>
<linearGradient id="paint3_linear_1_11318" x1="174.834" y1="156.695" x2="174.834" y2="299.922" gradientUnits="userSpaceOnUse">
<stop stop-color="#ACFF43" stop-opacity="0.9"/>
<stop offset="1" stop-color="#ACFF43" stop-opacity="0"/>
</linearGradient>
<linearGradient id="paint4_linear_1_11318" x1="143.812" y1="0" x2="143.813" y2="51.8716" gradientUnits="userSpaceOnUse">
<stop stop-color="white"/>
<stop offset="0.680302" stop-color="white" stop-opacity="0.43658"/>
<stop offset="1" stop-color="white" stop-opacity="0"/>
</linearGradient>
<linearGradient id="paint5_linear_1_11318" x1="81.2969" y1="129.457" x2="81.2969" y2="181.329" gradientUnits="userSpaceOnUse">
<stop stop-color="white"/>
<stop offset="0.680302" stop-color="white" stop-opacity="0.43658"/>
<stop offset="1" stop-color="white" stop-opacity="0"/>
</linearGradient>
<linearGradient id="paint6_linear_1_11318" x1="176.18" y1="401.672" x2="176.18" y2="490.341" gradientUnits="userSpaceOnUse">
<stop stop-color="white"/>
<stop offset="0.680302" stop-color="white" stop-opacity="0.43658"/>
<stop offset="1" stop-color="white" stop-opacity="0"/>
</linearGradient>
</defs>
</svg>
