<svg width="106" height="105" viewBox="0 0 106 105" fill="none" xmlns="http://www.w3.org/2000/svg">
<path d="M66.0878 38.2704L68.4828 33.4448L63.1062 33.7835L66.0878 38.2704ZM11.9814 70.2283C11.9814 69.9179 11.9844 69.6081 11.9902 69.2989L11.0572 69.2814C11.0513 69.5964 11.0483 69.912 11.0483 70.2283H11.9814ZM12.0593 67.4518C12.0939 66.8352 12.1398 66.2214 12.1967 65.6105L11.2676 65.524C11.2097 66.1462 11.1629 66.7714 11.1277 67.3996L12.0593 67.4518ZM12.4018 63.7725C12.4815 63.1603 12.5721 62.5515 12.6732 61.9461L11.7528 61.7924C11.6499 62.4087 11.5577 63.0287 11.4765 63.6521L12.4018 63.7725ZM13.0105 60.127C13.1339 59.5221 13.2676 58.9211 13.4114 58.324L12.5043 58.1055C12.3579 58.7131 12.2218 59.3248 12.0962 59.9405L13.0105 60.127ZM13.876 56.5326C14.0413 55.9377 14.2165 55.3472 14.4012 54.7612L13.5112 54.4807C13.3234 55.0768 13.1452 55.6775 12.977 56.2828L13.876 56.5326ZM14.9873 53.0054C15.1927 52.4228 15.4074 51.8452 15.631 51.2727L14.7618 50.9333C14.5345 51.5153 14.3162 52.1027 14.1073 52.695L14.9873 53.0054ZM16.3327 49.5595C16.5763 48.9914 16.8286 48.4289 17.0891 47.8721L16.2439 47.4767C15.9791 48.0426 15.7228 48.6143 15.4751 49.1917L16.3327 49.5595ZM17.9004 46.208C18.1804 45.6564 18.4684 45.1109 18.7639 44.5718L17.9457 44.1232C17.6455 44.6709 17.3529 45.2251 17.0684 45.7856L17.9004 46.208ZM19.6793 42.963C19.994 42.4296 20.316 41.903 20.645 41.3835L19.8566 40.8844C19.5225 41.4121 19.1953 41.947 18.8756 42.4888L19.6793 42.963ZM21.6589 39.8363C22.007 39.323 22.3617 38.8172 22.7225 38.3192L21.967 37.7717C21.6004 38.2775 21.2401 38.7912 20.8866 39.3127L21.6589 39.8363ZM23.8301 36.8405C24.2105 36.3489 24.5968 35.8659 24.9885 35.3916L24.2691 34.7974C23.8711 35.2793 23.4786 35.7701 23.0922 36.2694L23.8301 36.8405ZM26.1851 33.989C26.5971 33.5214 27.0142 33.0633 27.436 32.6151L26.7565 31.9757C26.3277 32.4313 25.9037 32.8969 25.485 33.3721L26.1851 33.989ZM28.721 31.2941C29.1631 30.8545 29.6094 30.4256 30.0595 30.0078L29.4246 29.324C28.9667 29.7491 28.5126 30.1854 28.063 30.6325L28.721 31.2941ZM31.4349 28.7751C31.9049 28.3687 32.3782 27.9743 32.8541 27.5924L32.2701 26.8647C31.7852 27.2538 31.3031 27.6555 30.8245 28.0693L31.4349 28.7751ZM34.3207 26.4609C34.8174 26.0928 35.3162 25.7385 35.8163 25.3982L35.2915 24.6267C34.7808 24.9741 34.2718 25.3358 33.7652 25.7112L34.3207 26.4609ZM37.3738 24.387C37.9032 24.0597 38.4332 23.7485 38.963 23.4539L38.5095 22.6384C37.9668 22.9402 37.4243 23.2587 36.883 23.5934L37.3738 24.387ZM40.5864 22.603C41.1487 22.3263 41.7098 22.0689 42.2686 21.8314L41.9036 20.9727C41.3284 21.2171 40.7517 21.4817 40.1744 21.7658L40.5864 22.603ZM43.9791 21.1644C44.5623 20.9576 45.1417 20.7737 45.7162 20.613L45.465 19.7144C44.8693 19.881 44.2696 20.0714 43.6673 20.2849L43.9791 21.1644ZM47.5022 20.1861C48.1124 20.0656 48.7152 19.9734 49.3092 19.91L49.2102 18.9821C48.5875 19.0486 47.9574 19.1451 47.3215 19.2707L47.5022 20.1861ZM51.1222 19.8066C51.736 19.8034 52.3379 19.834 52.9262 19.8992L53.0289 18.9718C52.4032 18.9025 51.7654 18.8702 51.1174 18.8735L51.1222 19.8066ZM54.6989 20.2113C55.2865 20.3556 55.8575 20.539 56.41 20.7626L56.76 19.8977C56.1647 19.6567 55.551 19.4597 54.9214 19.3051L54.6989 20.2113ZM58.0164 21.5585C58.5239 21.8602 59.0123 22.2025 59.4798 22.5867L60.0723 21.8658C59.5683 21.4516 59.0412 21.0822 58.4931 20.7564L58.0164 21.5585ZM60.7764 23.821C61.1697 24.2527 61.544 24.7218 61.8976 25.2296L62.6634 24.6964C62.2873 24.1563 61.8877 23.6552 61.4661 23.1926L60.7764 23.821ZM62.8485 26.784C63.1244 27.2981 63.383 27.8434 63.623 28.4206L64.4846 28.0624C64.2334 27.4581 63.9617 26.8851 63.6707 26.3427L62.8485 26.784ZM64.2449 30.12C64.4272 30.6891 64.5936 31.2841 64.7435 31.9058L65.6506 31.6871C65.4957 31.0443 65.3231 30.4272 65.1336 29.8354L64.2449 30.12ZM65.1125 33.6808C65.2165 34.2686 65.307 34.877 65.3835 35.5065L66.3098 35.3939C66.2313 34.7485 66.1384 34.1233 66.0314 33.5183L65.1125 33.6808Z" fill="white"/>
<path fill-rule="evenodd" clip-rule="evenodd" d="M51.8097 82.7319C51.8077 83.4608 51.3804 84.1773 50.5456 84.6805L28.1539 98.1805C26.608 99.1125 24.2504 98.9604 22.8879 97.8408L3.15188 81.6235C2.52514 81.1085 2.21815 80.4785 2.21982 79.8575L2.08832 83.1583C2.08665 83.7793 2.39365 84.4093 3.02039 84.9243L22.7564 101.142C24.1189 102.261 26.4765 102.413 28.0224 101.481L50.4141 87.9814C51.2489 87.4781 51.6762 86.7616 51.6782 86.0327L51.8097 82.7319Z" fill="#0E0E0E" stroke="white" stroke-width="0.466549"/>
<path fill-rule="evenodd" clip-rule="evenodd" d="M2.22217 79.8575C2.22413 79.1285 2.65146 78.4121 3.48621 77.9088L25.878 64.4089C27.4238 63.4769 29.7814 63.629 31.1439 64.7485L50.8799 80.9659C51.5067 81.4809 51.8137 82.1109 51.812 82.7319L51.6805 86.0327C51.6822 85.4117 51.3752 84.7817 50.7485 84.2667L31.0124 68.0493C29.6499 66.9298 27.2923 66.7777 25.7465 67.7097L3.35471 81.2096C2.51996 81.7129 2.09264 82.4294 2.09068 83.1583L2.22217 79.8575Z" fill="#0E0E0E" stroke="white" stroke-width="0.466549"/>
<path d="M25.9977 64.6086C26.7228 64.1714 27.6495 63.9832 28.5639 64.0421C29.4786 64.1011 30.359 64.4061 30.9951 64.9288L50.7311 81.1461C51.3643 81.6664 51.6235 82.2912 51.5715 82.8728C51.5194 83.4559 51.1501 84.0447 50.4268 84.4808L28.0351 97.9807C27.3099 98.4179 26.3832 98.6062 25.4688 98.5472C24.5541 98.4882 23.6737 98.1833 23.0376 97.6606L3.30161 81.4432C2.66839 80.9229 2.40924 80.2982 2.46122 79.7166C2.51333 79.1334 2.88263 78.5447 3.60592 78.1086L25.9977 64.6086Z" fill="#0E0E0E" stroke="white" stroke-width="0.466549"/>
<path fill-rule="evenodd" clip-rule="evenodd" d="M103.909 52.7006C103.907 53.4296 103.479 54.146 102.645 54.6493L80.253 68.1492C78.7072 69.0812 76.3495 68.9292 74.987 67.8096L55.251 51.5922C54.6243 51.0772 54.3173 50.4472 54.3189 49.8262L54.1874 53.1271C54.1858 53.748 54.4928 54.378 55.1195 54.893L74.8555 71.1104C76.218 72.23 78.5757 72.3821 80.1215 71.4501L102.513 57.9501C103.348 57.4468 103.775 56.7304 103.777 56.0014L103.909 52.7006Z" fill="#0E0E0E" stroke="white" stroke-width="0.466549"/>
<path fill-rule="evenodd" clip-rule="evenodd" d="M54.3213 49.8262C54.3233 49.0973 54.7506 48.3808 55.5853 47.8776L77.9771 34.3776C79.5229 33.4456 81.8806 33.5977 83.2431 34.7173L102.979 50.9346C103.606 51.4496 103.913 52.0796 103.911 52.7006L103.78 56.0014C103.781 55.3805 103.474 54.7505 102.848 54.2354L83.1116 38.0181C81.7491 36.8985 79.3914 36.7464 77.8456 37.6784L55.4538 51.1784C54.6191 51.6817 54.1918 52.3981 54.1898 53.1271L54.3213 49.8262Z" fill="#0E0E0E" stroke="white" stroke-width="0.466549"/>
<path d="M78.0975 34.5774C78.8227 34.1402 79.7494 33.9519 80.6638 34.0109C81.5785 34.0699 82.4589 34.3748 83.0949 34.8975L102.831 51.1149C103.464 51.6352 103.723 52.2599 103.671 52.8415C103.619 53.4247 103.25 54.0134 102.527 54.4495L80.1349 67.9495C79.4098 68.3867 78.483 68.5749 77.5686 68.516C76.6539 68.457 75.7736 68.152 75.1375 67.6293L55.4015 51.412C54.7682 50.8917 54.5091 50.2669 54.5611 49.6853C54.6132 49.1022 54.9825 48.5134 55.7058 48.0773L78.0975 34.5774Z" fill="#0E0E0E" stroke="white" stroke-width="0.466549"/>
<path fill-rule="evenodd" clip-rule="evenodd" d="M26.8531 46.9845C25.9796 46.8154 25.2945 45.9352 25.1406 44.6013L21.9549 16.9995C21.735 15.094 22.6823 12.9843 24.0709 12.2875L44.1845 2.19349C44.6011 1.98444 45.01 1.92628 45.3844 1.99875L41.9722 1.17524C41.5978 1.10277 41.1889 1.16093 40.7723 1.36998L20.6587 11.464C19.2701 12.1608 18.3228 14.2705 18.5427 16.176L21.7284 43.7778C21.8823 45.1117 22.5674 45.9919 23.4409 46.161L26.8531 46.9845Z" fill="#0E0E0E" stroke="white" stroke-width="0.466549"/>
<path fill-rule="evenodd" clip-rule="evenodd" d="M45.3849 1.99831C46.2584 2.1674 46.9435 3.04767 47.0974 4.38153L50.2831 31.9834C50.503 33.8889 49.5557 35.9985 48.1671 36.6954L28.0535 46.7894C27.6369 46.9984 27.228 47.0566 26.8536 46.9841L23.4414 46.1606C23.8158 46.2331 24.2247 46.1749 24.6413 45.9659L44.7549 35.8718C46.1435 35.175 47.0908 33.0654 46.8709 31.1599L43.6852 3.55803C43.5313 2.22416 42.8462 1.3439 41.9727 1.1748L45.3849 1.99831Z" fill="#0E0E0E" stroke="white" stroke-width="0.466549"/>
<path d="M27.9446 46.581C27.3241 46.8924 26.7465 46.824 26.2949 46.4847C25.8332 46.1377 25.4735 45.4836 25.3686 44.5743L22.1829 16.9725C22.0782 16.0652 22.2515 15.1035 22.6188 14.2855C22.9873 13.4649 23.5398 12.8129 24.1718 12.4957L44.2854 2.40172C44.9059 2.09033 45.4835 2.15873 45.9351 2.49807C46.3968 2.84502 46.7565 3.49917 46.8614 4.40845L50.0471 32.0103C50.1519 32.9176 49.9786 33.8793 49.6113 34.6972C49.2427 35.5179 48.6902 36.1699 48.0582 36.487L27.9446 46.581Z" fill="#0E0E0E" stroke="white" stroke-width="0.466549"/>
<path fill-rule="evenodd" clip-rule="evenodd" d="M30.5173 42.4336C29.8845 42.2841 29.4048 41.635 29.5409 40.8556L32.0971 26.2161C32.2463 25.3612 33.0341 24.9001 33.7263 25.067L32.1497 24.6744C31.4575 24.5076 30.6697 24.9687 30.5204 25.8236L27.9642 40.463C27.8281 41.2424 28.3079 41.8915 28.9406 42.041L30.5173 42.4336Z" fill="#0E0E0E" stroke="white" stroke-width="0.139965" stroke-linejoin="round"/>
<path fill-rule="evenodd" clip-rule="evenodd" d="M33.7224 25.0664C33.9656 25.125 34.197 25.2611 34.3848 25.4849L38.6021 30.5108C38.781 30.7239 39.0082 30.861 39.2508 30.923L37.6742 30.5305C37.4316 30.4684 37.2044 30.3314 37.0255 30.1182L32.8082 25.0923C32.6204 24.8686 32.389 24.7324 32.1458 24.6738L33.7224 25.0664Z" fill="#0E0E0E" stroke="white" stroke-width="0.139965" stroke-linejoin="round"/>
<path fill-rule="evenodd" clip-rule="evenodd" d="M39.2532 30.9239C39.7241 31.0444 40.253 30.8822 40.5994 30.4453L41.7064 29.0491C42.045 28.622 42.5598 28.4563 43.0243 28.5636L41.4477 28.1711C40.9831 28.0638 40.4684 28.2295 40.1297 28.6566L39.0227 30.0528C38.6764 30.4896 38.1475 30.6518 37.6766 30.5314L39.2532 30.9239Z" fill="#0E0E0E" stroke="white" stroke-width="0.139965" stroke-linejoin="round"/>
<path fill-rule="evenodd" clip-rule="evenodd" d="M43.029 28.5639C43.2683 28.6191 43.4943 28.7469 43.6759 28.9486L46.8117 32.431C47.4229 33.1098 47.2075 34.2436 46.3878 34.662L31.3819 42.322C31.0909 42.4705 30.7917 42.4982 30.5205 42.4341L28.9439 42.0416C29.215 42.1057 29.5143 42.078 29.8053 41.9295L44.8111 34.2695C45.6309 33.8511 45.8463 32.7172 45.2351 32.0384L42.0993 28.556C41.9176 28.3543 41.6917 28.2266 41.4524 28.1713L43.029 28.5639Z" fill="#0E0E0E" stroke="white" stroke-width="0.139965" stroke-linejoin="round"/>
<path d="M46.3826 34.6615L31.3768 42.3215C30.407 42.8165 29.3445 41.9691 29.5389 40.8556L32.0951 26.2162C32.2969 25.0609 33.6646 24.6248 34.3868 25.4855L38.6041 30.5114C39.1303 31.1383 40.0741 31.107 40.5989 30.445L41.7059 29.0489C42.219 28.4017 43.1365 28.3547 43.6708 28.9481L46.8066 32.4304C47.4178 33.1092 47.2024 34.2431 46.3826 34.6615Z" fill="#0E0E0E" stroke="white" stroke-width="0.466549"/>
<path fill-rule="evenodd" clip-rule="evenodd" d="M41.9623 23.0132C41.3578 22.9026 40.9018 22.3487 40.9018 21.6701C40.9018 20.899 41.4906 20.259 42.217 20.2405C42.3042 20.2383 42.3894 20.2452 42.4718 20.2602L41.5144 20.0768C41.432 20.0617 41.3468 20.0548 41.2596 20.057C40.5332 20.0755 39.9443 20.7155 39.9443 21.4866C39.9443 22.1652 40.4004 22.7191 41.0048 22.8298L41.9623 23.0132Z" fill="#0E0E0E" stroke="white" stroke-width="0.139965" stroke-linejoin="round"/>
<path fill-rule="evenodd" clip-rule="evenodd" d="M42.4738 20.2606C43.0783 20.3712 43.5343 20.9252 43.5343 21.6037C43.5343 22.3748 42.9455 23.0149 42.2191 23.0333C42.1319 23.0356 42.0467 23.0287 41.9643 23.0136L41.0068 22.8301C41.0893 22.8452 41.1745 22.8521 41.2616 22.8499C41.988 22.8314 42.5769 22.1914 42.5769 21.4203C42.5769 20.7417 42.1209 20.1878 41.5164 20.0771L42.4738 20.2606Z" fill="#0E0E0E" stroke="white" stroke-width="0.139965" stroke-linejoin="round"/>
<path d="M43.3001 21.6035C43.3001 22.2608 42.7997 22.7849 42.2122 22.7999C41.6302 22.8146 41.1361 22.324 41.1361 21.6702C41.1361 21.0129 41.6365 20.4888 42.224 20.4738C42.806 20.4591 43.3001 20.9497 43.3001 21.6035Z" fill="#ACFF43" stroke="white" stroke-width="0.466549"/>
<path fill-rule="evenodd" clip-rule="evenodd" d="M43.4895 5.8622C43.8623 5.93274 44.1714 6.2603 44.1937 6.70887L44.3141 9.13454C44.3324 9.50382 44.1425 9.85476 43.8306 10.0283L26.6359 19.5912C26.4596 19.6893 26.2726 19.7181 26.0978 19.6908L25.1404 19.5073C25.3151 19.5346 25.5022 19.5058 25.6784 19.4078L42.8731 9.84477C43.1851 9.67127 43.375 9.32033 43.3566 8.95105L43.2362 6.52538C43.214 6.07681 42.9049 5.74925 42.5321 5.67871L43.4895 5.8622Z" fill="#0E0E0E" stroke="white" stroke-width="0.139965" stroke-linejoin="round"/>
<path fill-rule="evenodd" clip-rule="evenodd" d="M26.0939 19.6903C25.7225 19.6322 25.4066 19.3202 25.3669 18.8786L25.1081 16.0011C25.0731 15.6112 25.2727 15.2341 25.6072 15.0582L42.9403 5.94707C43.1206 5.85226 43.3101 5.82854 43.4856 5.86174L42.5281 5.67825C42.3527 5.64505 42.1632 5.66877 41.9828 5.76358L24.6498 14.8747C24.3153 15.0506 24.1156 15.4277 24.1507 15.8177L24.4094 18.6951C24.4492 19.1367 24.7651 19.4487 25.1364 19.5068L26.0939 19.6903Z" fill="#0E0E0E" stroke="white" stroke-width="0.139965" stroke-linejoin="round"/>
<path d="M25.3628 18.8787L25.1041 16.0012C25.069 15.6113 25.2687 15.2342 25.6032 15.0583L42.9362 5.94717C43.4998 5.6509 44.1529 6.04885 44.1856 6.70852L44.306 9.13418C44.3244 9.50346 44.1345 9.85441 43.8225 10.0279L26.6278 19.5909C26.077 19.8972 25.4212 19.5281 25.3628 18.8787Z" fill="#0E0E0E" stroke="white" stroke-width="0.466549"/>
<path fill-rule="evenodd" clip-rule="evenodd" d="M32.6067 76.3903L20.891 76.334L20.834 77.234L32.5497 77.2904L32.6067 76.3903Z" fill="#0E0E0E" stroke="white" stroke-width="0.139965" stroke-linejoin="round"/>
<path fill-rule="evenodd" clip-rule="evenodd" d="M20.891 76.3342L26.7489 68.29L32.6067 76.3906L32.5497 77.2906L26.6919 69.1901L20.834 77.2343L20.891 76.3342Z" fill="#0E0E0E" stroke="white" stroke-width="0.139965" stroke-linejoin="round"/>
<path d="M21.3553 76.1032L26.7556 68.6872L32.156 76.1551L21.3553 76.1032Z" fill="#ACFF43" stroke="white" stroke-width="0.466549"/>
<path fill-rule="evenodd" clip-rule="evenodd" d="M32.5886 83.3641L20.8782 83.2109L20.9922 81.9883L32.7026 82.1415L32.5886 83.3641Z" fill="#0E0E0E" stroke="white" stroke-width="0.139965" stroke-linejoin="round"/>
<path fill-rule="evenodd" clip-rule="evenodd" d="M20.8782 83.2109L26.7334 91.0737L32.5886 83.3641L32.7026 82.1415L26.8473 89.8511L20.9922 81.9883L20.8782 83.2109Z" fill="#0E0E0E" stroke="white" stroke-width="0.139965" stroke-linejoin="round"/>
<path d="M21.4586 82.2277L32.2344 82.3687L26.8465 89.463L21.4586 82.2277Z" fill="#ACFF43" stroke="white" stroke-width="0.466549"/>
<path d="M91.6797 41.9678L73.4839 53.1647" stroke="white" stroke-width="0.466549"/>
<path d="M72.7888 54.5645C73.0921 54.5645 73.3756 54.4726 73.5886 54.3129C73.8017 54.1531 73.9552 53.9146 73.9552 53.6314C73.9552 53.3483 73.8017 53.1098 73.5886 52.95C73.3756 52.7903 73.0921 52.6984 72.7888 52.6984C72.4856 52.6984 72.202 52.7903 71.9891 52.95C71.776 53.1098 71.6224 53.3483 71.6224 53.6314C71.6224 53.9146 71.776 54.1531 71.9891 54.3129C72.202 54.4726 72.4856 54.5645 72.7888 54.5645Z" fill="#ACFF43" stroke="white" stroke-width="0.466549"/>
<path d="M72.1677 46.6233C72.7217 46.6703 73.2868 46.3413 73.3338 45.7858C73.3809 45.2302 72.8793 44.8108 72.3253 44.7638C71.7713 44.7169 71.2062 45.0459 71.1591 45.6014C71.112 46.157 71.6137 46.5764 72.1677 46.6233Z" fill="#ACFF43" stroke="white" stroke-width="0.466549"/>
<path d="M82.8153 47.3324L77.2638 43.0622C76.9549 42.8246 76.5309 42.804 76.2004 43.0105L73.0176 44.9997" stroke="white" stroke-width="0.466549"/>
<path d="M84.9121 55.0304C85.2154 55.0304 85.4989 54.9385 85.7119 54.7787C85.9249 54.619 86.0785 54.3804 86.0785 54.0973C86.0785 53.8141 85.9249 53.5756 85.7119 53.4158C85.4989 53.2561 85.2154 53.1642 84.9121 53.1642C84.6089 53.1642 84.3253 53.2561 84.1123 53.4158C83.8993 53.5756 83.7457 53.8141 83.7457 54.0973C83.7457 54.3804 83.8993 54.619 84.1123 54.7787C84.3253 54.9385 84.6089 55.0304 84.9121 55.0304Z" fill="#ACFF43" stroke="white" stroke-width="0.466549"/>
<path d="M88.4179 44.0674L93.2349 48.1135C93.7293 48.5287 93.6626 49.3086 93.1049 49.6339L85.8518 53.8647" stroke="white" stroke-width="0.466549"/>
<path d="M15.0707 20.7911C15.0707 22.1304 13.985 23.2162 12.6456 23.2162C11.3062 23.2162 10.2205 22.1304 10.2205 20.7911C10.2205 19.4517 11.3062 18.366 12.6456 18.366C13.985 18.366 15.0707 19.4517 15.0707 20.7911Z" fill="#0E0E0E" stroke="white" stroke-width="0.44093"/>
<path d="M9.30699 25.9092C9.30699 26.7615 8.61605 27.4525 7.76373 27.4525C6.9114 27.4525 6.22046 26.7615 6.22046 25.9092C6.22046 25.0569 6.9114 24.366 7.76373 24.366C8.61605 24.366 9.30699 25.0569 9.30699 25.9092Z" fill="#0E0E0E" stroke="white" stroke-width="0.44093"/>
<path d="M6.42513 18.4683C6.42513 19.0771 5.9316 19.5706 5.3228 19.5706C4.71399 19.5706 4.22046 19.0771 4.22046 18.4683C4.22046 17.8595 4.71399 17.366 5.3228 17.366C5.9316 17.366 6.42513 17.8595 6.42513 18.4683Z" fill="#0E0E0E" stroke="white" stroke-width="0.44093"/>
</svg>
