<svg width="24" height="24" viewBox="0 0 24 24" fill="none" xmlns="http://www.w3.org/2000/svg">
<path d="M15.8535 10.5C15.9706 10.3828 15.9706 10.1929 15.8535 10.0757L15.1464 9.36863C15.0292 9.25147 14.8393 9.25147 14.7221 9.36863L11.1413 12.9494C11.0632 13.0275 10.9366 13.0275 10.8585 12.9494L9.2063 11.2972C9.08914 11.18 8.89919 11.18 8.78203 11.2972L8.07493 12.0043C7.95777 12.1215 7.95777 12.3114 8.07493 12.4286L10.7878 15.1414C10.9049 15.2586 11.0949 15.2586 11.212 15.1414L15.8535 10.5Z" fill="#05C28C"/>
<path fill-rule="evenodd" clip-rule="evenodd" d="M21.5 12C21.5 17.2467 17.2467 21.5 12 21.5C6.75329 21.5 2.5 17.2467 2.5 12C2.5 6.75329 6.75329 2.5 12 2.5C17.2467 2.5 21.5 6.75329 21.5 12ZM19.9 12C19.9 16.363 16.363 19.9 12 19.9C7.63695 19.9 4.1 16.363 4.1 12C4.1 7.63695 7.63695 4.1 12 4.1C16.363 4.1 19.9 7.63695 19.9 12Z" fill="#05C28C"/>
</svg>
