<svg xmlns="http://www.w3.org/2000/svg" xmlns:xlink="http://www.w3.org/1999/xlink" width="24" height="24" fill="none"><g><mask id="b" fill="#fff"><use xlink:href="#a"/></mask><g mask="url(#b)"><path style="fill:#fff;opacity:1" d="M2.9 11.5h18a.5.5 0 1 1 0 1h-18a.5.5 0 0 1 0-1z"/><path style="fill:#24ff24;opacity:1" d="M8.9 5.5a.5.5 0 0 1 .353.854L3.607 12l5.646 5.646a.499.499 0 0 1-.354.854.499.499 0 0 1-.353-.146l-6-6a.5.5 0 0 1 0-.708l6-6a.498.498 0 0 1 .353-.146z"/></g></g><defs><path id="a" d="M0 0h24v24H0z"/></defs></svg>