<svg xmlns="http://www.w3.org/2000/svg" xmlns:xlink="http://www.w3.org/1999/xlink" width="22" height="22" viewBox="0 0 22 22" fill="none"><g opacity="1"  transform="translate(0 0)  rotate(0)"><g opacity="1"  transform="translate(0 0)  rotate(0)"><mask id="bg-mask-0" fill="white"><use transform="translate(0 0)  rotate(-7.0167217375642474e-15)" xlink:href="#path_0"></use></mask><g mask="url(#bg-mask-0)" ><path id="Vector" fill-rule="evenodd" style="fill:#D43030" opacity="1" d="M11.0017,3.76163c-4.00003,0 -7.24003,3.24 -7.24003,7.23997c0,4 3.24,7.24 7.24003,7.24c4,0 7.24,-3.24 7.24,-7.24c0,-3.99997 -3.24,-7.23997 -7.24,-7.23997zM19.7117,11.0016c0,4.81 -3.9,8.71 -8.71,8.71c-4.81003,0 -8.71003,-3.9 -8.71003,-8.71c0,-4.80997 3.9,-8.70997 8.71003,-8.70997c4.81,0 8.71,3.9 8.71,8.70997zM11.0017,9.96163l1.81,-1.81c0.15,-0.15 0.38,-0.15 0.52,0l0.52,0.51c0.14,0.15 0.14,0.38 0,0.52l-1.81,1.81997l1.81,1.81c0.14,0.15 0.14,0.38 0,0.52l-0.52,0.52c-0.14,0.14 -0.37,0.14 -0.52,0l-1.81,-1.81l-1.82003,1.81c-0.14,0.14 -0.37,0.14 -0.52,0l-0.51,-0.52c-0.15,-0.14 -0.15,-0.37 0,-0.52l1.81,-1.81l-1.81,-1.81997c-0.15,-0.14 -0.15,-0.37 0,-0.52l0.51,-0.51c0.15,-0.15 0.38,-0.15 0.52,0z"></path></g></g></g><defs><rect id="path_0" x="0" y="0" width="22" height="22" /></defs></svg>